<svg width="12" height="12" viewBox="0 0 12 12" fill="none" xmlns="http://www.w3.org/2000/svg">
<path d="M0.546185 6.19931L0.546277 6.19927L0.542493 6.19006C0.492484 6.06833 0.492484 5.93179 0.542493 5.81006L0.542584 5.8101L0.546185 5.80081C0.569433 5.74085 0.604028 5.68595 0.64806 5.63911L5.64356 0.643617L5.645 0.64216C5.69148 0.595294 5.74679 0.558097 5.80771 0.532714C5.86864 0.50733 5.93399 0.494261 6 0.494261C6.06601 0.494261 6.13136 0.50733 6.19229 0.532714C6.25321 0.558097 6.30852 0.595294 6.355 0.64216L6.3579 0.64506C6.40476 0.691543 6.44196 0.746842 6.46734 0.807771C6.49273 0.868701 6.5058 0.934053 6.5058 1.00006C6.5058 1.06606 6.49273 1.13142 6.46734 1.19235C6.44196 1.25328 6.40476 1.30858 6.3579 1.35506L6.35698 1.35597L3.05698 4.64597L2.2003 5.50006H3.41H11C11.1326 5.50006 11.2598 5.55274 11.3536 5.64651C11.4473 5.74027 11.5 5.86745 11.5 6.00006C11.5 6.13267 11.4473 6.25984 11.3536 6.35361C11.2598 6.44738 11.1326 6.50006 11 6.50006H3.41H2.2003L3.05698 7.35415L6.35645 10.6436C6.35652 10.6437 6.35659 10.6438 6.35666 10.6438C6.45106 10.7383 6.50409 10.8665 6.50409 11.0001C6.50409 11.0663 6.49105 11.1318 6.46572 11.193C6.44039 11.2541 6.40326 11.3097 6.35645 11.3565C6.26191 11.451 6.13369 11.5042 6 11.5042C5.9338 11.5042 5.86825 11.4911 5.80709 11.4658C5.74593 11.4404 5.69036 11.4033 5.64355 11.3565L0.64806 6.36101C0.604028 6.31417 0.569433 6.25927 0.546185 6.19931Z" fill="#F0F0F0" stroke="black"/>
</svg>
