<svg width="12" height="14" viewBox="0 0 12 14" fill="none" xmlns="http://www.w3.org/2000/svg">
<path d="M6.00033 11.1073C6.1157 11.1073 6.22848 11.0731 6.32441 11.009C6.42034 10.9449 6.4951 10.8538 6.53926 10.7472C6.58341 10.6406 6.59496 10.5233 6.57245 10.4101C6.54994 10.297 6.49439 10.193 6.4128 10.1115C6.33122 10.0299 6.22728 9.97432 6.11413 9.95181C6.00097 9.9293 5.88368 9.94086 5.77709 9.98501C5.6705 10.0292 5.5794 10.1039 5.5153 10.1999C5.4512 10.2958 5.41699 10.4086 5.41699 10.5239C5.41699 10.6786 5.47845 10.827 5.58785 10.9364C5.69724 11.0458 5.84562 11.1073 6.00033 11.1073ZM8.91699 11.1073C9.03236 11.1073 9.14515 11.0731 9.24108 11.009C9.337 10.9449 9.41177 10.8538 9.45592 10.7472C9.50007 10.6406 9.51163 10.5233 9.48912 10.4101C9.46661 10.297 9.41105 10.193 9.32947 10.1115C9.24789 10.0299 9.14395 9.97432 9.0308 9.95181C8.91764 9.9293 8.80035 9.94086 8.69376 9.98501C8.58717 10.0292 8.49607 10.1039 8.43197 10.1999C8.36787 10.2958 8.33366 10.4086 8.33366 10.5239C8.33366 10.6786 8.39512 10.827 8.50451 10.9364C8.61391 11.0458 8.76228 11.1073 8.91699 11.1073ZM8.91699 8.77394C9.03236 8.77394 9.14515 8.73972 9.24108 8.67563C9.337 8.61153 9.41177 8.52042 9.45592 8.41383C9.50007 8.30724 9.51163 8.18996 9.48912 8.0768C9.46661 7.96364 9.41105 7.8597 9.32947 7.77812C9.24789 7.69654 9.14395 7.64099 9.0308 7.61848C8.91764 7.59597 8.80035 7.60752 8.69376 7.65167C8.58717 7.69582 8.49607 7.77059 8.43197 7.86652C8.36787 7.96245 8.33366 8.07523 8.33366 8.1906C8.33366 8.34531 8.39512 8.49368 8.50451 8.60308C8.61391 8.71248 8.76228 8.77394 8.91699 8.77394ZM6.00033 8.77394C6.1157 8.77394 6.22848 8.73972 6.32441 8.67563C6.42034 8.61153 6.4951 8.52042 6.53926 8.41383C6.58341 8.30724 6.59496 8.18996 6.57245 8.0768C6.54994 7.96364 6.49439 7.8597 6.4128 7.77812C6.33122 7.69654 6.22728 7.64099 6.11413 7.61848C6.00097 7.59597 5.88368 7.60752 5.77709 7.65167C5.6705 7.69582 5.5794 7.77059 5.5153 7.86652C5.4512 7.96245 5.41699 8.07523 5.41699 8.1906C5.41699 8.34531 5.47845 8.49368 5.58785 8.60308C5.69724 8.71248 5.84562 8.77394 6.00033 8.77394ZM10.0837 1.77394H9.50033V1.1906C9.50033 1.03589 9.43887 0.88752 9.32947 0.778124C9.22008 0.668727 9.0717 0.607269 8.91699 0.607269C8.76228 0.607269 8.61391 0.668727 8.50451 0.778124C8.39512 0.88752 8.33366 1.03589 8.33366 1.1906V1.77394H3.66699V1.1906C3.66699 1.03589 3.60553 0.88752 3.49614 0.778124C3.38674 0.668727 3.23837 0.607269 3.08366 0.607269C2.92895 0.607269 2.78058 0.668727 2.67118 0.778124C2.56178 0.88752 2.50033 1.03589 2.50033 1.1906V1.77394H1.91699C1.45286 1.77394 1.00774 1.95831 0.679555 2.2865C0.351367 2.61469 0.166992 3.05981 0.166992 3.52394V11.6906C0.166992 12.1547 0.351367 12.5999 0.679555 12.928C1.00774 13.2562 1.45286 13.4406 1.91699 13.4406H10.0837C10.5478 13.4406 10.9929 13.2562 11.3211 12.928C11.6493 12.5999 11.8337 12.1547 11.8337 11.6906V3.52394C11.8337 3.05981 11.6493 2.61469 11.3211 2.2865C10.9929 1.95831 10.5478 1.77394 10.0837 1.77394ZM10.667 11.6906C10.667 11.8453 10.6055 11.9937 10.4961 12.1031C10.3867 12.2125 10.2384 12.2739 10.0837 12.2739H1.91699C1.76228 12.2739 1.61391 12.2125 1.50451 12.1031C1.39512 11.9937 1.33366 11.8453 1.33366 11.6906V6.4406H10.667V11.6906ZM10.667 5.27394H1.33366V3.52394C1.33366 3.36923 1.39512 3.22085 1.50451 3.11146C1.61391 3.00206 1.76228 2.9406 1.91699 2.9406H2.50033V3.52394C2.50033 3.67865 2.56178 3.82702 2.67118 3.93641C2.78058 4.04581 2.92895 4.10727 3.08366 4.10727C3.23837 4.10727 3.38674 4.04581 3.49614 3.93641C3.60553 3.82702 3.66699 3.67865 3.66699 3.52394V2.9406H8.33366V3.52394C8.33366 3.67865 8.39512 3.82702 8.50451 3.93641C8.61391 4.04581 8.76228 4.10727 8.91699 4.10727C9.0717 4.10727 9.22008 4.04581 9.32947 3.93641C9.43887 3.82702 9.50033 3.67865 9.50033 3.52394V2.9406H10.0837C10.2384 2.9406 10.3867 3.00206 10.4961 3.11146C10.6055 3.22085 10.667 3.36923 10.667 3.52394V5.27394ZM3.08366 8.77394C3.19903 8.77394 3.31181 8.73972 3.40774 8.67563C3.50367 8.61153 3.57844 8.52042 3.62259 8.41383C3.66674 8.30724 3.67829 8.18996 3.65578 8.0768C3.63328 7.96364 3.57772 7.8597 3.49614 7.77812C3.41456 7.69654 3.31062 7.64099 3.19746 7.61848C3.08431 7.59597 2.96702 7.60752 2.86043 7.65167C2.75384 7.69582 2.66273 7.77059 2.59864 7.86652C2.53454 7.96245 2.50033 8.07523 2.50033 8.1906C2.50033 8.34531 2.56178 8.49368 2.67118 8.60308C2.78058 8.71248 2.92895 8.77394 3.08366 8.77394ZM3.08366 11.1073C3.19903 11.1073 3.31181 11.0731 3.40774 11.009C3.50367 10.9449 3.57844 10.8538 3.62259 10.7472C3.66674 10.6406 3.67829 10.5233 3.65578 10.4101C3.63328 10.297 3.57772 10.193 3.49614 10.1115C3.41456 10.0299 3.31062 9.97432 3.19746 9.95181C3.08431 9.9293 2.96702 9.94086 2.86043 9.98501C2.75384 10.0292 2.66273 10.1039 2.59864 10.1999C2.53454 10.2958 2.50033 10.4086 2.50033 10.5239C2.50033 10.6786 2.56178 10.827 2.67118 10.9364C2.78058 11.0458 2.92895 11.1073 3.08366 11.1073Z" fill="#8D8D8C"/>
</svg>
