<svg width="872" height="872" viewBox="0 0 872 872" fill="none" xmlns="http://www.w3.org/2000/svg">
<path opacity="0.5" d="M422.232 137.996C432.734 137.505 443.16 137.272 453.499 137.289C463.755 138.466 474.07 139.901 484.429 141.601C494.784 143.3 505.012 145.236 515.102 147.398C524.909 150.686 534.719 154.24 544.517 158.064C554.301 161.883 563.911 165.906 573.339 170.123C582.24 175.374 591.089 180.886 599.871 186.659C608.658 192.435 617.231 198.376 625.586 204.468C633.19 211.447 640.689 218.668 648.069 226.131C655.454 233.598 662.597 241.183 669.495 248.87C675.491 257.288 681.333 265.922 687.007 274.767C692.679 283.609 698.09 292.515 703.24 301.47C707.353 310.948 711.271 320.606 714.982 330.435C718.694 340.268 722.136 350.11 725.314 359.945C727.365 370.065 729.188 380.321 730.773 390.7C732.358 401.083 733.679 411.418 734.741 421.692C734.644 432.026 734.295 442.444 733.686 452.935C733.078 463.426 732.22 473.815 731.123 484.09C728.88 494.172 726.373 504.286 723.598 514.416C720.824 524.547 717.826 534.526 714.618 544.344C710.326 553.744 705.77 563.119 700.948 572.454C696.123 581.794 691.113 590.938 685.929 599.882C679.781 608.178 673.379 616.395 666.726 624.518C660.08 632.632 653.293 640.518 646.38 648.172C638.626 655.023 630.64 661.744 622.426 668.32C614.21 674.898 605.902 681.222 597.518 687.291C588.537 692.362 579.359 697.259 569.988 701.968C560.604 706.683 551.184 711.133 541.741 715.318C531.884 718.418 521.867 721.306 511.702 723.969C501.546 726.63 491.41 729.023 481.307 731.153C471.016 732.137 460.614 732.879 450.114 733.371C439.627 733.862 429.216 734.095 418.892 734.078C408.62 732.9 398.29 731.464 387.915 729.761C377.537 728.058 367.285 726.117 357.172 723.949C347.389 720.668 337.603 717.121 327.828 713.306C318.038 709.486 308.422 705.459 298.988 701.24C290.093 695.992 281.251 690.484 272.476 684.715C263.705 678.95 255.146 673.019 246.805 666.939C239.185 659.947 231.671 652.711 224.276 645.234C216.887 637.762 209.74 630.173 202.838 622.481C196.847 614.069 191.009 605.44 185.338 596.6C179.665 587.758 174.254 578.85 169.103 569.894C164.99 560.417 161.073 550.761 157.363 540.933C153.654 531.109 150.215 521.276 147.04 511.45C144.986 501.319 143.161 491.053 141.574 480.663C139.988 470.275 138.667 459.935 137.604 449.656C137.702 439.328 138.051 428.915 138.659 418.431C139.267 407.945 140.124 397.561 141.221 387.291C143.465 377.204 145.972 367.087 148.748 356.952C151.524 346.818 154.523 336.835 157.732 327.014C162.023 317.617 166.577 308.246 171.398 298.913C176.216 289.585 181.221 280.45 186.399 271.517C192.553 263.212 198.96 254.987 205.62 246.855C212.288 238.714 219.098 230.802 226.036 223.124C233.767 216.295 241.729 209.596 249.918 203.04C258.103 196.487 266.379 190.186 274.731 184.138C283.742 179.047 292.953 174.132 302.357 169.407C311.747 164.688 321.173 160.236 330.622 156.048C340.474 152.95 350.485 150.064 360.645 147.402C370.814 144.738 380.963 142.342 391.078 140.21C401.356 139.229 411.745 138.488 422.232 137.996ZM484.591 140.614C477.174 139.397 469.78 138.315 462.413 137.367C469.991 137.486 477.519 137.74 484.992 138.126C492.197 140.148 499.411 142.314 506.63 144.622C499.351 143.168 492.003 141.83 484.591 140.614ZM480.616 136.914C471.67 136.516 462.647 136.306 453.557 136.289C444.515 135.253 435.518 134.417 426.575 133.778C435.725 132.39 444.832 131.217 453.886 130.255C462.771 132.258 471.685 134.477 480.616 136.914ZM515.367 146.432C506.748 143.542 498.13 140.858 489.526 138.376C498.77 138.92 507.928 139.667 516.991 140.608C525.264 144.414 533.521 148.437 541.748 152.677C533.066 150.424 524.27 148.34 515.367 146.432ZM514.163 139.316C504.595 138.369 494.921 137.638 485.155 137.133C475.742 134.492 466.345 132.093 456.978 129.934C466.961 128.925 476.878 128.172 486.713 127.671C495.872 131.289 505.027 135.17 514.163 139.316ZM546.142 153.835C537.485 149.295 528.794 144.996 520.082 140.938C530.062 142.026 539.924 143.353 549.654 144.908C557.861 150.351 566.009 156.052 574.083 162.007C564.914 159.089 555.597 156.361 546.142 153.835ZM547.639 143.578C537.644 142.018 527.512 140.699 517.258 139.631C507.897 135.328 498.514 131.302 489.126 127.553C499.77 127.054 510.319 126.85 520.752 126.935C529.769 132.177 538.737 137.726 547.639 143.578ZM577.046 162.959C568.784 156.803 560.442 150.914 552.038 145.294C562.55 147.019 572.906 149.012 583.091 151.263C590.82 158.265 598.438 165.557 605.928 173.131C596.48 169.529 586.849 166.134 577.046 162.959ZM581.592 149.911C571.24 147.656 560.712 145.668 550.026 143.955C541.005 137.977 531.913 132.309 522.771 126.955C534.03 127.086 545.153 127.553 556.117 128.347C564.722 135.19 573.221 142.381 581.592 149.911ZM608.185 173.996C600.604 166.274 592.89 158.84 585.06 151.702C596.047 154.171 606.832 156.941 617.393 159.998C624.386 168.48 631.205 177.281 637.827 186.386C628.169 182.028 618.283 177.894 608.185 173.996ZM616.262 158.632C605.582 155.572 594.676 152.805 583.565 150.344C575.129 142.708 566.561 135.417 557.886 128.479C569.749 129.378 581.423 130.661 592.88 132.318C600.861 140.701 608.664 149.479 616.262 158.632ZM639.667 187.22C633.003 177.998 626.139 169.084 619.095 160.494C630.513 163.841 641.667 167.524 652.531 171.527C658.594 181.387 664.401 191.595 669.931 202.128C660.119 196.913 650.025 191.938 639.667 187.22ZM651.681 170.149C640.726 166.144 629.479 162.463 617.967 159.124C610.338 149.882 602.501 141.018 594.482 132.552C606.912 134.39 619.083 136.669 630.957 139.374C638.148 149.201 645.065 159.469 651.681 170.149ZM671.496 202.963C665.955 192.337 660.132 182.038 654.049 172.089C665.823 176.471 677.253 181.23 688.303 186.344C693.294 197.45 697.925 208.932 702.176 220.754C692.295 214.56 682.061 208.623 671.496 202.963ZM687.675 184.953C676.553 179.839 665.05 175.083 653.201 170.708C646.578 159.954 639.65 149.613 632.444 139.716C645.343 142.7 657.887 146.189 670.027 150.165C676.317 161.284 682.209 172.895 687.675 184.953ZM703.547 221.617C699.304 209.721 694.677 198.166 689.687 186.987C701.684 192.588 713.23 198.609 724.279 205.022C728.12 217.206 731.469 229.789 734.309 242.72C724.492 235.404 714.228 228.36 703.547 221.617ZM723.83 203.607C712.721 197.198 701.117 191.184 689.062 185.593C683.606 173.477 677.722 161.808 671.437 150.629C674.563 151.665 677.661 152.734 680.732 153.834C690.603 157.372 700.186 161.241 709.452 165.432C713.539 174.743 717.301 184.368 720.729 194.277C721.795 197.36 722.829 200.47 723.83 203.607ZM735.532 243.635C732.714 230.649 729.385 218.011 725.562 205.77C728.404 207.433 731.213 209.123 733.988 210.838C742.907 216.351 751.476 222.127 759.668 228.153C761.73 238.111 763.409 248.308 764.701 258.715C765.103 261.951 765.468 265.208 765.795 268.483C756.262 259.905 746.161 251.61 735.532 243.635ZM765.694 258.591C764.445 248.54 762.837 238.681 760.871 229.042C772.443 237.627 783.255 246.71 793.233 256.248C794.932 269.945 795.769 284.041 795.752 298.449C789.19 291.12 782.239 283.945 774.918 276.945C772.292 274.434 769.618 271.945 766.898 269.48C766.543 265.826 766.141 262.196 765.694 258.591ZM796.749 299.567C796.809 285.159 796.02 271.056 794.374 257.343C804.983 267.585 814.635 278.345 823.241 289.567C824.197 303.676 824.063 318.13 822.869 332.827C815.043 321.447 806.316 310.341 796.749 299.567ZM823.763 334.134C825.01 319.49 825.211 305.081 824.337 291.004C833.271 302.817 841.051 315.136 847.574 327.897C848.147 342.218 847.407 356.769 845.413 371.446C839.273 358.747 832.031 346.287 823.763 334.134ZM846.195 373.078C848.248 358.581 849.086 344.198 848.651 330.031C855.133 343.04 860.313 356.503 864.084 370.35C864.617 384.691 863.69 399.084 861.386 413.435C857.573 399.782 852.482 386.304 846.195 373.078ZM862.018 415.744C864.348 402.058 865.432 388.325 865.201 374.628C868.509 387.866 870.533 401.447 871.183 415.312C871.832 429.179 871.085 442.892 869.028 456.383C867.979 442.724 865.616 429.153 862.018 415.744ZM861.604 418.102C865.239 432.174 867.507 446.418 868.316 460.746C865.856 474.884 861.957 488.769 856.719 502.326C855.828 488.181 853.65 473.94 850.251 459.699C855.274 445.945 859.084 432.05 861.604 418.102ZM856.858 504.716C861.981 491.814 865.898 478.607 868.519 465.162C869.002 478.798 868.159 492.502 865.911 506.198C863.664 519.895 860.083 533.15 855.267 545.916C857.08 532.341 857.589 518.577 856.858 504.716ZM849.625 461.398C852.982 475.823 855.078 490.24 855.847 504.55C850.545 517.865 843.951 530.856 836.16 543.452C835.715 529.356 834.168 515.029 831.558 500.566C838.654 487.695 844.699 474.613 849.625 461.398ZM836.211 545.262C843.983 532.853 850.598 520.055 855.963 506.937C856.593 521.454 855.85 535.855 853.664 550.036C848.318 563.354 841.618 576.126 833.676 588.298C835.745 574.278 836.575 559.897 836.211 545.262ZM830.79 501.951C833.352 516.472 834.837 530.849 835.204 544.986C827.683 556.964 819.079 568.579 809.473 579.768C809.83 565.962 809.298 551.847 807.891 537.508C816.41 525.887 824.061 514.013 830.79 501.951ZM809.428 581.351C819.045 570.236 827.678 558.696 835.245 546.793C835.53 561.599 834.583 576.136 832.361 590.292C824.406 602.215 815.253 613.554 805.012 624.256C807.508 610.376 808.974 596.04 809.428 581.351ZM807.003 538.714C808.367 553.058 808.85 567.169 808.44 580.966C799.396 591.393 789.481 601.448 778.762 611.076C779.818 601.296 780.498 591.33 780.802 581.206C780.911 577.575 780.971 573.924 780.983 570.253C783.462 567.544 785.891 564.815 788.272 562.069C794.906 554.416 801.155 546.624 807.003 538.714ZM778.598 612.565C789.346 602.969 799.299 592.945 808.389 582.546C807.876 597.282 806.339 611.654 803.758 625.558C793.912 635.709 783.081 645.281 771.359 654.229C774.579 640.799 776.993 626.883 778.598 612.565ZM779.802 581.176C779.488 591.657 778.769 601.966 777.647 612.074C770.054 618.838 762.063 625.391 753.697 631.713C751.094 633.68 748.456 635.625 745.781 637.547C748.444 625.002 750.577 612.108 752.169 598.917C762.007 589.983 771.288 580.78 779.978 571.348C779.958 574.64 779.9 577.916 779.802 581.176ZM745.47 639C748.457 636.865 751.401 634.702 754.3 632.511C762.38 626.404 770.114 620.082 777.479 613.56C775.83 627.873 773.37 641.776 770.1 655.185C759.086 663.505 747.297 671.278 734.81 678.468C737.876 669.122 740.613 659.517 743.015 649.678C743.876 646.148 744.695 642.589 745.47 639ZM751.037 599.942C749.417 613.081 747.259 625.921 744.574 638.411C734.172 645.829 723.24 652.902 711.819 659.6C715.743 648.003 719.27 636.067 722.382 623.826C732.386 616.114 741.946 608.143 751.037 599.942ZM711.327 661.046C722.807 654.353 733.798 647.281 744.259 639.862C743.556 643.079 742.817 646.272 742.043 649.441C739.557 659.627 736.711 669.56 733.512 679.212C724.678 684.25 715.499 688.999 706.001 693.444C703.047 694.826 700.062 696.179 697.048 697.503C702.26 685.786 707.027 673.618 711.327 661.046ZM721.098 624.813C717.971 636.981 714.433 648.845 710.502 660.369C699.977 666.494 689.041 672.301 677.726 677.765C682.853 667.291 687.689 656.493 692.212 645.395C702.203 638.773 711.838 631.904 721.098 624.813ZM677.012 679.218C688.4 673.755 699.409 667.945 710.007 661.813C705.691 674.328 700.91 686.439 695.687 698.097C683.971 703.19 671.807 707.837 659.243 712.013C665.491 701.486 671.422 690.544 677.012 679.218ZM690.732 646.374C686.211 657.377 681.383 668.083 676.268 678.466C665.827 683.466 655.068 688.174 644.014 692.573C650.224 683.362 656.226 673.846 661.999 664.041C671.868 658.377 681.452 652.481 690.732 646.374ZM643.02 694.042C654.167 689.642 665.019 684.927 675.55 679.917C669.962 691.168 664.034 702.038 657.794 712.492C646.226 716.295 634.323 719.701 622.121 722.692C629.313 713.514 636.288 703.957 643.02 694.042ZM660.245 665.043C654.502 674.728 648.536 684.127 642.366 693.225C632.136 697.256 621.658 701.022 610.949 704.508C618.077 696.67 625.063 688.547 631.889 680.15C641.579 675.326 651.035 670.285 660.245 665.043ZM629.723 681.222C622.974 689.463 616.07 697.435 609.029 705.129C599.1 708.321 588.976 711.273 578.673 713.973C586.515 707.592 594.27 700.949 601.921 694.048C611.383 689.97 620.654 685.691 629.723 681.222ZM599.06 695.272C591.578 701.956 583.998 708.393 576.335 714.58C566.791 717.039 557.095 719.281 547.259 721.298C555.553 716.443 563.804 711.351 571.999 706.023C581.179 702.622 590.202 699.035 599.06 695.272ZM567.732 707.586C559.937 712.576 552.093 717.353 544.212 721.915C535.285 723.698 526.244 725.295 517.099 726.7C525.441 723.422 533.777 719.941 542.095 716.255C550.765 713.527 559.313 710.635 567.732 707.586ZM533.566 718.873C526.588 721.85 519.6 724.683 512.609 727.374C505.197 728.457 497.717 729.415 490.175 730.242C497.422 728.61 504.684 726.842 511.956 724.937C519.237 723.029 526.441 721.007 533.566 718.873ZM454.832 737.164C463.675 735.692 472.554 734.019 481.458 732.143C490.516 731.276 499.488 730.223 508.366 728.989C499.7 732.251 491.03 735.295 482.369 738.12C473.259 738.009 464.077 737.692 454.832 737.164ZM450.16 734.37C457.683 734.017 465.154 733.537 472.571 732.931C465.125 734.392 457.699 735.711 450.3 736.889C442.823 736.408 435.307 735.79 427.756 735.031C435.183 734.941 442.653 734.721 450.16 734.37ZM418.834 735.078C427.875 736.113 436.872 736.948 445.814 737.587C436.651 738.978 427.53 740.153 418.463 741.117C409.571 739.112 400.651 736.892 391.714 734.452C400.68 734.852 409.723 735.062 418.834 735.078ZM387.175 734.234C396.594 736.877 405.997 739.277 415.37 741.437C405.385 742.447 395.466 743.2 385.627 743.701C376.464 740.081 367.304 736.197 358.164 732.049C367.733 732.997 377.407 733.728 387.175 734.234ZM387.875 744.584C397.973 744.031 408.155 743.215 418.404 742.128C428.458 744.392 438.477 746.38 448.443 748.096C438.136 750.796 427.862 753.188 417.641 755.275C407.729 752.021 397.801 748.457 387.875 744.584ZM355.069 731.734C364.434 736.04 373.822 740.068 383.215 743.819C372.576 744.317 362.033 744.521 351.605 744.437C342.586 739.193 333.616 733.643 324.712 727.79C334.699 729.349 344.823 730.666 355.069 731.734ZM353.352 745.448C363.945 745.501 374.655 745.257 385.462 744.711C395.531 748.684 405.604 752.338 415.662 755.675C404.624 757.888 393.647 759.743 382.758 761.246C372.918 756.341 363.108 751.074 353.352 745.448ZM322.325 727.413C331.348 733.393 340.442 739.062 349.587 744.417C338.326 744.286 327.2 743.819 316.233 743.024C307.626 736.18 299.125 728.988 290.752 721.456C301.106 723.711 311.637 725.7 322.325 727.413ZM317.622 744.126C328.707 744.898 339.951 745.338 351.332 745.435C361.173 751.15 371.071 756.502 381.001 761.485C369.209 763.072 357.521 764.245 345.969 765.007C336.418 758.465 326.959 751.5 317.622 744.126ZM288.779 721.023C297.217 728.66 305.786 735.954 314.464 742.893C302.601 741.994 290.926 740.711 279.468 739.054C271.486 730.669 263.682 721.889 256.082 712.734C266.762 715.795 277.668 718.562 288.779 721.023ZM280.586 740.224C292.133 741.864 303.898 743.126 315.852 743.999C325.238 751.454 334.748 758.495 344.354 765.111C331.814 765.897 319.436 766.199 307.259 766.021C298.181 757.904 289.279 749.297 280.586 740.224ZM254.376 712.243C262.007 721.486 269.846 730.352 277.867 738.82C265.439 736.982 253.269 734.703 241.397 731.999C234.205 722.171 227.287 711.902 220.67 701.22C231.622 705.224 242.867 708.904 254.376 712.243ZM242.301 733.229C254.244 735.918 266.484 738.178 278.983 739.994C287.699 749.137 296.627 757.813 305.734 765.996C292.497 765.76 279.501 764.955 266.8 763.591C258.334 754.021 250.156 743.888 242.301 733.229ZM219.149 700.661C225.774 711.417 232.704 721.759 239.91 731.657C227.01 728.673 214.464 725.184 202.321 721.207C196.031 710.087 190.138 698.474 184.671 686.414C195.795 691.529 207.299 696.285 219.149 700.661ZM203.055 722.498C215.254 726.458 227.856 729.928 240.811 732.891C248.668 743.608 256.851 753.801 265.324 763.429C262.049 763.066 258.793 762.665 255.558 762.226C245.169 760.818 234.992 759.026 225.059 756.854C219.124 748.594 213.441 739.96 208.027 730.977C206.343 728.184 204.686 725.358 203.055 722.498ZM183.284 685.774C188.741 697.891 194.626 709.563 200.911 720.743C197.785 719.707 194.686 718.638 191.615 717.537C181.744 713.999 172.162 710.13 162.896 705.94C158.808 696.627 155.046 687.002 151.618 677.091C150.551 674.008 149.517 670.897 148.516 667.76C159.625 674.169 171.229 680.183 183.284 685.774ZM163.5 707.308C172.475 711.335 181.743 715.061 191.278 718.479C194.698 719.705 198.154 720.891 201.642 722.037C203.452 725.23 205.295 728.382 207.17 731.493C212.4 740.17 217.881 748.523 223.598 756.531C209.534 753.396 195.963 749.495 182.968 744.841C175.844 733.017 169.345 720.479 163.5 707.308ZM150.673 677.418C153.984 686.991 157.607 696.3 161.534 705.32C148.43 699.329 135.966 692.692 124.222 685.437C119.713 672.391 115.963 658.776 112.984 644.678C120.926 650.483 129.216 656.055 137.832 661.38C140.923 663.29 144.056 665.169 147.23 667.015C148.337 670.516 149.485 673.984 150.673 677.418ZM111.776 643.792C114.713 657.899 118.417 671.531 122.879 684.603C110.372 676.79 98.6932 668.272 87.9413 659.084C84.0724 645.481 81.1984 631.314 79.3108 616.688C89.3321 626.193 100.178 635.242 111.776 643.792ZM78.1646 615.596C79.9893 630.18 82.7883 644.318 86.5711 657.906C75.3759 648.208 65.205 637.776 56.1715 626.65C52.6338 612.761 50.3319 598.373 49.2312 583.602C57.8768 594.746 67.5506 605.428 78.1646 615.596ZM48.1261 582.168C49.1322 596.776 51.3037 611.02 54.6749 624.788C45.6291 613.409 37.7631 601.318 31.1956 588.556C27.693 574.64 25.6074 560.369 24.8782 545.854C31.4458 558.415 39.2281 570.539 48.1261 582.168ZM23.7796 543.727C24.3464 557.598 26.1401 571.256 29.2141 584.604C23.2264 572.344 18.4228 559.482 14.9051 546.056C11.387 532.627 9.26681 519.061 8.47394 505.437C12.3398 518.578 17.4728 531.36 23.7796 543.727ZM23.694 541.334C17.213 528.327 12.0338 514.867 8.26341 501.022C7.73011 486.681 8.65677 472.288 10.9611 457.938C14.7739 471.588 19.8652 485.064 26.1508 498.288C24.0974 512.785 23.2596 527.168 23.694 541.334ZM10.3288 455.629C7.99947 469.315 6.91475 483.048 7.14664 496.745C3.83761 483.505 1.81237 469.922 1.16296 456.055C0.513643 442.19 1.26037 428.479 3.31693 414.99C4.3665 428.649 6.73025 442.22 10.3288 455.629ZM26.4107 496.496C20.1278 483.084 15.0793 469.418 11.3521 455.581C13.7696 441.455 17.5186 427.376 22.5207 413.435C25.8863 427.131 30.3785 440.824 35.9391 454.429C31.6745 468.493 28.4816 482.546 26.4107 496.496ZM22.0945 411.675C17.0722 425.429 13.2627 439.323 10.7425 453.27C7.10676 439.199 4.83865 424.955 4.02897 410.627C6.48889 396.488 10.3879 382.601 15.6257 369.043C16.5169 383.19 18.6951 397.432 22.0945 411.675ZM36.4024 452.915C30.8764 439.243 26.4351 425.488 23.1369 411.736C28.0026 398.456 34.0043 385.306 41.0738 372.364C43.5946 385.944 47.0501 399.64 51.4078 413.374C45.4917 426.512 40.476 439.717 36.4024 452.915ZM40.7887 370.806C33.6925 383.678 27.6474 396.761 22.7213 409.977C19.3636 395.55 17.2668 381.131 16.4982 366.819C21.8002 353.503 28.3949 340.511 36.1868 327.914C36.6309 342.012 38.178 356.341 40.7887 370.806ZM52.0255 412.01C47.7096 398.262 44.3022 384.559 41.8353 370.978C48.513 358.898 56.1211 347.002 64.6041 335.355C65.6045 345.14 67.011 355.028 68.8187 364.992C69.4675 368.569 70.168 372.155 70.9199 375.75C69.0589 378.916 67.2494 382.09 65.492 385.27C60.5941 394.136 56.1009 403.056 52.0255 412.01ZM64.4547 333.865C55.9364 345.486 48.285 357.36 41.5566 369.422C38.9937 354.898 37.5094 340.519 37.1428 326.38C44.6629 314.403 53.2671 302.788 62.8724 291.6C62.5148 305.408 63.0474 319.524 64.4547 333.865ZM69.8026 364.814C67.9312 354.498 66.491 344.266 65.4872 334.148C71.5081 325.952 77.9626 317.881 84.8311 309.957C86.9676 307.492 89.1441 305.042 91.3601 302.606C91.364 315.431 91.9581 328.488 93.1436 341.723C85.3789 352.507 78.2143 363.438 71.6754 374.47C71.0095 371.244 70.3852 368.025 69.8026 364.814ZM91.3623 301.12C88.8844 303.829 86.4552 306.557 84.0755 309.302C77.441 316.956 71.1908 324.748 65.3426 332.659C63.9788 318.314 63.4948 304.2 63.9054 290.402C72.9489 279.974 82.8642 269.92 93.5835 260.291C92.5274 270.072 91.8472 280.038 91.5436 290.162C91.4347 293.795 91.3742 297.448 91.3623 301.12ZM94.0382 340.485C92.89 327.295 92.3315 314.286 92.3612 301.51C100.993 292.092 110.215 282.9 119.994 273.974C118.567 286.134 117.6 298.544 117.1 311.166C108.919 320.789 101.225 330.574 94.0382 340.485ZM120.175 272.457C110.338 281.391 101.057 290.594 92.3673 300.026C92.3867 296.732 92.4453 293.453 92.5431 290.192C92.8575 279.71 93.5762 269.401 94.6984 259.294C102.292 252.529 110.283 245.976 118.649 239.654C121.251 237.687 123.89 235.743 126.564 233.821C123.901 246.368 121.767 259.264 120.175 272.457ZM118.151 309.933C118.68 297.38 119.674 285.038 121.123 272.947C130.144 264.768 139.634 256.815 149.565 249.118C146.728 260.43 144.243 271.999 142.125 283.796C133.731 292.35 125.734 301.072 118.151 309.933ZM149.962 247.547C139.958 255.259 130.398 263.231 121.307 271.432C122.927 258.291 125.085 245.449 127.771 232.957C138.173 225.539 149.105 218.465 160.526 211.767C156.602 223.366 153.075 235.305 149.962 247.547ZM143.37 282.531C145.505 270.827 148.001 259.35 150.846 248.128C160.019 241.067 169.564 234.224 179.462 227.624C175.302 237.926 171.41 248.484 167.801 259.277C159.325 266.869 151.178 274.628 143.37 282.531ZM180.129 225.98C170.14 232.602 160.505 239.47 151.247 246.56C154.374 234.39 157.912 222.524 161.844 210.998C172.368 204.873 183.304 199.066 194.618 193.603C189.49 204.079 184.654 214.88 180.129 225.98ZM169.308 257.932C172.913 247.263 176.795 236.827 180.939 226.643C190.107 220.573 199.573 214.711 209.323 209.075C203.979 218.226 198.834 227.625 193.902 237.261C185.428 243.994 177.226 250.89 169.308 257.932ZM210.345 207.333C200.475 212.997 190.891 218.893 181.61 225.001C186.132 213.995 190.96 203.287 196.077 192.902C206.518 187.901 217.279 183.192 228.334 178.794C222.122 188.007 216.119 197.525 210.345 207.333ZM195.798 235.761C200.687 226.295 205.784 217.06 211.072 208.068C220.121 202.881 229.411 197.888 238.93 193.104C232.583 200.978 226.378 209.091 220.327 217.434C211.919 223.39 203.74 229.504 195.798 235.761ZM222.871 215.642C228.802 207.546 234.879 199.671 241.09 192.024C249.911 187.637 258.925 183.429 268.124 179.412C261.016 185.89 253.999 192.591 247.087 199.511C238.821 204.742 230.747 210.123 222.871 215.642ZM250.936 197.095C257.527 190.589 264.211 184.281 270.976 178.176C279.337 174.576 287.847 171.133 296.5 167.858C289.011 172.805 281.571 177.951 274.191 183.294C266.284 187.762 258.531 192.366 250.936 197.095ZM281.988 178.96C288.205 174.589 294.462 170.358 300.751 166.266C307.789 163.66 314.918 161.164 322.136 158.782C315.378 161.89 308.633 165.133 301.908 168.513C295.168 171.9 288.528 175.384 281.988 178.96ZM360.391 146.435C353.116 148.341 345.917 150.362 338.797 152.493C345.779 149.515 352.771 146.681 359.766 143.989C367.182 142.905 374.665 141.948 382.21 141.12C374.951 142.755 367.676 144.526 360.391 146.435ZM390.927 139.22C381.866 140.087 372.891 141.14 364.009 142.374C372.678 139.111 381.349 136.068 390.013 133.242C399.125 133.354 408.31 133.672 417.557 134.2C408.713 135.672 399.833 137.344 390.927 139.22ZM386.904 133.212C377.776 136.238 368.64 139.505 359.511 143.016C349.825 144.433 340.253 146.066 330.807 147.906C339.52 142.921 348.277 138.198 357.062 133.738C366.91 133.317 376.862 133.139 386.904 133.212ZM422.042 133.47C412.281 132.843 402.586 132.45 392.971 132.286C402.522 129.224 412.062 126.428 421.576 123.893C431.288 125.528 441.051 127.422 450.851 129.579C441.301 130.64 431.694 131.936 422.042 133.47ZM419.193 123.497C409.437 126.135 399.653 129.049 389.86 132.24C379.548 132.116 369.329 132.255 359.218 132.649C368.734 127.866 378.283 123.392 387.844 119.227C398.219 120.349 408.675 121.771 419.193 123.497ZM453.944 129.243C443.892 126.979 433.875 124.992 423.911 123.276C434.215 120.577 444.487 118.185 454.706 116.099C464.616 119.352 474.542 122.915 484.466 126.788C474.37 127.34 464.191 128.157 453.944 129.243ZM452.787 115.473C442.413 117.624 431.986 120.089 421.528 122.871C410.849 121.078 400.231 119.597 389.696 118.424C400.035 113.964 410.388 109.866 420.728 106.131C431.377 108.884 442.071 111.997 452.787 115.473ZM486.879 126.661C476.812 122.689 466.74 119.035 456.684 115.699C467.728 113.486 478.709 111.629 489.603 110.126C499.442 115.031 509.251 120.298 519.006 125.923C508.407 125.87 497.692 126.114 486.879 126.661ZM488.014 109.338C477.01 110.887 465.919 112.795 454.766 115.066C443.948 111.52 433.15 108.342 422.397 105.532C433.603 101.527 444.793 97.9495 455.936 94.802C466.642 99.2168 477.345 104.064 488.014 109.338ZM521.026 125.937C511.186 120.222 501.289 114.87 491.36 109.887C503.149 108.3 514.835 107.128 526.385 106.367C535.935 112.909 545.392 119.872 554.728 127.246C543.646 126.473 532.404 126.034 521.026 125.937ZM525.048 105.455C513.414 106.251 501.645 107.463 489.772 109.094C479.039 103.751 468.269 98.8395 457.495 94.3646C469.596 90.9885 481.64 88.1201 493.587 85.7622C504.156 91.816 514.656 98.3854 525.048 105.455ZM556.498 127.372C547.113 119.918 537.604 112.878 528 106.263C540.54 105.477 552.917 105.176 565.093 105.353C574.17 113.47 583.071 122.075 591.763 131.147C580.216 129.508 568.451 128.246 556.498 127.372ZM563.954 104.338C551.712 104.19 539.268 104.524 526.664 105.347C516.235 98.2133 505.696 91.5823 495.084 85.4692C508.082 82.9484 520.962 81.0331 533.671 79.7271C543.943 87.3292 554.052 95.5427 563.954 104.338ZM593.366 131.378C584.651 122.235 575.724 113.561 566.619 105.378C579.858 105.615 592.855 106.42 605.559 107.785C614.023 117.354 622.2 127.486 630.054 138.144C618.109 135.454 605.867 133.194 593.366 131.378ZM604.573 106.675C591.817 105.338 578.769 104.564 565.481 104.359C555.565 95.5067 545.44 87.2363 535.148 79.5779C538.427 79.2529 541.694 78.9685 544.948 78.7248C555.405 77.9418 565.732 77.579 575.902 77.6385C583.424 84.4834 590.776 91.7465 597.939 99.4061C600.169 101.791 602.381 104.214 604.573 106.675ZM631.543 138.483C623.687 127.766 615.506 117.574 607.035 107.946C610.305 108.31 613.556 108.71 616.787 109.148C627.179 110.557 637.358 112.349 647.294 114.522C653.226 122.779 658.906 131.41 664.319 140.389C666.003 143.184 667.662 146.012 669.294 148.874C657.097 144.915 644.496 141.445 631.543 138.483ZM646.418 113.309C636.801 111.236 626.959 109.518 616.921 108.157C613.323 107.67 609.699 107.228 606.051 106.832C603.614 104.082 601.153 101.379 598.669 98.723C591.751 91.3245 584.654 84.2937 577.398 77.6503C591.805 77.7937 605.89 78.7875 619.568 80.6379C628.996 90.7242 637.961 101.639 646.418 113.309ZM665.175 139.873C659.947 131.2 654.469 122.85 648.754 114.845C662.818 117.981 676.389 121.882 689.384 126.536C696.506 138.358 703.003 150.894 708.848 164.064C699.872 160.037 690.604 156.31 681.07 152.893C677.649 151.667 674.195 150.481 670.707 149.335C668.895 146.14 667.051 142.985 665.175 139.873ZM688.564 125.183C675.544 120.576 661.955 116.721 647.882 113.628C639.459 101.932 630.529 90.9827 621.134 80.8538C635.737 82.9039 649.87 85.9352 663.429 89.9549C672.499 100.811 680.889 112.587 688.564 125.183ZM710.213 164.679C704.409 151.492 697.952 138.93 690.871 127.073C704.729 132.115 717.923 138.018 730.35 144.77C736.961 157.27 742.717 170.528 747.604 184.44C735.826 177.227 723.335 170.631 710.213 164.679ZM748.952 185.271C744.136 171.386 738.459 158.141 731.935 145.638C744.902 152.796 757.019 160.885 768.168 169.89C774.515 182.738 779.757 196.331 783.904 210.549C773.131 201.446 761.448 193.009 748.952 185.271ZM785.283 211.722C781.263 197.644 776.178 184.165 770.02 171.401C781.234 180.651 791.443 190.844 800.521 201.963C806.838 214.844 811.844 228.366 815.574 242.408C806.538 231.488 796.405 221.246 785.283 211.722ZM817.091 244.261C813.653 230.814 809.061 217.831 803.281 205.416C811.685 216.162 819.057 227.742 825.288 240.142C831.52 252.544 836.414 265.371 840.022 278.529C833.508 266.48 825.83 255.045 817.091 244.261ZM848.565 327.638C847.998 313.765 846.203 300.106 843.128 286.756C849.118 299.02 853.923 311.885 857.442 325.316C860.96 338.744 863.08 352.311 863.873 365.935C860.007 352.791 854.873 340.007 848.565 327.638ZM817.672 246.583C826.715 257.958 834.579 270.046 841.146 282.804C844.65 296.722 846.736 310.994 847.466 325.51C840.899 312.95 833.116 300.826 824.218 289.198C823.213 274.591 821.042 260.349 817.672 246.583ZM785.775 213.465C796.97 223.162 807.142 233.594 816.175 244.721C819.712 258.608 822.013 272.994 823.113 287.764C814.468 276.62 804.795 265.938 794.181 255.771C792.356 241.188 789.557 227.051 785.775 213.465ZM749.467 186.768C761.974 194.581 773.653 203.098 784.404 212.286C788.273 225.888 791.147 240.054 793.035 254.679C783.014 245.174 772.167 236.125 760.569 227.575C757.633 213.469 753.929 199.839 749.467 186.768ZM710.814 166.051C723.918 172.042 736.381 178.68 748.124 185.934C752.633 198.979 756.383 212.592 759.361 226.689C751.419 220.884 743.129 215.312 734.513 209.987C731.422 208.077 728.29 206.198 725.116 204.352C724.009 200.852 722.862 197.384 721.674 193.95C718.363 184.379 714.74 175.071 710.814 166.051ZM6.43262 365.164C8.68072 351.463 12.2626 338.206 17.0803 325.436C15.2658 339.017 14.7555 352.786 15.4873 366.653C10.3631 379.557 6.44671 392.765 3.82579 406.211C3.34157 392.572 4.18447 378.864 6.43262 365.164ZM36.1358 326.104C28.3631 338.513 21.7476 351.313 16.3824 364.432C15.7521 349.909 16.4958 335.502 18.6842 321.316C24.0303 307.999 30.7315 295.227 38.6736 283.055C36.6034 297.078 35.7722 311.464 36.1358 326.104ZM39.0354 280.688C31.3404 292.243 24.7635 304.347 19.404 316.954C21.7663 303.517 25.4399 290.29 30.4854 277.361C35.5329 264.428 41.7932 252.204 49.1607 240.715C44.5637 253.618 41.2025 266.976 39.0354 280.688ZM40.3726 278.702C42.7756 264.369 46.4976 250.436 51.586 237.019C59.5826 225.106 68.7906 214.009 79.0874 203.756C74.1493 217.038 70.3472 230.932 67.6599 245.323C57.4784 255.844 48.3476 266.986 40.3726 278.702ZM79.9331 201.516C70.0064 211.217 61.0587 221.687 53.1968 232.902C58.3014 220.249 64.6452 208.073 72.2689 196.476C79.8913 184.88 88.5513 174.23 98.1406 164.528C90.9643 176.191 84.9018 188.557 79.9331 201.516ZM68.9234 244.026C71.7234 229.485 75.6717 215.463 80.7892 202.078C91.0487 192.07 102.358 182.883 114.6 174.545C109.273 187.602 104.859 201.318 101.361 215.591C89.643 224.464 78.7992 233.956 68.9234 244.026ZM115.289 172.87C103.141 181.046 91.8916 190.048 81.654 199.851C86.9823 186.334 93.5172 173.481 101.281 161.417C111.583 151.421 122.901 142.477 135.11 134.585C127.518 146.551 120.91 159.352 115.289 172.87ZM102.626 214.639C106.191 200.332 110.683 186.595 116.097 173.532C127.839 165.649 140.423 158.538 153.749 152.223C147.807 164.69 142.553 177.799 138.007 191.47C125.498 198.622 113.679 206.356 102.626 214.639ZM154.434 150.796C141.128 157.038 128.548 164.068 116.795 171.865C122.557 158.222 129.335 145.327 137.123 133.298C149.239 125.642 162.211 119.007 175.918 113.396C167.992 125.061 160.823 137.561 154.434 150.796ZM139.308 190.729C143.897 177.073 149.194 163.985 155.18 151.55C167.683 145.702 180.83 140.55 194.539 136.113C189.597 144.617 184.923 153.443 180.528 162.567C178.952 165.84 177.411 169.152 175.907 172.5C172.541 173.968 169.211 175.472 165.919 177.012C156.746 181.306 147.868 185.882 139.308 190.729ZM195.294 134.82C181.572 139.215 168.402 144.323 155.869 150.127C162.331 136.873 169.581 124.369 177.593 112.717C190.717 107.447 204.505 103.108 218.853 99.7013C210.449 110.661 202.584 122.392 195.294 134.82ZM181.429 163.001C185.979 153.555 190.828 144.431 195.963 135.655C205.652 132.564 215.618 129.828 225.832 127.455C229.009 126.717 232.21 126.014 235.434 125.346C227.9 135.722 220.707 146.632 213.888 158.035C201.267 162.195 189.046 166.827 177.271 171.909C178.628 168.909 180.014 165.94 181.429 163.001ZM236.309 124.145C232.713 124.88 229.144 125.658 225.606 126.481C215.739 128.773 206.103 131.403 196.721 134.366C204.049 121.961 211.951 110.26 220.392 99.3399C233.838 96.2189 247.769 93.9127 262.101 92.4233C255.499 99.7138 249.093 107.375 242.898 115.385C240.674 118.26 238.478 121.181 236.309 124.145ZM215.339 157.559C222.162 146.215 229.356 135.364 236.888 125.047C249.408 122.501 262.273 120.485 275.431 119.012C267.132 128.009 259.055 137.479 251.234 147.394C238.958 150.37 226.98 153.764 215.339 157.559ZM276.469 117.891C263.259 119.337 250.341 121.327 237.766 123.85C239.718 121.196 241.692 118.578 243.689 115.997C250.102 107.704 256.742 99.7877 263.589 92.2717C273.71 91.2618 284.028 90.6576 294.514 90.4599C297.775 90.3984 301.051 90.3762 304.343 90.3934C294.816 98.9773 285.511 108.155 276.469 117.891ZM252.809 147.014C260.614 137.172 268.671 127.773 276.948 118.845C289.054 117.53 301.406 116.674 313.964 116.285C305.021 123.767 296.212 131.664 287.567 139.961C275.747 141.947 264.152 144.303 252.809 147.014ZM289.318 139.67C297.922 131.457 306.686 123.641 315.581 116.237C327.154 115.916 338.901 115.991 350.79 116.469C341.372 122.356 332.02 128.608 322.759 135.216C311.437 136.376 300.282 137.864 289.318 139.67ZM324.769 135.014C333.954 128.503 343.226 122.344 352.562 116.543C363.541 117.021 374.641 117.843 385.837 119.013C376.138 123.274 366.453 127.853 356.803 132.748C345.994 133.213 335.31 133.972 324.769 135.014ZM419.011 105.691C408.572 109.493 398.122 113.664 387.688 118.204C376.378 116.986 365.163 116.123 354.069 115.61C364.194 109.365 374.393 103.541 384.635 98.1474C396.017 100.238 407.486 102.753 419.011 105.691ZM383.043 97.8575C372.738 103.317 362.479 109.211 352.296 115.531C340.321 115.016 328.487 114.91 316.827 115.204C326.509 107.198 336.345 99.6784 346.299 92.6656C358.415 93.8966 370.676 95.627 383.043 97.8575ZM420.679 105.086C409.077 102.095 397.53 99.5312 386.068 97.3956C397.206 91.5759 408.394 86.2648 419.591 81.4739C431.182 85.196 442.811 89.4364 454.439 94.1874C443.221 97.3867 431.957 101.02 420.679 105.086ZM418.137 81.0097C406.891 85.8546 395.658 91.2223 384.475 97.1014C372.049 94.8274 359.727 93.0567 347.548 91.7887C358.399 84.1977 369.388 77.2082 380.469 70.8449C392.944 73.6114 405.517 77.0029 418.137 81.0097ZM455.998 93.7456C444.32 88.9397 432.639 84.6472 420.995 80.8759C433.184 75.7086 445.383 71.1579 457.542 67.2386C469.164 72.5363 480.753 78.4655 492.261 85.006C480.256 87.4065 468.155 90.3208 455.998 93.7456ZM456.19 66.6253C443.995 70.5917 431.762 75.1907 419.541 80.4077C406.884 76.3546 394.273 72.918 381.758 70.1079C384.619 68.4787 387.486 66.8913 390.358 65.346C399.592 60.3776 408.879 55.8454 418.194 51.7636C427.849 54.9571 437.519 58.6015 447.177 62.6852C450.183 63.9561 453.187 65.2696 456.19 66.6253ZM493.759 84.7089C482.226 78.1156 470.609 72.1344 458.956 66.7857C462.093 65.7869 465.227 64.8302 468.357 63.9159C478.424 60.9757 488.451 58.4733 498.411 56.4172C507.19 61.5477 515.89 67.1222 524.487 73.1238C527.16 74.9901 529.824 76.8977 532.476 78.846C519.722 80.1906 506.799 82.1463 493.759 84.7089ZM497.118 55.665C487.489 57.683 477.8 60.1159 468.077 62.956C464.59 63.9744 461.099 65.0453 457.604 66.1681C454.261 64.6478 450.914 63.1797 447.567 61.7641C438.238 57.8196 428.896 54.2834 419.565 51.166C432.786 45.4366 446.058 40.6154 459.307 36.7424C472.02 42.1213 484.647 48.445 497.118 55.665ZM525.06 72.3039C516.756 66.5068 508.354 61.1062 499.877 56.1177C514.002 53.2621 527.988 51.3058 541.753 50.2722C553.066 58.1745 564.099 66.9824 574.793 76.634C564.956 76.606 554.974 76.9713 544.873 77.7276C541.249 77.999 537.608 78.3208 533.954 78.6929C531.003 76.5126 528.037 74.3827 525.06 72.3039ZM540.455 49.3699C526.684 50.4573 512.701 52.4623 498.585 55.3607C486.136 48.1029 473.526 41.7338 460.826 36.3026C475.002 32.2354 489.148 29.2561 503.172 27.4136C515.87 33.6414 528.322 40.9854 540.455 49.3699ZM576.291 76.6413C565.626 66.9572 554.62 58.1085 543.33 50.1577C558.04 49.1274 572.494 49.1544 586.592 50.2676C597.715 58.9967 608.364 68.7657 618.485 79.4854C604.792 77.6867 590.699 76.7408 576.291 76.6413ZM585.166 49.1564C571.101 48.1246 556.69 48.1653 542.033 49.2492C529.973 40.8456 517.594 33.4654 504.964 27.1841C519.661 25.3534 534.219 24.7756 548.531 25.5073C561.22 32.1725 573.453 40.0899 585.166 49.1564ZM620.054 79.6955C610.008 68.9723 599.437 59.1829 588.393 50.4159C603.15 51.6809 617.511 54.1426 631.359 57.8343C642.381 66.9889 652.696 77.2725 662.266 88.5717C648.722 84.6382 634.617 81.6823 620.054 79.6955ZM629.513 56.317C615.785 52.7932 601.567 50.4634 586.972 49.2949C575.442 40.2669 563.404 32.3492 550.917 25.6415C565.423 26.5325 579.669 28.7773 593.545 32.4351C606.233 39.1445 618.236 47.1449 629.513 56.317ZM664.003 89.0825C654.606 77.8593 644.48 67.6158 633.664 58.4616C647.67 62.3497 661.14 67.5083 673.953 73.9723C684.963 83.1688 695.035 93.4844 704.154 104.794C691.458 98.4937 678.036 93.2595 664.003 89.0825ZM706.293 105.869C697.684 94.9852 688.208 84.994 677.879 76.0044C689.929 82.4037 701.375 89.9855 712.113 98.7799C722.847 107.572 732.532 117.296 741.178 127.846C730.328 119.488 718.663 112.166 706.293 105.869ZM743.944 131.294C752.811 142.588 760.526 154.783 767.099 167.753C755.991 158.95 743.95 151.039 731.092 144.035C724.23 131.096 716.451 118.964 707.769 107.755C720.657 114.468 732.757 122.311 743.944 131.294ZM747.363 134.098C757.825 142.866 767.45 152.667 776.128 163.507C784.808 174.348 792.266 185.886 798.534 198.015C789.655 187.578 779.763 177.985 768.968 169.25C762.805 156.802 755.606 145.048 747.363 134.098ZM665.161 90.4745C679.332 94.7795 692.867 100.172 705.644 106.662C714.528 117.914 722.484 130.125 729.499 143.175C717.069 136.511 703.887 130.687 690.056 125.715C682.455 113.131 674.146 101.351 665.161 90.4745ZM136.403 132.57C124.671 139.999 113.737 148.384 103.712 157.725C111.339 146.401 120.08 135.803 129.955 126.038C139.827 116.275 150.518 107.655 161.921 100.156C152.469 110.078 143.962 120.919 136.403 132.57ZM138.432 131.299C146.46 119.177 155.53 107.957 165.64 97.7657C177.792 90.1344 190.72 83.7411 204.298 78.5623C194.38 88.6919 185.252 99.8427 176.941 111.902C163.359 117.372 150.484 123.839 138.432 131.299ZM178.622 111.231C187.098 99.08 196.412 87.8715 206.535 77.7223C219.977 72.7532 234.044 68.9607 248.618 66.3225C238.437 76.0872 228.823 86.8264 219.82 98.4472C205.506 101.787 191.74 106.048 178.622 111.231ZM249.929 65.0735C235.507 67.6006 221.57 71.2484 208.231 76.0392C218.599 65.8562 229.8 56.7716 241.802 48.9076C255.275 43.969 269.25 40.4026 283.609 38.1596C271.805 46.0036 260.562 55.0098 249.929 65.0735ZM221.363 98.0913C230.441 86.467 240.135 75.7408 250.398 66.0065C264.331 63.5808 278.72 62.2033 293.463 61.8548C282.961 70.8292 272.826 80.6719 263.109 91.3151C248.772 92.7611 234.829 95.0202 221.363 98.0913ZM294.669 60.8291C279.974 61.1193 265.622 62.4253 251.713 64.767C262.526 54.6477 273.963 45.6236 285.971 37.8031C300.154 35.7367 314.703 34.9515 329.509 35.4009C317.523 42.8337 305.889 51.3371 294.669 60.8291ZM264.599 91.1679C274.348 80.5544 284.514 70.7497 295.044 61.8213C308.845 61.5643 322.952 62.2053 337.281 63.7286C329.305 69.4887 321.443 75.6522 313.715 82.2016C310.942 84.5518 308.187 86.9518 305.449 89.4006C301.779 89.3718 298.127 89.3916 294.495 89.46C284.367 89.6509 274.392 90.2204 264.599 91.1679ZM338.497 62.8541C324.173 61.2874 310.063 60.5978 296.252 60.8017C307.547 51.322 319.256 42.8479 331.315 35.4618C345.449 35.9859 359.81 37.6302 374.304 40.3546C362.169 46.948 350.211 54.4662 338.497 62.8541ZM314.362 82.9645C322.362 76.184 330.505 69.8194 338.768 63.8897C348.875 65.006 359.091 66.5601 369.386 68.5463C372.59 69.1644 375.801 69.8244 379.019 70.5261C367.913 76.943 356.9 83.987 346.029 91.633C332.808 90.3005 319.759 89.5614 306.935 89.4149C309.396 87.2249 311.872 85.0746 314.362 82.9645ZM389.884 64.4654C386.685 66.1866 383.492 67.96 380.308 69.7849C376.722 68.9931 373.144 68.2528 369.575 67.5644C359.631 65.6458 349.759 64.1293 339.985 63.02C351.725 54.6678 363.704 47.193 375.857 40.6506C389.41 43.2685 403.074 46.8281 416.772 51.2968C407.774 55.2725 398.803 59.6663 389.884 64.4654ZM418.144 50.6943C404.459 46.184 390.802 42.5763 377.252 39.9045C390.271 32.9796 403.487 27.1247 416.82 22.407C430.535 25.8581 444.24 30.4522 457.849 36.13C444.607 40.0564 431.347 44.9247 418.144 50.6943ZM459.368 35.6836C445.826 29.972 432.184 25.3275 418.526 21.8098C432.524 16.9623 446.646 13.3697 460.8 11.1096C474.595 14.9907 488.205 20.191 501.546 26.6231C487.571 28.5384 473.482 31.575 459.368 35.6836ZM458.497 10.4742C444.52 12.8391 430.582 16.4942 416.771 21.3641C402.567 17.8064 388.349 15.4699 374.213 14.4213C387.831 9.33388 401.762 5.58904 415.93 3.2865C430.248 4.25553 444.466 6.68203 458.497 10.4742ZM503.341 26.3832C490.188 19.9506 476.769 14.7095 463.161 10.7448C477.536 8.60079 491.938 7.83474 506.271 8.52785C520.074 12.4523 533.475 17.7813 546.41 24.407C532.25 23.8146 517.859 24.4918 503.341 26.3832ZM502.007 7.36345C488.314 6.97891 474.57 7.91044 460.859 10.0869C447.491 6.33926 433.947 3.82459 420.301 2.62307C433.811 0.717134 447.527 0.12318 461.384 0.926692C475.244 1.73044 488.804 3.90692 502.007 7.36345ZM370.443 5.18411C384.167 3.08858 397.883 2.39829 411.516 3.03419C398.039 5.50547 384.787 9.27517 371.825 14.2563C357.968 13.3704 344.195 13.7274 330.596 15.3904C343.419 10.7144 356.717 7.27983 370.443 5.18411ZM326.459 16.9482C340.667 14.9181 355.08 14.3348 369.594 15.1266C356.417 20.3455 343.545 26.8179 331.05 34.4518C316.417 33.9253 302.025 34.596 287.98 36.5094C300.239 28.7038 313.083 22.1456 326.459 16.9482ZM375.697 39.6021C361.262 36.8306 346.952 35.124 332.86 34.5229C345.542 26.872 358.606 20.4224 371.98 15.269C386.282 16.1967 400.677 18.4539 415.065 21.9718C401.796 26.7506 388.647 32.6497 375.697 39.6021ZM322.089 17.6192C309.425 22.8379 297.249 29.2794 285.61 36.8446C271.874 38.8588 258.479 42.0708 245.525 46.5238C257.094 39.2857 269.385 33.1626 282.372 28.2599C295.357 23.3582 308.626 19.8318 322.089 17.6192ZM237.667 50.4723C226.365 58.2095 215.794 67.0408 205.982 76.86C192.966 81.6854 180.531 87.6116 168.786 94.6598C178.596 85.1769 189.344 76.6343 201.025 69.1401C212.709 61.6448 224.956 55.4362 237.667 50.4723ZM548.802 24.5192C536.506 18.0749 523.781 12.7997 510.684 8.78758C524.296 9.73218 537.837 12.0031 551.224 15.6701C564.612 19.3374 577.422 24.2847 589.616 30.4096C576.302 27.1868 562.665 25.2408 548.802 24.5192ZM344.781 92.5138C334.79 99.5894 324.921 107.174 315.208 115.247C302.582 115.606 290.162 116.436 277.988 117.728C287.021 108.049 296.314 98.9298 305.828 90.4038C318.603 90.5161 331.605 91.2191 344.781 92.5138ZM597.808 33.6065C610.928 37.3607 623.702 42.3977 636.035 48.7685C648.371 55.1408 659.875 62.6451 670.531 71.174C658.177 65.2524 645.241 60.5129 631.829 56.9241C621.14 48.0622 609.788 40.2551 597.808 33.6065ZM323.125 136.184C333.498 135.126 344.012 134.344 354.65 133.846C345.648 138.458 336.677 143.346 327.754 148.508C317.655 150.529 307.701 152.786 297.905 155.271C306.222 148.612 314.635 142.247 323.125 136.184ZM325.065 150.073C316.762 154.934 308.503 160.032 300.3 165.367C291.137 168.761 282.131 172.342 273.289 176.099C280.775 169.412 288.357 162.973 296.022 156.784C305.555 154.328 315.241 152.088 325.065 150.073ZM328.112 149.457C337.056 147.67 346.113 146.07 355.276 144.662C346.929 147.941 338.59 151.424 330.268 155.111C321.575 157.846 313.006 160.746 304.566 163.803C312.37 158.807 320.222 154.024 328.112 149.457ZM321.117 136.392C312.513 142.578 303.988 149.073 295.563 155.87C285.081 158.574 274.782 161.539 264.682 164.752C272.315 156.47 280.108 148.514 288.037 140.896C298.882 139.08 309.917 137.575 321.117 136.392ZM242.616 190.153C249.368 181.91 256.274 173.935 263.317 166.238C273.249 163.045 283.377 160.092 293.685 157.391C285.84 163.774 278.082 170.419 270.429 177.323C260.963 181.401 251.688 185.682 242.616 190.153ZM286.289 141.192C278.297 148.912 270.446 156.975 262.759 165.367C251.927 168.856 241.327 172.63 230.98 176.675C237.691 166.849 244.641 157.379 251.805 148.284C263.057 145.564 274.561 143.196 286.289 141.192ZM229.982 178.141C240.211 174.11 250.689 170.345 261.397 166.859C254.266 174.7 247.278 182.825 240.45 191.226C230.762 196.049 221.307 201.089 212.099 206.33C217.843 196.643 223.811 187.241 229.982 178.141ZM250.233 148.667C243.038 157.848 236.062 167.407 229.328 177.324C218.179 181.724 207.326 186.44 196.794 191.451C202.384 180.197 208.313 169.325 214.555 158.868C226.124 155.065 238.029 151.659 250.233 148.667ZM213.106 159.347C206.856 169.876 200.923 180.821 195.333 192.149C183.945 197.613 172.936 203.423 162.339 209.554C166.656 197.036 171.437 184.923 176.661 173.263C188.378 168.169 200.542 163.523 213.106 159.347ZM175.301 173.857C170.088 185.576 165.319 197.747 161.018 210.321C149.538 217.015 138.547 224.087 128.085 231.506C128.789 228.289 129.528 225.096 130.302 221.926C132.788 211.738 135.635 201.802 138.835 192.148C147.668 187.11 156.847 182.363 166.343 177.918C169.299 176.535 172.285 175.181 175.301 173.857ZM129.33 221.689C128.468 225.219 127.65 228.779 126.875 232.368C123.888 234.503 120.944 236.666 118.046 238.856C109.965 244.963 102.232 251.286 94.8666 257.807C96.5153 243.492 98.9766 229.585 102.247 216.174C113.261 207.854 125.05 200.082 137.537 192.892C134.47 202.24 131.732 211.848 129.33 221.689ZM100.988 217.13C97.7669 230.563 95.3527 244.482 93.7473 258.803C82.9987 268.399 73.0457 278.422 63.9564 288.822C64.469 274.083 66.0066 259.709 68.5876 245.802C78.434 235.65 89.2656 226.078 100.988 217.13ZM67.3335 247.104C64.8369 260.987 63.3711 275.325 62.9173 290.017C53.3006 301.131 44.668 312.67 37.102 324.573C36.8175 309.762 37.765 295.22 39.9897 281.06C47.9435 269.14 57.0944 257.804 67.3335 247.104ZM422.089 134.475C429.567 134.957 437.084 135.576 444.635 136.335C437.193 136.425 429.709 136.645 422.185 136.997C414.677 137.349 407.218 137.829 399.814 138.433C407.262 136.972 414.689 135.653 422.089 134.475ZM247.716 200.296C254.033 196.3 260.463 192.392 267.001 188.576C261.055 193.008 255.151 197.57 249.293 202.259C243.432 206.952 237.687 211.717 232.059 216.552C237.213 211.006 242.434 205.587 247.716 200.296ZM243.888 202.738C237.611 209.115 231.422 215.674 225.332 222.413C218.502 228.446 211.853 234.58 205.386 240.806C210.476 233.079 215.697 225.526 221.04 218.155C228.478 212.889 236.096 207.746 243.888 202.738ZM218.507 219.958C212.906 227.764 207.441 235.77 202.124 243.969C195.126 250.804 188.348 257.745 181.791 264.781C185.907 255.635 190.212 246.674 194.694 237.909C202.407 231.785 210.348 225.797 218.507 219.958ZM180.523 267.619C186.703 260.922 193.085 254.309 199.665 247.791C194.836 255.357 190.131 263.084 185.562 270.967C180.146 278.276 174.927 285.646 169.905 293.068C173.281 284.438 176.824 275.953 180.523 267.619ZM192.806 239.414C188.238 248.43 183.857 257.65 179.676 267.062C172.688 274.639 165.956 282.322 159.486 290.095C162.3 279.824 165.364 269.736 168.666 259.845C176.439 252.889 184.489 246.073 192.806 239.414ZM158.853 292.426C165.127 284.83 171.651 277.32 178.42 269.909C174.559 278.722 170.873 287.702 167.372 296.84C161.949 304.979 156.762 313.178 151.813 321.422C153.939 311.61 156.289 301.941 158.853 292.426ZM167.164 261.194C163.841 271.251 160.764 281.511 157.944 291.956C151.055 300.304 144.466 308.755 138.185 317.288C139.493 306.107 141.119 295.095 143.055 284.276C150.76 276.434 158.8 268.733 167.164 261.194ZM137.955 319.293C144.112 310.873 150.569 302.533 157.319 294.291C154.723 304.069 152.353 314.007 150.218 324.093C144.959 332.954 139.974 341.866 135.264 350.813C135.88 340.174 136.78 329.661 137.955 319.293ZM141.815 285.543C139.888 296.481 138.277 307.614 136.991 318.917C130.278 328.107 123.92 337.392 117.926 346.747C117.58 334.858 117.636 323.115 118.086 311.55C125.59 302.736 133.505 294.057 141.815 285.543ZM117.98 348.52C123.887 339.246 130.151 330.039 136.766 320.925C135.606 331.46 134.728 342.143 134.142 352.953C129.138 362.551 124.451 372.188 120.081 381.841C119.034 370.626 118.336 359.511 117.98 348.52ZM117.039 312.785C116.615 324.437 116.59 336.267 116.971 348.243C110.538 358.356 104.53 368.55 98.9547 378.794C96.8626 366.407 95.2691 354.131 94.1731 342.005C101.296 332.13 108.925 322.377 117.039 312.785ZM99.2269 380.39C104.735 370.207 110.672 360.073 117.03 350.017C117.42 361.123 118.159 372.353 119.252 383.683C114.596 394.067 110.309 404.469 106.391 414.865C103.58 403.302 101.192 391.8 99.2269 380.39ZM93.2824 343.245C94.4148 355.433 96.0478 367.771 98.1827 380.218C92.1807 391.332 86.6892 402.504 81.7203 413.693C77.8554 401.032 74.6049 388.425 71.9781 375.924C78.463 364.917 85.5729 354.008 93.2824 343.245ZM82.1682 415.152C87.0827 404.01 92.5169 392.885 98.4591 381.814C100.468 393.305 102.904 404.886 105.768 416.527C101.579 427.755 97.8212 438.975 94.4982 450.154C89.8748 438.469 85.7624 426.788 82.1682 415.152ZM71.2268 377.204C73.8967 389.746 77.1919 402.392 81.1026 415.09C75.7491 427.253 71.0135 439.436 66.9111 451.588C65.5902 448.573 64.3115 445.557 63.0752 442.54C59.0991 432.837 55.5625 423.126 52.4766 413.436C56.6616 404.168 61.2966 394.932 66.3673 385.754C67.9451 382.898 69.5651 380.048 71.2268 377.204ZM67.5093 452.947C71.5642 440.831 76.251 428.681 81.5546 416.549C85.1974 428.239 89.3613 439.972 94.0392 451.707C90.4789 463.827 87.4299 475.896 84.8958 487.875C78.4811 476.29 72.679 464.631 67.5093 452.947ZM62.1499 442.919C63.527 446.28 64.9566 449.639 66.4382 452.997C65.2764 456.479 64.1668 459.958 63.1095 463.434C60.1614 473.125 57.6208 482.787 55.4957 492.393C48.4164 479.844 42.2348 467.15 36.9986 454.379C41.0188 441.175 45.9875 427.957 51.8637 414.801C54.8771 424.165 58.3093 433.547 62.1499 442.919ZM56.2334 493.694C58.4003 483.757 61.0141 473.758 64.0662 463.725C65.0154 460.605 66.007 457.481 67.0407 454.355C72.2611 466.071 78.1149 477.759 84.5821 489.37C81.8747 502.379 79.7756 515.28 78.2893 528.018C76.3692 525.342 74.4901 522.656 72.6523 519.96C66.7454 511.295 61.2668 502.531 56.2334 493.694ZM36.5419 455.893C41.8306 468.651 48.0578 481.329 55.1752 493.856C52.1203 507.936 49.96 521.895 48.7194 535.65C40.472 523.426 33.2682 510.896 27.183 498.13C29.1816 484.13 32.3179 470.021 36.5419 455.893ZM49.6071 536.959C50.7939 523.207 52.9056 509.246 55.9177 495.156C60.8125 503.691 66.1204 512.154 71.826 520.523C73.8729 523.526 75.9711 526.517 78.1197 529.494C77.7072 533.143 77.3451 536.778 77.0334 540.398C76.1649 550.488 75.6886 560.464 75.607 570.3C66.072 559.496 57.385 548.363 49.6071 536.959ZM26.9336 499.92C33.073 512.617 40.3138 525.076 48.5811 537.227C47.3338 551.873 47.1325 566.283 48.0077 580.361C39.0732 568.548 31.2934 556.229 24.7706 543.467C24.1986 529.147 24.9389 514.596 26.9336 499.92ZM77.972 614.024C67.3624 603.781 57.7098 593.021 49.103 581.799C48.1467 567.688 48.2807 553.233 49.4751 538.534C57.3017 549.915 66.0298 561.022 75.5976 571.797C75.5367 586.207 76.3256 600.31 77.972 614.024ZM79.1123 615.12C77.4142 601.421 76.5771 587.324 76.5943 572.915C83.1557 580.244 90.1061 587.417 97.4261 594.417C100.052 596.928 102.726 599.417 105.447 601.883C105.802 605.538 106.204 609.17 106.652 612.776C107.9 622.828 109.509 632.686 111.474 642.325C99.902 633.74 89.0906 624.657 79.1123 615.12ZM107.644 612.653C107.242 609.415 106.877 606.157 106.55 602.879C116.083 611.458 126.184 619.753 136.813 627.728C139.631 640.715 142.961 653.355 146.784 665.597C143.942 663.934 141.133 662.244 138.358 660.529C129.438 655.016 120.869 649.239 112.677 643.214C110.615 633.256 108.936 623.059 107.644 612.653ZM136.492 626.235C125.921 618.262 115.879 609.972 106.405 601.401C105.182 588.686 104.522 575.683 104.432 562.444C112.514 571.641 121.089 580.665 130.135 589.482C131.812 601.999 133.935 614.263 136.492 626.235ZM148.067 666.345C144.226 654.159 140.877 641.575 138.036 628.643C147.853 635.958 158.117 643.001 168.797 649.745C173.04 661.643 177.668 673.2 182.659 684.38C170.662 678.78 159.116 672.759 148.067 666.345ZM168.255 648.218C157.648 641.483 147.457 634.452 137.711 627.152C135.139 615.251 132.996 603.058 131.297 590.611C139.674 598.724 148.451 606.66 157.608 614.393C160.819 625.938 164.373 637.222 168.255 648.218ZM184.043 685.024C179.051 673.915 174.419 662.432 170.168 650.607C180.05 656.802 190.285 662.74 200.851 668.4C206.393 679.029 212.217 689.33 218.302 699.28C206.526 694.898 195.094 690.138 184.043 685.024ZM200.033 666.825C189.56 661.178 179.416 655.257 169.623 649.083C165.742 638.179 162.184 626.987 158.966 615.535C167.479 622.676 176.318 629.641 185.468 636.408C190.069 646.814 194.93 656.959 200.033 666.825ZM219.82 699.842C213.755 689.981 207.947 679.771 202.417 669.236C212.226 674.449 222.317 679.422 232.672 684.139C239.337 693.364 246.203 702.28 253.249 710.872C241.833 707.527 230.681 703.844 219.82 699.842ZM231.492 682.5C221.26 677.801 211.288 672.85 201.595 667.664C196.518 657.915 191.679 647.89 187.094 637.607C195.635 643.877 204.444 649.976 213.509 655.886C219.318 665.016 225.318 673.891 231.492 682.5ZM254.951 711.368C247.956 702.884 241.136 694.081 234.511 684.973C244.17 689.331 254.055 693.465 264.152 697.362C271.735 705.088 279.452 712.525 287.284 719.665C276.297 717.195 265.512 714.425 254.951 711.368ZM262.462 695.634C252.538 691.761 242.822 687.658 233.327 683.339C227.223 674.883 221.288 666.167 215.537 657.202C224.03 662.691 232.747 668.014 241.676 673.159C248.477 680.897 255.411 688.391 262.462 695.634ZM289.254 720.104C281.522 713.099 273.901 705.804 266.408 698.228C275.858 701.831 285.49 705.226 295.295 708.402C303.56 714.56 311.905 720.452 320.313 726.073C309.799 724.348 299.44 722.355 289.254 720.104ZM292.804 706.537C283.272 703.398 273.905 700.051 264.714 696.507C257.819 689.478 251.035 682.208 244.376 674.706C252.734 679.465 261.277 684.068 269.996 688.504C277.52 694.744 285.127 700.755 292.804 706.537ZM322.697 726.46C314.486 721.014 306.335 715.311 298.257 709.353C307.413 712.268 316.717 714.992 326.159 717.516C334.825 722.061 343.525 726.364 352.245 730.427C342.273 729.339 332.419 728.014 322.697 726.46ZM322.143 715.391C313.22 712.938 304.423 710.305 295.76 707.501C288.459 702.059 281.22 696.407 274.054 690.549C282.068 694.553 290.228 698.416 298.528 702.13C306.363 706.751 314.238 711.172 322.143 715.391ZM355.336 730.757C347.054 726.947 338.789 722.919 330.553 718.673C339.226 720.925 348.014 723.008 356.907 724.915C365.545 727.812 374.181 730.503 382.804 732.99C373.559 732.445 364.4 731.699 355.336 730.757ZM348.469 722.02C341.076 720.326 333.76 718.511 326.525 716.579C319.894 713.099 313.283 709.479 306.697 705.716C313.529 708.659 320.452 711.501 327.464 714.238C334.461 716.969 341.465 719.562 348.469 722.02ZM387.338 733.241C380.114 731.212 372.881 729.041 365.644 726.725C372.946 728.186 380.317 729.528 387.754 730.748C395.186 731.968 402.596 733.051 409.978 734.001C402.379 733.882 394.831 733.627 387.338 733.241ZM271.926 685.551C278.21 689.681 284.528 693.679 290.876 697.543C283.999 694.351 277.222 691.056 270.549 687.663C264.787 682.882 259.074 677.968 253.416 672.92C259.476 677.211 265.647 681.423 271.926 685.551ZM246.171 667.713C252.872 673.861 259.655 679.821 266.509 685.59C258.283 681.331 250.217 676.923 242.318 672.375C236.306 665.531 230.398 658.495 224.604 651.272C231.621 656.864 238.811 662.347 246.171 667.713ZM221.061 648.428C227.125 656.099 233.318 663.563 239.628 670.817C230.957 665.765 222.49 660.544 214.237 655.167C208.953 646.855 203.827 638.332 198.872 629.607C206.058 635.999 213.456 642.277 221.061 648.428ZM196.553 627.533C201.598 636.518 206.823 645.292 212.216 653.845C203.315 647.993 194.664 641.96 186.276 635.762C182.062 626.22 178.068 616.459 174.305 606.493C181.471 613.626 188.889 620.645 196.553 627.533ZM172.596 604.785C176.38 614.924 180.405 624.854 184.655 634.56C175.621 627.834 166.894 620.917 158.489 613.828C155.55 603.234 152.9 592.42 150.553 581.406C157.605 589.317 164.955 597.116 172.596 604.785ZM149.212 579.896C151.549 591.033 154.194 601.969 157.136 612.682C148.067 604.982 139.376 597.081 131.08 589.007C129.551 577.532 128.398 565.844 127.631 553.972C134.473 562.725 141.669 571.375 149.212 579.896ZM126.54 552.572C127.28 564.534 128.411 576.312 129.922 587.876C120.947 579.083 112.44 570.086 104.425 560.918C104.383 548.741 104.822 536.367 105.747 523.837C112.255 533.516 119.19 543.104 126.54 552.572ZM104.846 522.492C103.883 535.086 103.41 547.525 103.422 559.768C94.7404 549.772 86.6422 539.576 79.157 529.223C80.6042 516.529 82.6625 503.672 85.3276 490.703C91.3203 501.379 97.8315 511.987 104.846 522.492ZM78.0297 540.484C78.3095 537.233 78.6301 533.971 78.9915 530.698C86.5327 541.071 94.6875 551.284 103.426 561.295C103.483 574.582 104.111 587.636 105.306 600.403C102.872 598.185 100.475 595.949 98.1172 593.694C90.5389 586.448 83.3591 579.016 76.5992 571.419C76.6529 561.251 77.1306 550.93 78.0297 540.484ZM104.972 520.877C98.0212 510.41 91.5712 499.842 85.6373 489.209C88.128 477.288 91.1306 465.276 94.6414 453.211C98.9944 464.03 103.784 474.849 109.004 485.637C107.241 497.493 105.898 509.25 104.972 520.877ZM109.268 483.882C104.116 473.159 99.3898 462.407 95.0961 451.658C98.3664 440.553 102.067 429.407 106.195 418.249C108.885 429.028 111.941 439.856 115.365 450.707C112.97 461.832 110.939 472.898 109.268 483.882ZM115.793 448.733C112.439 437.985 109.446 427.261 106.813 416.587C110.662 406.289 114.875 395.983 119.449 385.693C120.505 396.236 121.867 406.863 123.54 417.555C120.642 427.983 118.06 438.383 115.793 448.733ZM124.192 415.228C122.584 404.698 121.279 394.232 120.273 383.851C124.545 374.334 129.126 364.833 134.016 355.367C133.51 365.465 133.258 375.673 133.267 385.976C129.965 395.739 126.94 405.495 124.192 415.228ZM134.271 383.032C134.311 372.998 134.599 363.058 135.129 353.224C139.685 344.492 144.503 335.792 149.582 327.139C147.639 336.555 145.902 346.097 144.378 355.756C140.767 364.843 137.398 373.94 134.271 383.032ZM146.072 351.539C147.579 342.404 149.279 333.375 151.162 324.462C155.815 316.627 160.681 308.833 165.761 301.089C162.616 309.48 159.626 318.003 156.799 326.649C153.019 334.93 149.444 343.23 146.072 351.539ZM160.561 318.559C163.017 311.383 165.587 304.296 168.265 297.302C172.419 291.07 176.711 284.873 181.141 278.716C177.505 285.195 173.959 291.775 170.509 298.454C167.057 305.137 163.741 311.841 160.561 318.559ZM145.349 356.022C148.118 349.057 151.03 342.097 154.086 335.149C151.874 342.249 149.772 349.43 147.784 356.688C145.795 363.947 143.945 371.197 142.23 378.433C143.141 370.898 144.182 363.425 145.349 356.022ZM143.687 360.247C142.353 369.114 141.2 378.078 140.233 387.129C138.258 396.01 136.487 404.867 134.918 413.691C134.493 404.439 134.278 395.253 134.267 386.141C137.189 377.511 140.328 368.876 143.687 360.247ZM133.278 389.088C133.335 398.703 133.62 408.401 134.138 418.167C132.494 427.81 131.09 437.41 129.922 446.956C127.874 437.132 126.088 427.346 124.562 417.615C127.203 408.124 130.108 398.61 133.278 389.088ZM130.564 449.998C131.628 440.947 132.903 431.846 134.395 422.704C134.934 431.65 135.669 440.653 136.604 449.702C136.519 458.807 136.628 467.845 136.928 476.809C134.589 467.849 132.468 458.908 130.564 449.998ZM123.919 419.942C125.523 429.927 127.4 439.967 129.551 450.046C128.351 460.28 127.422 470.45 126.757 480.54C122.994 470.573 119.542 460.606 116.398 450.659C118.598 440.463 121.104 430.217 123.919 419.942ZM127.615 482.798C128.225 472.967 129.088 463.059 130.209 453.087C132.264 462.48 134.559 471.905 137.096 481.35C137.493 491.122 138.115 500.802 138.957 510.381C134.912 501.198 131.131 491.998 127.615 482.798ZM115.976 452.633C119.201 462.727 122.743 472.84 126.603 482.952C125.936 493.754 125.574 504.463 125.508 515.058C119.992 505.241 114.834 495.373 110.039 485.479C111.662 474.605 113.641 463.648 115.976 452.633ZM126.5 516.816C126.532 506.385 126.853 495.843 127.47 485.208C131.115 494.64 135.037 504.069 139.237 513.48C140.191 523.74 141.396 533.881 142.844 543.888C137.092 534.921 131.642 525.891 126.5 516.816ZM109.78 487.233C114.652 497.218 119.894 507.175 125.499 517.078C125.47 528.459 125.784 539.708 126.434 550.8C119.163 541.382 112.305 531.847 105.869 522.223C106.759 510.68 108.062 499.006 109.78 487.233ZM127.519 552.202C126.847 541.227 126.503 530.096 126.498 518.834C131.75 528.037 137.317 537.192 143.195 546.279C144.789 556.987 146.661 567.539 148.8 577.918C141.363 569.463 134.266 560.883 127.519 552.202ZM171.755 602.518C164.263 594.942 157.054 587.241 150.136 579.432C147.998 569.22 146.12 558.839 144.512 548.306C150.039 556.775 155.837 565.184 161.902 573.517C164.969 583.357 168.258 593.028 171.755 602.518ZM160.984 570.544C155.117 562.401 149.505 554.187 144.152 545.918C142.706 536.175 141.49 526.304 140.512 516.318C144.477 525.08 148.682 533.825 153.128 542.538C155.548 552.013 158.17 561.351 160.984 570.544ZM152.02 538.132C147.868 529.851 143.934 521.544 140.217 513.223C139.376 504.15 138.732 494.984 138.29 485.734C140.68 494.379 143.273 503.039 146.071 511.703C147.88 520.62 149.865 529.432 152.02 538.132ZM144.358 502.947C142.125 495.69 140.036 488.438 138.09 481.198C137.787 473.707 137.617 466.163 137.582 458.57C138.449 465.957 139.45 473.373 140.586 480.814C141.722 488.257 142.981 495.636 144.358 502.947ZM154.07 542.183C152.217 534.925 150.483 527.588 148.872 520.174C151.254 527.212 153.772 534.251 156.427 541.286C159.084 548.324 161.848 555.275 164.713 562.135C161.023 555.507 157.476 548.854 154.07 542.183ZM155.208 546.578C159.34 554.532 163.673 562.457 168.208 570.344C171.831 578.691 175.606 586.899 179.523 594.961C173.743 587.729 168.171 580.425 162.808 573.062C160.099 564.364 157.563 555.533 155.208 546.578ZM163.74 576.028C169.437 583.771 175.365 591.447 181.523 599.041C185.862 607.81 190.37 616.404 195.037 624.816C187.607 618.072 180.411 611.206 173.457 604.232C170.016 595.001 166.773 585.596 163.74 576.028ZM197.344 626.9C192.884 618.95 188.565 610.835 184.397 602.56C190.093 609.482 195.98 616.334 202.056 623.107C207.34 630.525 212.743 637.775 218.256 644.853C211.096 638.977 204.124 632.989 197.344 626.9ZM239.638 661.636C233.563 657.076 227.609 652.435 221.776 647.72C217.127 641.836 212.553 635.831 208.06 629.706C213.104 635.173 218.272 640.585 223.565 645.937C228.863 651.294 234.222 656.527 239.638 661.636ZM196.931 615.805C191.943 610.087 187.089 604.316 182.37 598.498C179.049 591.783 175.827 584.965 172.709 578.047C176.505 584.441 180.434 590.807 184.497 597.14C188.557 603.47 192.704 609.692 196.931 615.805ZM136.75 440.782C136.075 433.226 135.54 425.705 135.142 418.226C136.402 410.842 137.803 403.434 139.346 396.006C138.659 403.407 138.096 410.864 137.661 418.373C137.225 425.881 136.923 433.352 136.75 440.782ZM204.847 246.221C200.076 252.046 195.434 257.919 190.923 263.835C194.825 257.314 198.82 250.903 202.902 244.607C208.272 239.364 213.77 234.184 219.396 229.073C214.476 234.671 209.625 240.387 204.847 246.221ZM833.315 590.665C841.009 579.109 847.586 567.004 852.945 554.397C850.582 567.84 846.908 581.075 841.86 594.009C836.814 606.939 830.556 619.16 823.191 630.646C827.788 617.74 831.149 604.379 833.315 590.665ZM831.978 592.651C829.576 606.986 825.854 620.922 820.766 634.342C812.767 646.26 803.555 657.362 793.254 667.619C798.194 654.332 801.998 640.433 804.686 626.037C814.869 615.514 824.002 604.369 831.978 592.651ZM792.408 669.859C802.339 660.153 811.291 649.678 819.156 638.458C814.05 651.116 807.704 663.297 800.078 674.899C792.45 686.503 783.783 697.16 774.185 706.867C781.368 695.198 787.436 682.825 792.408 669.859ZM803.423 627.334C800.622 641.88 796.672 655.907 791.552 669.296C781.293 679.303 769.985 688.489 757.744 696.827C763.073 683.766 767.488 670.045 770.986 655.768C782.704 646.896 793.547 637.403 803.423 627.334ZM757.055 698.501C769.202 690.327 780.45 681.325 790.687 671.523C785.355 685.049 778.815 697.908 771.044 709.979C760.745 719.968 749.431 728.908 737.228 736.795C744.822 724.826 751.432 712.023 757.055 698.501ZM769.722 656.72C766.156 671.032 761.663 684.773 756.247 697.839C744.505 705.723 731.92 712.833 718.594 719.148C724.537 706.679 729.793 693.565 734.341 679.89C746.849 672.738 758.669 665.003 769.722 656.72ZM717.909 720.576C731.215 714.334 743.796 707.303 755.549 699.507C749.785 713.153 743.005 726.051 735.214 738.082C723.099 745.737 710.127 752.372 696.42 757.982C704.347 746.315 711.518 733.813 717.909 720.576ZM733.039 680.631C728.45 694.292 723.151 707.383 717.163 719.822C704.66 725.67 691.512 730.822 677.803 735.258C682.747 726.752 687.423 717.923 691.819 708.796C693.396 705.522 694.937 702.209 696.441 698.859C699.806 697.393 703.134 695.889 706.425 694.349C715.599 690.056 724.478 685.479 733.039 680.631ZM677.048 736.552C690.771 732.157 703.94 727.048 716.473 721.245C710.01 734.501 702.759 747.007 694.745 758.661C681.62 763.931 667.832 768.269 653.484 771.675C661.89 760.715 669.757 748.981 677.048 736.552ZM690.918 708.362C686.367 717.811 681.516 726.938 676.379 735.716C666.691 738.807 656.726 741.543 646.513 743.916C643.335 744.654 640.133 745.358 636.907 746.026C644.444 735.646 651.639 724.732 658.461 713.325C671.081 709.165 683.303 704.533 695.078 699.451C693.72 702.452 692.334 705.422 690.918 708.362ZM636.032 747.227C639.63 746.491 643.199 745.712 646.739 744.89C656.605 742.598 666.241 739.968 675.621 737.006C668.292 749.413 660.387 761.115 651.944 772.037C638.499 775.157 624.568 777.463 610.236 778.952C616.841 771.659 623.25 763.994 629.448 755.981C631.67 753.107 633.865 750.189 636.032 747.227ZM657.009 713.801C650.184 725.149 642.988 736.004 635.453 746.324C622.934 748.87 610.07 750.885 596.913 752.358C605.216 743.358 613.295 733.885 621.12 723.966C633.394 720.989 645.37 717.596 657.009 713.801ZM595.875 753.479C609.085 752.034 622.002 750.044 634.575 747.521C632.625 750.173 630.652 752.789 628.657 755.369C622.24 763.665 615.598 771.585 608.748 779.104C598.63 780.113 588.315 780.717 577.833 780.914C574.57 780.976 571.291 780.998 567.997 780.981C577.526 772.396 586.832 763.217 595.875 753.479ZM619.545 724.345C611.737 734.192 603.677 743.594 595.396 752.526C583.29 753.84 570.937 754.697 558.378 755.086C567.325 747.601 576.137 739.7 584.786 731.399C596.606 729.413 608.202 727.057 619.545 724.345ZM583.036 731.691C574.428 739.907 565.66 747.726 556.761 755.134C545.19 755.455 533.446 755.38 521.56 754.902C530.983 749.011 540.34 742.756 549.606 736.144C560.924 734.984 572.075 733.496 583.036 731.691ZM547.596 736.346C538.407 742.861 529.13 749.023 519.789 754.828C508.8 754.349 497.692 753.527 486.488 752.355C496.192 748.092 505.882 743.512 515.537 738.614C526.355 738.148 537.047 737.389 547.596 736.346ZM453.311 765.677C463.751 761.876 474.201 757.704 484.637 753.164C495.956 754.384 507.178 755.247 518.281 755.761C508.154 762.007 497.954 767.832 487.71 773.226C476.32 771.134 464.844 768.618 453.311 765.677ZM482.629 752.944C472.288 757.404 461.935 761.502 451.594 765.236C440.953 762.486 430.267 759.374 419.559 755.901C429.936 753.749 440.365 751.283 450.826 748.501C461.495 750.292 472.103 751.772 482.629 752.944ZM513.122 738.713C503.6 743.498 494.047 747.975 484.481 752.142C474.115 751.02 463.668 749.599 453.16 747.875C462.927 745.234 472.719 742.317 482.522 739.122C492.819 739.245 503.024 739.107 513.122 738.713ZM479.411 739.077C469.85 742.142 460.301 744.942 450.778 747.479C441.064 745.844 431.299 743.949 421.497 741.793C431.061 740.73 440.682 739.432 450.347 737.894C460.106 738.52 469.798 738.913 479.411 739.077ZM485.478 738.15C494.604 735.124 503.737 731.857 512.864 728.347C522.532 726.932 532.087 725.302 541.517 723.465C532.809 728.447 524.058 733.167 515.277 737.624C505.443 738.044 495.506 738.222 485.478 738.15ZM517.69 737.516C526.687 732.907 535.652 728.022 544.569 722.863C554.68 720.841 564.646 718.581 574.453 716.093C566.138 722.751 557.727 729.113 549.24 735.176C538.859 736.235 528.336 737.018 517.69 737.516ZM551.248 734.967C559.85 728.782 568.372 722.289 576.795 715.494C587.273 712.791 597.568 709.827 607.664 706.615C600.033 714.894 592.243 722.848 584.316 730.464C573.475 732.28 562.445 733.785 551.248 734.967ZM586.065 730.168C594.054 722.45 601.902 714.39 609.588 705.999C620.42 702.511 631.02 698.736 641.368 694.691C634.658 704.514 627.711 713.982 620.548 723.075C609.296 725.795 597.792 728.164 586.065 730.168ZM384.347 762.034C395.346 760.486 406.432 758.578 417.581 756.308C428.39 759.851 439.18 763.027 449.925 765.836C438.725 769.838 427.54 773.414 416.402 776.559C405.704 772.148 395.008 767.304 384.347 762.034ZM451.643 766.282C463.252 769.276 474.808 771.841 486.277 773.978C475.143 779.796 463.96 785.105 452.767 789.894C441.169 786.17 429.534 781.928 417.899 777.174C429.112 773.976 440.37 770.345 451.643 766.282ZM382.589 762.279C393.315 767.617 404.077 772.525 414.844 776.997C402.741 780.373 390.695 783.242 378.748 785.599C368.185 779.549 357.691 772.984 347.306 765.919C358.942 765.122 370.714 763.91 382.589 762.279ZM380.074 786.356C392.08 783.955 404.182 781.041 416.341 777.616C428.025 782.425 439.712 786.719 451.363 790.492C439.172 795.661 426.971 800.212 414.81 804.132C403.182 798.832 391.587 792.9 380.074 786.356ZM345.69 766.027C356.112 773.156 366.645 779.783 377.25 785.892C364.253 788.413 351.373 790.328 338.664 791.634C328.398 784.035 318.295 775.826 308.399 767.036C320.641 767.184 333.085 766.85 345.69 766.027ZM339.859 792.515C352.613 791.17 365.536 789.215 378.575 786.653C390.115 793.25 401.738 799.234 413.397 804.585C410.258 805.585 407.122 806.542 403.989 807.457C393.925 810.397 383.899 812.899 373.941 814.955C365.159 809.823 356.457 804.247 347.858 798.244C345.181 796.375 342.515 794.465 339.859 792.515ZM306.871 767.015C316.782 775.862 326.902 784.128 337.187 791.783C333.912 792.107 330.648 792.392 327.396 792.635C316.939 793.418 306.611 793.781 296.442 793.721C288.921 786.877 281.57 779.615 274.408 771.957C272.182 769.576 269.974 767.157 267.785 764.701C280.539 766.037 293.586 766.811 306.871 767.015ZM297.55 794.726C307.388 794.754 317.37 794.389 327.471 793.632C331.093 793.361 334.73 793.04 338.381 792.668C341.336 794.85 344.304 796.983 347.285 799.064C355.591 804.862 363.995 810.264 372.475 815.254C358.353 818.109 344.37 820.066 330.607 821.1C319.288 813.194 308.249 804.382 297.55 794.726ZM273.678 772.64C280.595 780.037 287.691 787.067 294.946 793.709C280.537 793.566 266.451 792.572 252.771 790.721C243.348 780.64 234.388 769.731 225.934 758.067C235.55 760.139 245.388 761.857 255.424 763.217C259.027 763.705 262.655 764.147 266.307 764.543C268.741 767.289 271.198 769.988 273.678 772.64ZM253.854 791.874C267.549 793.673 281.643 794.619 296.053 794.719C306.722 804.408 317.734 813.26 329.03 821.214C314.318 822.245 299.863 822.219 285.763 821.106C274.635 812.373 263.98 802.599 253.854 791.874ZM224.471 757.748C232.889 769.438 241.815 780.381 251.205 790.505C236.601 788.455 222.468 785.423 208.908 781.403C199.844 770.552 191.459 758.783 183.787 746.193C196.808 750.8 210.398 754.655 224.471 757.748ZM210.072 782.786C223.616 786.72 237.721 789.677 252.284 791.664C262.335 802.393 272.912 812.187 283.962 820.958C269.205 819.693 254.844 817.232 240.996 813.541C229.967 804.382 219.646 794.092 210.072 782.786ZM182.296 745.661C189.893 758.239 198.198 770.012 207.177 780.883C193.005 776.578 179.47 771.184 166.691 764.694C157.814 753.448 149.862 741.244 142.851 728.202C155.282 734.866 168.464 740.69 182.296 745.661ZM141.258 727.342C148.117 740.273 155.891 752.398 164.567 763.601C151.674 756.885 139.569 749.037 128.378 740.049C119.523 728.765 111.817 716.581 105.249 703.624C116.358 712.427 128.399 720.338 141.258 727.342ZM103.38 702.127C109.538 714.563 116.728 726.305 124.961 737.245C114.507 728.481 104.889 718.686 96.2156 707.853C87.5438 697.022 80.0917 685.496 73.8281 673.379C82.7037 683.809 92.5906 693.397 103.38 702.127ZM71.8391 669.43C65.5161 656.543 60.5062 643.014 56.7732 628.963C65.8086 639.883 75.9414 650.124 87.0625 659.648C91.0837 673.729 96.1691 687.21 102.329 699.976C91.1191 690.731 80.9142 680.543 71.8391 669.43ZM69.0786 665.977C60.6683 655.225 53.2919 643.639 47.057 631.232C40.8227 618.826 35.9276 605.994 32.3194 592.831C38.834 604.884 46.514 616.323 55.2562 627.11C58.6963 640.565 63.293 653.555 69.0786 665.977ZM140.415 725.739C127.448 718.582 115.33 710.492 104.18 701.487C97.8321 688.637 92.5892 675.041 88.4416 660.821C99.2151 669.924 110.898 678.362 123.394 686.1C128.212 699.987 133.889 713.235 140.415 725.739ZM181.48 744.304C167.622 739.262 154.428 733.359 142.001 726.608C135.387 714.105 129.63 700.845 124.742 686.931C136.521 694.144 149.012 700.741 162.135 706.692C167.94 719.881 174.398 732.445 181.48 744.304ZM735.934 738.81C747.661 731.385 758.591 723.005 768.612 713.671C760.99 724.982 752.256 735.57 742.39 745.326C732.521 755.086 721.834 763.704 710.434 771.202C719.879 761.286 728.38 750.452 735.934 738.81ZM733.905 740.081C725.882 752.194 716.818 763.406 706.715 773.592C694.562 781.225 681.632 787.62 668.052 792.8C677.965 782.675 687.089 771.529 695.397 759.476C708.979 754.006 721.853 747.54 733.905 740.081ZM693.715 760.147C685.243 772.292 675.933 783.495 665.815 793.64C652.372 798.61 638.303 802.403 623.728 805.041C633.905 795.28 643.516 784.545 652.517 772.929C666.831 769.59 680.598 765.329 693.715 760.147ZM622.417 806.29C636.841 803.763 650.779 800.115 664.119 795.323C653.749 805.509 642.546 814.596 630.541 822.461C617.066 827.4 603.09 830.967 588.73 833.209C600.536 825.364 611.782 816.356 622.417 806.29ZM650.974 773.285C641.898 784.905 632.208 795.627 621.949 805.357C608.016 807.783 593.627 809.161 578.885 809.509C589.383 800.538 599.515 790.699 609.228 780.06C623.564 778.615 637.508 776.356 650.974 773.285ZM577.678 810.535C592.373 810.245 606.725 808.939 620.633 806.597C609.817 816.718 598.378 825.744 586.367 833.566C572.186 835.632 557.637 836.416 542.834 835.967C554.821 828.533 566.457 820.029 577.678 810.535ZM607.738 780.207C597.992 790.817 587.83 800.617 577.304 809.543C563.504 809.8 549.398 809.159 535.071 807.636C543.045 801.877 550.905 795.715 558.631 789.167C561.402 786.818 564.156 784.42 566.891 781.974C570.564 782.002 574.218 781.983 577.852 781.914C587.977 781.723 597.948 781.154 607.738 780.207ZM533.855 808.511C548.178 810.077 562.286 810.766 576.095 810.562C564.799 820.044 553.088 828.519 541.027 835.906C526.895 835.382 512.535 833.738 498.043 831.014C510.18 824.419 522.139 816.9 533.855 808.511ZM557.985 788.404C549.986 795.183 541.845 801.546 533.583 807.475C523.474 806.359 513.257 804.805 502.959 802.818C499.757 802.2 496.547 801.54 493.33 800.839C504.433 794.424 515.441 787.383 526.309 779.74C539.531 781.073 552.58 781.812 565.405 781.959C562.946 784.147 560.472 786.296 557.985 788.404ZM482.461 806.902C485.662 805.18 488.856 803.406 492.042 801.58C495.627 802.372 499.203 803.112 502.77 803.8C512.716 805.719 522.591 807.235 532.366 808.345C520.625 816.698 508.644 824.174 496.489 830.718C482.937 828.1 469.272 824.54 455.573 820.071C464.571 816.095 473.542 811.702 482.461 806.902ZM490.592 801.257C487.729 802.887 484.861 804.476 481.988 806.022C472.753 810.99 463.466 815.522 454.152 819.604C444.497 816.411 434.826 812.766 425.168 808.683C422.165 807.413 419.163 806.1 416.162 804.746C428.359 800.779 440.594 796.179 452.816 790.961C465.471 795.012 478.08 798.448 490.592 801.257ZM524.789 779.585C513.942 787.172 502.957 794.159 491.88 800.52C479.409 797.755 466.838 794.364 454.22 790.358C465.462 785.515 476.692 780.149 487.87 774.272C500.293 776.546 512.613 778.316 524.789 779.585ZM489.302 773.516C499.608 768.055 509.869 762.16 520.054 755.84C532.027 756.354 543.858 756.461 555.515 756.167C545.831 764.174 535.994 771.694 526.038 778.708C513.925 777.477 501.666 775.746 489.302 773.516ZM527.557 778.859C537.549 771.783 547.42 764.198 557.134 756.123C569.761 755.764 582.182 754.934 594.357 753.643C585.322 763.323 576.027 772.443 566.512 780.97C553.737 780.858 540.734 780.155 527.557 778.859ZM404.27 808.417C407.759 807.398 411.252 806.327 414.748 805.203C418.089 806.722 421.433 808.189 424.779 809.604C434.108 813.548 443.45 817.085 452.78 820.202C439.559 825.931 426.287 830.752 413.039 834.625C400.328 829.248 387.703 822.925 375.234 815.707C384.861 813.689 394.548 811.256 404.27 808.417ZM454.202 820.674C467.887 825.184 481.544 828.792 495.095 831.464C482.076 838.389 468.86 844.243 455.527 848.961C441.812 845.51 428.106 840.916 414.496 835.238C427.738 831.311 440.998 826.443 454.202 820.674ZM373.767 816.011C386.214 823.267 398.822 829.635 411.52 835.065C397.346 839.132 383.203 842.111 369.183 843.953C356.486 837.727 344.036 830.384 331.905 822.002C345.673 820.914 359.654 818.909 373.767 816.011ZM370.808 844.744C384.78 842.828 398.867 839.792 412.977 835.684C426.52 841.396 440.163 846.041 453.821 849.558C439.827 854.405 425.709 857.997 411.559 860.257C397.762 856.376 384.151 851.176 370.808 844.744ZM330.326 822.123C342.385 830.524 354.762 837.903 367.39 844.183C352.691 846.014 338.132 846.592 323.818 845.861C311.132 839.197 298.901 831.282 287.189 822.217C301.256 823.249 315.668 823.207 330.326 822.123ZM325.939 846.961C340.101 847.553 354.494 846.876 369.014 844.984C382.168 851.416 395.589 856.657 409.198 860.622C394.822 862.767 380.419 863.534 366.084 862.841C352.28 858.917 338.876 853.587 325.939 846.961ZM285.384 822.079C296.911 831.105 308.948 839.02 321.433 845.727C306.925 844.836 292.677 842.591 278.8 838.933C266.116 832.225 254.116 824.227 242.842 815.058C256.57 818.581 270.788 820.911 285.384 822.079ZM282.729 840.958C296.044 844.181 309.683 846.128 323.548 846.849C335.845 853.294 348.572 858.569 361.671 862.581C348.056 861.637 334.512 859.366 321.122 855.698C307.734 852.031 294.924 847.083 282.729 840.958ZM410.962 870.439C397.105 869.636 383.549 867.46 370.349 864.005C384.043 864.389 397.788 863.457 411.5 861.28C424.867 865.026 438.412 867.54 452.058 868.741C438.543 870.648 424.822 871.243 410.962 870.439ZM456.428 868.077C442.11 867.109 427.893 864.683 413.862 860.892C427.835 858.527 441.769 854.873 455.576 850.004C469.779 853.561 483.994 855.897 498.128 856.946C484.516 862.031 470.59 865.775 456.428 868.077ZM500.362 856.098C486.061 855.171 471.668 852.914 457.282 849.396C470.551 844.618 483.7 838.718 496.65 831.766C511.083 834.537 525.392 836.244 539.483 836.845C526.8 844.496 513.735 850.945 500.362 856.098ZM502.747 856.241C515.925 851.022 528.797 844.55 541.292 836.916C555.924 837.443 570.315 836.772 584.358 834.859C572.097 842.666 559.25 849.224 545.872 854.421C531.667 856.45 517.258 857.033 502.747 856.241ZM550.241 853.751C562.909 848.532 575.087 842.09 586.729 834.524C600.466 832.51 613.863 829.298 626.818 824.845C615.25 832.083 602.959 838.205 589.972 843.108C576.983 848.011 563.71 851.538 550.241 853.751ZM634.676 820.896C645.981 813.158 656.554 804.324 666.368 794.502C679.386 789.676 691.823 783.748 703.569 776.698C693.757 786.185 683.006 794.731 671.32 802.228C659.636 809.724 647.387 815.933 634.676 820.896ZM541.735 855.979C528.916 860.652 515.624 864.084 501.904 866.179C488.184 868.274 474.471 868.965 460.841 868.329C474.313 865.858 487.56 862.09 500.517 857.111C514.37 857.997 528.139 857.641 541.735 855.979ZM240.525 814.451C251.212 823.31 262.561 831.115 274.537 837.761C261.418 834.007 248.643 828.97 236.31 822.599C223.979 816.23 212.481 808.729 201.828 800.205C214.181 806.125 227.115 810.863 240.525 814.451ZM198.406 797.407C187.387 788.204 177.307 777.881 168.181 766.561C180.878 772.863 194.301 778.098 208.335 782.276C217.737 793.506 227.868 803.755 238.69 812.914C224.687 809.026 211.218 803.869 198.406 797.407ZM194.48 795.375C182.425 788.974 170.975 781.39 160.234 772.593C149.489 763.793 139.796 754.058 131.143 743.497C141.998 751.859 153.667 759.186 166.042 765.486C174.658 776.38 184.141 786.379 194.48 795.375ZM571.547 705.124C564.531 707.721 557.422 710.209 550.227 712.584C556.979 709.479 563.717 706.238 570.437 702.861C577.143 699.491 583.751 696.025 590.259 692.468C584.059 696.825 577.82 701.044 571.547 705.124ZM575.799 703.532C583.271 698.596 590.694 693.463 598.058 688.134C605.999 683.649 613.784 679.028 621.41 674.279C614.82 680.784 608.137 687.091 601.374 693.195C592.997 696.802 584.469 700.25 575.799 703.532ZM604.226 691.958C611.332 685.482 618.347 678.782 625.258 671.863C633.521 666.634 641.592 661.255 649.465 655.738C643.535 663.833 637.459 671.706 631.249 679.351C622.432 683.737 613.421 687.943 604.226 691.958ZM633.409 678.271C639.755 670.399 645.959 662.288 652.009 653.946C660.419 647.989 668.601 641.874 676.545 635.615C671.655 645.08 666.559 654.314 661.271 663.305C652.221 668.493 642.929 673.487 633.409 678.271ZM677.649 633.467C669.933 639.592 661.991 645.582 653.829 651.423C659.439 643.604 664.912 635.585 670.238 627.373C677.233 620.54 684.01 613.6 690.565 606.566C686.445 615.722 682.136 624.693 677.649 633.467ZM663.02 662.298C668.364 653.149 673.509 643.75 678.44 634.116C686.914 627.383 695.115 620.487 703.033 613.446C699.429 624.114 695.547 634.549 691.403 644.732C682.236 650.801 672.769 656.663 663.02 662.298ZM703.676 611.532C695.903 618.488 687.853 625.304 679.537 631.962C684.11 622.937 688.495 613.707 692.68 604.284C699.666 596.711 706.395 589.03 712.862 581.259C710.047 591.538 706.98 601.634 703.676 611.532ZM692.88 643.751C697.039 633.449 700.932 622.893 704.54 612.101C713.017 604.507 721.166 596.748 728.975 588.843C726.84 600.547 724.343 612.024 721.498 623.245C712.325 630.307 702.778 637.15 692.88 643.751ZM729.29 587.098C721.584 594.941 713.543 602.644 705.177 610.184C708.503 600.119 711.583 589.852 714.404 579.398C721.294 571.05 727.882 562.6 734.163 554.066C732.855 565.254 731.227 576.272 729.29 587.098ZM722.779 622.256C725.617 610.944 728.102 599.375 730.22 587.578C738.614 579.024 746.611 570.302 754.193 561.442C753.664 573.995 752.67 586.336 751.221 598.427C742.2 606.606 732.71 614.559 722.779 622.256ZM754.259 559.824C746.755 568.639 738.84 577.317 730.53 585.831C732.458 574.886 734.071 563.747 735.357 552.437C742.069 543.249 748.426 533.965 754.419 524.612C754.765 536.506 754.709 548.254 754.259 559.824ZM752.35 597.4C753.777 585.24 754.745 572.83 755.244 560.209C763.426 550.586 771.121 540.8 778.308 530.888C779.456 544.078 780.014 557.087 779.984 569.863C771.352 579.282 762.129 588.474 752.35 597.4ZM778.173 529.368C771.049 539.244 763.42 548.997 755.306 558.59C755.73 546.933 755.755 535.098 755.374 523.116C761.806 513.003 767.815 502.809 773.389 492.566C775.482 504.957 777.076 517.238 778.173 529.368ZM780.985 568.767C780.981 555.942 780.388 542.885 779.202 529.65C786.967 518.866 794.132 507.934 800.671 496.901C801.337 500.125 801.96 503.342 802.542 506.55C804.414 516.869 805.855 527.104 806.859 537.225C800.838 545.421 794.384 553.491 787.516 561.414C785.379 563.88 783.202 566.331 780.985 568.767ZM800.369 495.448C793.883 506.456 786.773 517.364 779.063 528.129C777.931 515.936 776.297 503.593 774.161 491.142C780.163 480.028 785.655 468.856 790.624 457.667C794.49 470.332 797.741 482.943 800.369 495.448ZM803.526 506.372C802.878 502.798 802.178 499.214 801.427 495.621C803.287 492.457 805.096 489.284 806.853 486.104C811.751 477.238 816.245 468.316 820.321 459.362C824.637 473.11 828.044 486.813 830.511 500.394C823.833 512.475 816.225 524.371 807.742 536.018C806.741 526.23 805.335 516.339 803.526 506.372ZM819.87 457.936C815.684 467.205 811.049 476.441 805.978 485.62C804.4 488.475 802.781 491.324 801.12 494.167C798.449 481.622 795.153 468.972 791.241 456.27C796.594 444.108 801.329 431.927 805.431 419.776C806.754 422.794 808.034 425.814 809.272 428.834C813.247 438.537 816.784 448.246 819.87 457.936ZM831.273 499.009C828.752 485.429 825.296 471.732 820.938 457.998C826.854 444.86 831.87 431.655 835.943 418.457C841.47 432.13 845.911 445.886 849.209 459.639C844.343 472.918 838.342 486.067 831.273 499.009ZM835.347 416.993C831.327 430.197 826.358 443.415 820.482 456.571C817.469 447.207 814.037 437.827 810.197 428.455C808.818 425.091 807.387 421.728 805.904 418.368C807.067 414.884 808.177 411.403 809.234 407.926C812.182 398.237 814.722 388.578 816.847 378.973C823.927 391.524 830.11 404.22 835.347 416.993ZM849.825 457.939C846.46 444.242 841.967 430.549 836.407 416.943C840.672 402.877 843.865 388.822 845.935 374.87C852.219 388.284 857.268 401.952 860.995 415.792C858.577 429.918 854.828 443.998 849.825 457.939ZM845.163 373.236C843.165 387.238 840.028 401.349 835.804 415.479C830.514 402.719 824.286 390.039 817.167 377.51C820.223 363.428 822.384 349.468 823.624 335.711C831.873 347.937 839.077 360.469 845.163 373.236ZM796.74 301.065C806.273 311.868 814.96 323 822.737 334.403C821.55 348.156 819.438 362.119 816.425 376.21C811.531 367.677 806.224 359.216 800.519 350.847C798.473 347.845 796.375 344.855 794.227 341.878C794.639 338.23 795.001 334.595 795.313 330.975C796.182 320.882 796.658 310.903 796.74 301.065ZM799.693 351.411C805.599 360.074 811.076 368.836 816.109 377.672C813.943 387.607 811.329 397.604 808.278 407.635C807.328 410.757 806.336 413.882 805.302 417.009C800.082 405.296 794.23 393.611 787.764 382.004C790.472 368.994 792.571 356.093 794.057 343.355C795.977 346.03 797.856 348.715 799.693 351.411ZM787.451 383.499C793.864 395.08 799.664 406.736 804.833 418.418C800.779 430.532 796.092 442.68 790.789 454.811C787.147 443.124 782.985 431.394 778.308 419.663C781.868 407.544 784.917 395.476 787.451 383.499ZM777.849 421.216C782.471 432.898 786.582 444.575 790.176 456.208C785.261 467.35 779.827 478.475 773.885 489.546C771.876 478.059 769.441 466.482 766.579 454.846C770.768 443.616 774.526 432.396 777.849 421.216ZM765.955 456.508C768.766 468.066 771.152 479.564 773.117 490.97C767.609 501.152 761.672 511.286 755.314 521.342C754.924 510.241 754.186 499.017 753.094 487.692C757.749 477.308 762.037 466.905 765.955 456.508ZM752.264 489.534C753.31 500.743 754.008 511.853 754.364 522.839C748.459 532.112 742.195 541.316 735.582 550.429C736.741 539.9 737.618 529.224 738.205 518.419C743.208 508.822 747.895 499.187 752.264 489.534ZM737.083 520.56C736.466 531.193 735.567 541.699 734.393 552.061C728.236 560.481 721.78 568.821 715.029 577.063C717.623 567.294 719.991 557.364 722.124 547.287C727.385 538.423 732.371 529.509 737.083 520.56ZM720.53 549.958C718.405 559.761 716.057 569.422 713.495 578.928C707.224 586.522 700.703 594.03 693.936 601.437C697.792 592.635 701.474 583.666 704.971 574.539C710.393 566.4 715.58 558.202 720.53 549.958ZM702.438 578.312C699.065 586.93 695.527 595.404 691.833 603.727C685.655 610.423 679.274 617.034 672.697 623.552C677.514 616.004 682.207 608.296 686.766 600.432C692.186 593.117 697.411 585.74 702.438 578.312ZM681.404 607.563C677.513 614.066 673.53 620.457 669.46 626.735C664.107 631.962 658.626 637.127 653.018 642.223C657.914 636.65 662.743 630.959 667.5 625.152C672.264 619.335 676.899 613.471 681.404 607.563ZM628.458 668.636C634.759 662.235 640.971 655.65 647.084 648.884C653.894 642.866 660.526 636.746 666.976 630.536C661.878 638.277 656.648 645.842 651.296 653.226C643.861 658.489 636.246 663.63 628.458 668.636ZM623.051 669.1C628.937 664.388 634.707 659.601 640.358 654.745C635.181 660.318 629.936 665.763 624.629 671.077C618.282 675.093 611.821 679.02 605.25 682.853C611.227 678.399 617.163 673.815 623.051 669.1ZM704.077 574.077C699.919 580.316 695.622 586.519 691.187 592.682C694.829 586.194 698.38 579.603 701.836 572.913C705.29 566.227 708.608 559.52 711.79 552.798C709.33 559.982 706.758 567.076 704.077 574.077ZM706.581 570.29C709.73 561.892 712.722 553.362 715.551 544.708C719.329 536.431 722.903 528.135 726.273 519.83C724.765 528.969 723.065 538.002 721.18 546.918C716.528 554.752 711.661 562.547 706.581 570.29ZM722.761 544.241C724.704 534.822 726.442 525.276 727.966 515.613C731.579 506.523 734.948 497.425 738.076 488.331C738.036 498.368 737.748 508.312 737.218 518.149C732.661 526.883 727.841 535.585 722.761 544.241ZM738.08 485.222C735.158 493.854 732.018 502.491 728.658 511.122C729.991 502.259 731.144 493.299 732.111 484.252C734.087 475.366 735.859 466.503 737.43 457.674C737.854 466.924 738.069 476.111 738.08 485.222ZM738.331 516.006C738.837 505.905 739.089 495.693 739.08 485.386C742.382 475.625 745.405 465.871 748.153 456.141C749.761 466.674 751.066 477.141 752.073 487.525C747.801 497.041 743.22 506.541 738.331 516.006ZM747.783 453.754C745.142 463.243 742.238 472.754 739.069 482.275C739.012 472.66 738.727 462.963 738.209 453.197C739.852 443.557 741.256 433.96 742.424 424.417C744.472 434.24 746.257 444.024 747.783 453.754ZM752.896 485.682C751.841 475.137 750.479 464.508 748.805 453.814C751.703 443.385 754.285 432.985 756.552 422.634C759.907 433.385 762.901 444.11 765.534 454.786C761.685 465.085 757.471 475.392 752.896 485.682ZM755.947 420.709C753.747 430.906 751.241 441.151 748.426 451.427C746.822 441.443 744.946 431.405 742.795 421.327C743.995 411.092 744.925 400.921 745.589 390.83C749.351 400.797 752.804 410.763 755.947 420.709ZM766.152 453.124C763.462 442.343 760.405 431.514 756.98 420.661C759.375 409.535 761.407 398.468 763.078 387.484C768.231 398.208 772.957 408.961 777.251 419.712C773.981 430.817 770.28 441.965 766.152 453.124ZM762.307 385.887C760.683 396.761 758.705 407.719 756.369 418.735C753.145 408.642 749.603 398.53 745.743 388.418C746.41 377.615 746.773 366.905 746.838 356.308C752.355 366.125 757.512 375.993 762.307 385.887ZM777.706 418.159C773.352 407.339 768.562 396.518 763.341 385.729C765.105 373.875 766.447 362.12 767.373 350.495C774.324 360.962 780.775 371.531 786.709 382.165C784.219 394.084 781.216 406.096 777.706 418.159ZM766.476 349.148C765.586 360.689 764.284 372.361 762.566 384.132C757.694 374.148 752.453 364.192 746.847 354.288C746.877 342.91 746.563 331.664 745.913 320.574C753.183 329.991 760.041 339.526 766.476 349.148ZM787.019 380.671C781.026 369.994 774.514 359.385 767.499 348.88C768.462 336.285 768.935 323.846 768.923 311.603C777.605 321.6 785.704 331.796 793.19 342.15C791.742 354.844 789.684 367.701 787.019 380.671ZM767.921 310.453C767.963 322.63 767.523 335.004 766.598 347.534C760.09 337.857 753.156 328.27 745.807 318.803C745.067 306.84 743.936 295.061 742.425 283.497C751.399 292.289 759.906 301.286 767.921 310.453ZM793.355 340.675C785.813 330.301 777.658 320.087 768.919 310.076C768.863 296.786 768.234 283.729 767.039 270.959C769.473 273.177 771.869 275.413 774.227 277.668C781.806 284.915 788.987 292.348 795.747 299.945C795.694 310.116 795.216 320.441 794.317 330.889C794.037 334.139 793.716 337.402 793.355 340.675ZM765.94 269.961C767.164 282.679 767.823 295.685 767.913 308.927C759.832 299.73 751.257 290.707 742.212 281.891C740.535 269.37 738.411 257.102 735.854 245.128C746.424 253.1 756.465 261.39 765.94 269.961ZM704.089 223.144C714.696 229.878 724.887 236.91 734.634 244.211C737.207 256.115 739.35 268.311 741.05 280.762C732.673 272.648 723.896 264.712 714.739 256.979C711.527 245.43 707.972 234.143 704.089 223.144ZM715.211 258.69C724.28 266.391 732.971 274.291 741.267 282.366C742.796 293.841 743.949 305.53 744.716 317.403C737.874 308.649 730.678 300 723.136 291.478C720.798 280.341 718.153 269.404 715.211 258.69ZM723.547 293.456C730.984 301.912 738.081 310.491 744.827 319.172C745.5 330.145 745.843 341.273 745.849 352.532C740.596 343.329 735.029 334.173 729.15 325.085C727.557 314.381 725.686 303.832 723.547 293.456ZM729.501 327.476C735.254 336.443 740.704 345.475 745.846 354.551C745.814 364.982 745.493 375.526 744.876 386.162C741.231 376.73 737.309 367.3 733.109 357.889C732.155 347.627 730.949 337.485 729.501 327.476ZM733.389 360.987C737.434 370.171 741.215 379.372 744.732 388.573C744.121 398.404 743.258 408.314 742.137 418.286C740.082 408.892 737.787 399.466 735.25 390.02C734.853 380.248 734.23 370.567 733.389 360.987ZM735.418 394.561C737.757 403.522 739.877 412.464 741.782 421.375C740.719 430.423 739.443 439.522 737.952 448.66C737.413 439.709 736.677 430.701 735.742 421.645C735.827 412.549 735.717 403.518 735.418 394.561ZM735.596 430.566C736.271 438.128 736.807 445.654 737.205 453.139C735.944 460.528 734.542 467.941 732.998 475.374C733.685 467.969 734.249 460.507 734.685 452.993C735.12 445.479 735.423 438.002 735.596 430.566ZM734.255 390.172C734.558 397.655 734.728 405.192 734.763 412.777C733.896 405.395 732.896 397.985 731.761 390.549C730.626 383.117 729.37 375.748 727.994 368.447C730.225 375.696 732.311 382.94 734.255 390.172ZM734.055 385.636C731.668 376.999 729.078 368.347 726.282 359.691C724.473 350.769 722.487 341.952 720.331 333.248C724.481 341.525 728.413 349.828 732.128 358.145C732.969 367.219 733.614 376.386 734.055 385.636ZM731.833 355.051C727.871 346.292 723.667 337.551 719.223 328.841C716.802 319.364 714.18 310.022 711.365 300.826C717.231 308.967 722.841 317.178 728.193 325.446C729.64 335.19 730.856 345.063 731.833 355.051ZM709.541 298.308C712.251 307.009 714.787 315.843 717.143 324.801C713.009 316.843 708.673 308.913 704.135 301.021C700.511 292.671 696.736 284.461 692.817 276.396C698.6 283.633 704.176 290.941 709.541 298.308ZM727.833 323.058C722.307 314.591 716.511 306.184 710.447 297.853C707.381 288.016 704.094 278.349 700.598 268.863C708.088 276.437 715.295 284.136 722.211 291.943C724.348 302.151 726.226 312.528 727.833 323.058ZM698.897 267.149C702.337 276.377 705.578 285.778 708.609 295.342C702.91 287.595 696.978 279.915 690.817 272.316C686.481 263.554 681.976 254.966 677.313 246.561C684.745 253.306 691.941 260.173 698.897 267.149ZM721.794 289.968C714.744 282.06 707.396 274.263 699.758 266.597C695.973 256.456 691.949 246.524 687.698 236.817C696.73 243.541 705.454 250.457 713.858 257.545C716.797 268.139 719.447 278.954 721.794 289.968ZM686.077 235.614C690.291 245.158 694.286 254.92 698.049 264.888C690.881 257.753 683.462 250.734 675.797 243.844C670.752 234.858 665.525 226.082 660.132 217.528C669.035 223.38 677.687 229.415 686.077 235.614ZM713.381 255.837C704.87 248.698 696.033 241.734 686.885 234.968C682.283 224.558 677.42 214.408 672.314 204.538C682.786 210.185 692.929 216.105 702.721 222.278C706.603 233.186 710.162 244.381 713.381 255.837ZM670.752 203.699C675.831 213.453 680.672 223.482 685.259 233.77C676.716 227.498 667.906 221.398 658.838 215.486C653.027 206.352 647.024 197.473 640.847 188.86C651.082 193.56 661.057 198.512 670.752 203.699ZM609.874 175.725C619.799 179.598 629.516 183.701 639.012 188.021C645.119 196.481 651.057 205.201 656.811 214.17C648.318 208.682 639.603 203.359 630.674 198.214C623.869 190.471 616.93 182.973 609.874 175.725ZM632.722 200.557C641.392 205.608 649.858 210.829 658.111 216.205C663.396 224.518 668.522 233.043 673.478 241.77C666.295 235.38 658.899 229.104 651.296 222.954C645.229 215.281 639.034 207.813 632.722 200.557ZM654.1 226.529C661.259 232.403 668.228 238.389 675.006 244.478C679.463 252.421 683.778 260.529 687.942 268.797C682.245 261.873 676.355 255.019 670.277 248.243C665 240.837 659.605 233.597 654.1 226.529ZM675.403 255.546C680.393 261.266 685.249 267.039 689.97 272.86C693.293 279.577 696.516 286.398 699.635 293.318C695.84 286.925 691.911 280.56 687.849 274.227C683.784 267.892 679.634 261.664 675.403 255.546ZM650.58 223.662C655.222 229.536 659.788 235.531 664.272 241.645C659.233 236.182 654.068 230.775 648.78 225.427C643.497 220.085 638.153 214.866 632.752 209.771C638.815 214.323 644.759 218.955 650.58 223.662ZM647.752 220.11C640.747 214.527 633.568 209.052 626.221 203.694C619.511 197.536 612.719 191.568 605.856 185.791C614.077 190.047 622.138 194.453 630.032 198.999C636.047 205.846 641.957 212.884 647.752 220.11ZM627.974 196.668C619.621 191.911 611.083 187.311 602.369 182.877C594.837 176.63 587.222 170.611 579.536 164.824C589.067 167.962 598.433 171.309 607.623 174.852C614.522 181.886 621.311 189.16 627.974 196.668ZM576.581 163.859C583.89 169.308 591.137 174.966 598.311 180.831C590.285 176.821 582.112 172.952 573.798 169.232C565.956 164.606 558.073 160.182 550.159 155.959C559.095 158.416 567.905 161.052 576.581 163.859ZM523.807 149.326C531.208 151.021 538.533 152.837 545.777 154.772C552.416 158.255 559.036 161.879 565.629 165.646C558.804 162.706 551.887 159.867 544.881 157.133C537.86 154.393 530.834 151.791 523.807 149.326ZM581.451 173.819C588.341 177.017 595.131 180.318 601.816 183.718C607.587 188.507 613.309 193.43 618.977 198.487C612.902 194.184 606.716 189.961 600.421 185.823C594.13 181.688 587.805 177.687 581.451 173.819ZM707.631 309.229C711.323 315.862 714.873 322.52 718.282 329.196C720.135 336.459 721.87 343.802 723.482 351.221C721.097 344.173 718.576 337.125 715.917 330.082C713.26 323.042 710.496 316.09 707.631 309.229ZM730.114 492.948C729.203 500.479 728.162 507.948 726.996 515.347C724.228 522.308 721.318 529.264 718.264 536.209C720.475 529.113 722.576 521.935 724.563 514.68C726.55 507.426 728.4 500.18 730.114 492.948Z" stroke="url(#paint0_linear_2007_3281)"/>
<defs>
<linearGradient id="paint0_linear_2007_3281" x1="0.663447" y1="456.077" x2="871.682" y2="415.29" gradientUnits="userSpaceOnUse">
<stop stop-color="#0026FF"/>
<stop offset="0.467707" stop-color="#FF0000" stop-opacity="0.58"/>
</linearGradient>
</defs>
</svg>
