<svg width="38" height="62" viewBox="0 0 38 62" fill="none" xmlns="http://www.w3.org/2000/svg">
<g filter="url(#filter0_i_2007_3355)">
<path d="M20.2795 60.9938C19.5728 61.7005 18.4272 61.7005 17.7205 60.9938L0.530012 43.8035C-0.176671 43.0968 -0.176671 41.951 0.530012 41.2444L17.7205 24.054C18.4272 23.3473 19.5728 23.3473 20.2795 24.054L37.47 41.2444C38.1767 41.9511 38.1767 43.0969 37.47 43.8035L20.2795 60.9938ZM20.2795 19.3748C19.5728 20.0815 18.4272 20.0815 17.7205 19.3748L9.57761 11.2319C8.87093 10.5252 8.87093 9.37946 9.57761 8.6729L17.7205 0.530012C18.4272 -0.176671 19.5728 -0.176671 20.2795 0.530012L28.4224 8.6729C29.1291 9.37958 29.1291 10.5253 28.4224 11.2319L20.2795 19.3748Z" fill="#FF0000"/>
</g>
<defs>
<filter id="filter0_i_2007_3355" x="-1" y="0" width="39" height="64.5238" filterUnits="userSpaceOnUse" colorInterpolationFilters="sRGB">
<feFlood floodOpacity="0" result="BackgroundImageFix"/>
<feBlend mode="normal" in="SourceGraphic" in2="BackgroundImageFix" result="shape"/>
<feColorMatrix in="SourceAlpha" type="matrix" values="0 0 0 0 0 0 0 0 0 0 0 0 0 0 0 0 0 0 127 0" result="hardAlpha"/>
<feOffset dx="-1" dy="3"/>
<feGaussianBlur stdDeviation="1.5"/>
<feComposite in2="hardAlpha" operator="arithmetic" k2="-1" k3="1"/>
<feColorMatrix type="matrix" values="0 0 0 0 0.988963 0 0 0 0 0.432533 0 0 0 0 0.194603 0 0 0 1 0"/>
<feBlend mode="normal" in2="shape" result="effect1_innerShadow_2007_3355"/>
</filter>
</defs>
</svg>
