<svg width="774" height="1777" viewBox="0 0 774 1777" fill="none" xmlns="http://www.w3.org/2000/svg">
<g opacity="0.5" clip-path="url(#clip0_2007_3445)">
<path opacity="0.05" d="M-424 600.68C-140.167 -92.2733 143.667 -239.167 427.5 160C711.333 559.167 995.167 706.06 1279 600.68" stroke="url(#paint0_linear_2007_3445)" stroke-width="1.5" stroke-linecap="round"/>
<path opacity="0.08" d="M-424 571.94C-140.167 -101.854 143.667 -239.167 427.5 160C711.333 559.166 995.167 696.48 1279 571.94" stroke="url(#paint1_linear_2007_3445)" stroke-width="1.5" stroke-linecap="round"/>
<path opacity="0.11" d="M-424 543.2C-140.167 -111.433 143.667 -239.167 427.5 160C711.333 559.167 995.167 686.9 1279 543.2" stroke="url(#paint2_linear_2007_3445)" stroke-width="1.5" stroke-linecap="round"/>
<path opacity="0.14" d="M-424 514.46C-140.167 -121.014 143.667 -239.167 427.5 160C711.333 559.166 995.167 677.32 1279 514.46" stroke="url(#paint3_linear_2007_3445)" stroke-width="1.5" stroke-linecap="round"/>
<path opacity="0.17" d="M-424 485.72C-140.167 -130.594 143.667 -239.167 427.5 160C711.333 559.166 995.167 667.74 1279 485.72" stroke="url(#paint4_linear_2007_3445)" stroke-width="1.5" stroke-linecap="round"/>
<path opacity="0.2" d="M-424 456.98C-140.167 -140.173 143.667 -239.167 427.5 160C711.333 559.167 995.167 658.16 1279 456.98" stroke="url(#paint5_linear_2007_3445)" stroke-width="1.5" stroke-linecap="round"/>
<path opacity="0.23" d="M-424 428.24C-140.167 -149.753 143.667 -239.167 427.5 160C711.333 559.167 995.167 648.58 1279 428.24" stroke="url(#paint6_linear_2007_3445)" stroke-width="1.5" stroke-linecap="round"/>
<path opacity="0.26" d="M-424 399.5C-140.167 -159.333 143.667 -239.167 427.5 160C711.333 559.167 995.167 639 1279 399.5" stroke="url(#paint7_linear_2007_3445)" stroke-width="1.5" stroke-linecap="round"/>
<path opacity="0.3" d="M-424 370.76C-140.167 -168.914 143.667 -239.167 427.5 160C711.333 559.166 995.167 629.42 1279 370.76" stroke="url(#paint8_linear_2007_3445)" stroke-width="1.5" stroke-linecap="round"/>
<path opacity="0.33" d="M-424 342.02C-140.167 -178.493 143.667 -239.167 427.5 160C711.333 559.167 995.167 619.84 1279 342.02" stroke="url(#paint9_linear_2007_3445)" stroke-width="1.5" stroke-linecap="round"/>
<path opacity="0.36" d="M-424 313.28C-140.167 -188.073 143.667 -239.167 427.5 160C711.333 559.167 995.167 610.26 1279 313.28" stroke="url(#paint10_linear_2007_3445)" stroke-width="1.5" stroke-linecap="round"/>
<path opacity="0.39" d="M-424 284.54C-140.167 -197.653 143.667 -239.167 427.5 160C711.333 559.167 995.167 600.68 1279 284.54" stroke="url(#paint11_linear_2007_3445)" stroke-width="1.5" stroke-linecap="round"/>
<path opacity="0.42" d="M-424 255.8C-140.167 -207.233 143.667 -239.167 427.5 160C711.333 559.166 995.167 591.1 1279 255.8" stroke="url(#paint12_linear_2007_3445)" stroke-width="1.5" stroke-linecap="round"/>
<path opacity="0.45" d="M-424 227.06C-140.167 -216.813 143.667 -239.167 427.5 160C711.333 559.167 995.167 581.52 1279 227.06" stroke="url(#paint13_linear_2007_3445)" stroke-width="1.5" stroke-linecap="round"/>
<path opacity="0.48" d="M-424 198.32C-140.167 -226.394 143.667 -239.167 427.5 160C711.333 559.166 995.167 571.94 1279 198.32" stroke="url(#paint14_linear_2007_3445)" stroke-width="1.5" stroke-linecap="round"/>
<path opacity="0.51" d="M-424 169.58C-140.167 -235.973 143.667 -239.167 427.5 160C711.333 559.167 995.167 562.36 1279 169.58" stroke="url(#paint15_linear_2007_3445)" stroke-width="1.5" stroke-linecap="round"/>
<path opacity="0.54" d="M-424 140.84C-140.167 -245.554 143.667 -239.167 427.5 160C711.333 559.166 995.167 552.78 1279 140.84" stroke="url(#paint16_linear_2007_3445)" stroke-width="1.5" stroke-linecap="round"/>
<path opacity="0.57" d="M-424 112.1C-140.167 -255.133 143.667 -239.167 427.5 160C711.333 559.166 995.167 543.2 1279 112.1" stroke="url(#paint17_linear_2007_3445)" stroke-width="1.5" stroke-linecap="round"/>
<path opacity="0.6" d="M-424 83.3598C-140.167 -264.713 143.667 -239.167 427.5 160C711.333 559.166 995.167 533.62 1279 83.3598" stroke="url(#paint18_linear_2007_3445)" stroke-width="1.5" stroke-linecap="round"/>
<path opacity="0.63" d="M-424 54.6198C-140.167 -274.293 143.667 -239.167 427.5 160C711.333 559.167 995.167 524.04 1279 54.6198" stroke="url(#paint19_linear_2007_3445)" stroke-width="1.5" stroke-linecap="round"/>
<path opacity="0.66" d="M-424 25.8797C-140.167 -283.874 143.667 -239.167 427.5 160C711.333 559.166 995.167 514.46 1279 25.8797" stroke="url(#paint20_linear_2007_3445)" stroke-width="1.5" stroke-linecap="round"/>
<path opacity="0.69" d="M-424 -2.86016C-140.167 -293.454 143.667 -239.167 427.5 160C711.333 559.167 995.167 504.88 1279 -2.86016" stroke="url(#paint21_linear_2007_3445)" stroke-width="1.5" stroke-linecap="round"/>
<path opacity="0.72" d="M-424 -31.6001C-140.167 -303.033 143.667 -239.167 427.5 160C711.333 559.167 995.167 495.3 1279 -31.6001" stroke="url(#paint22_linear_2007_3445)" stroke-width="1.5" stroke-linecap="round"/>
<path opacity="0.75" d="M-424 -60.3402C-140.167 -312.614 143.667 -239.167 427.5 160C711.333 559.166 995.167 485.72 1279 -60.3402" stroke="url(#paint23_linear_2007_3445)" stroke-width="1.5" stroke-linecap="round"/>
<path opacity="0.79" d="M-424 -89.0803C-140.167 -322.194 143.667 -239.167 427.5 160C711.333 559.166 995.167 476.14 1279 -89.0803" stroke="url(#paint24_linear_2007_3445)" stroke-width="1.5" stroke-linecap="round"/>
<path opacity="0.82" d="M-424 -117.82C-140.167 -331.774 143.667 -239.167 427.5 160C711.333 559.166 995.167 466.56 1279 -117.82" stroke="url(#paint25_linear_2007_3445)" stroke-width="1.5" stroke-linecap="round"/>
<path opacity="0.85" d="M-424 -146.56C-140.167 -341.353 143.667 -239.167 427.5 160C711.333 559.167 995.167 456.98 1279 -146.56" stroke="url(#paint26_linear_2007_3445)" stroke-width="1.5" stroke-linecap="round"/>
<path opacity="0.88" d="M-424 -175.3C-140.167 -350.934 143.667 -239.167 427.5 160C711.333 559.166 995.167 447.4 1279 -175.3" stroke="url(#paint27_linear_2007_3445)" stroke-width="1.5" stroke-linecap="round"/>
<path opacity="0.91" d="M-424 -204.04C-140.167 -360.514 143.667 -239.167 427.5 160C711.333 559.166 995.167 437.82 1279 -204.04" stroke="url(#paint28_linear_2007_3445)" stroke-width="1.5" stroke-linecap="round"/>
<path opacity="0.94" d="M-424 -232.78C-140.167 -370.093 143.667 -239.167 427.5 160C711.333 559.167 995.167 428.24 1279 -232.78" stroke="url(#paint29_linear_2007_3445)" stroke-width="1.5" stroke-linecap="round"/>
<path opacity="0.97" d="M-424 -261.52C-140.167 -379.673 143.667 -239.167 427.5 160C711.333 559.167 995.167 418.66 1279 -261.52" stroke="url(#paint30_linear_2007_3445)" stroke-width="1.5" stroke-linecap="round"/>
</g>
<g opacity="0.5" clip-path="url(#clip1_2007_3445)">
<path opacity="0.05" d="M846.006 1749.71C556.715 1059.02 653.546 754.447 1136.5 836C1619.45 917.553 1924.02 820.722 2050.21 545.506" stroke="url(#paint31_linear_2007_3445)" stroke-width="1.5" stroke-linecap="round"/>
<path opacity="0.08" d="M825.684 1729.39C549.94 1052.24 653.546 754.447 1136.5 836C1619.45 917.553 1917.25 813.948 2029.89 525.184" stroke="url(#paint32_linear_2007_3445)" stroke-width="1.5" stroke-linecap="round"/>
<path opacity="0.11" d="M805.361 1709.06C543.166 1045.47 653.545 754.447 1136.5 836C1619.45 917.553 1910.47 807.174 2009.56 504.862" stroke="url(#paint33_linear_2007_3445)" stroke-width="1.5" stroke-linecap="round"/>
<path opacity="0.14" d="M785.039 1688.74C536.392 1038.69 653.545 754.447 1136.5 836C1619.45 917.553 1903.7 800.4 1989.24 484.54" stroke="url(#paint34_linear_2007_3445)" stroke-width="1.5" stroke-linecap="round"/>
<path opacity="0.17" d="M764.716 1668.42C529.618 1031.92 653.545 754.447 1136.5 836C1619.45 917.553 1896.93 793.626 1968.92 464.218" stroke="url(#paint35_linear_2007_3445)" stroke-width="1.5" stroke-linecap="round"/>
<path opacity="0.2" d="M744.394 1648.1C522.844 1025.15 653.545 754.447 1136.5 836C1619.45 917.553 1890.15 786.851 1948.6 443.895" stroke="url(#paint36_linear_2007_3445)" stroke-width="1.5" stroke-linecap="round"/>
<path opacity="0.23" d="M724.072 1627.78C516.069 1018.37 653.545 754.447 1136.5 836C1619.45 917.553 1883.38 780.077 1928.27 423.573" stroke="url(#paint37_linear_2007_3445)" stroke-width="1.5" stroke-linecap="round"/>
<path opacity="0.26" d="M703.75 1607.45C509.295 1011.6 653.545 754.447 1136.5 836C1619.45 917.553 1876.6 773.303 1907.95 403.251" stroke="url(#paint38_linear_2007_3445)" stroke-width="1.5" stroke-linecap="round"/>
<path opacity="0.3" d="M683.428 1587.13C502.522 1004.82 653.546 754.447 1136.5 836C1619.45 917.553 1869.83 766.529 1887.63 382.928" stroke="url(#paint39_linear_2007_3445)" stroke-width="1.5" stroke-linecap="round"/>
<path opacity="0.33" d="M663.106 1566.81C495.748 998.05 653.546 754.447 1136.5 836C1619.45 917.553 1863.06 759.755 1867.31 362.606" stroke="url(#paint40_linear_2007_3445)" stroke-width="1.5" stroke-linecap="round"/>
<path opacity="0.36" d="M642.783 1546.49C488.973 991.276 653.545 754.447 1136.5 836C1619.45 917.553 1856.28 752.981 1846.99 342.284" stroke="url(#paint41_linear_2007_3445)" stroke-width="1.5" stroke-linecap="round"/>
<path opacity="0.39" d="M622.461 1526.16C482.199 984.502 653.545 754.447 1136.5 836C1619.45 917.553 1849.51 746.207 1826.66 321.962" stroke="url(#paint42_linear_2007_3445)" stroke-width="1.5" stroke-linecap="round"/>
<path opacity="0.42" d="M602.139 1505.84C475.425 977.728 653.545 754.447 1136.5 836C1619.45 917.553 1842.73 739.433 1806.34 301.639" stroke="url(#paint43_linear_2007_3445)" stroke-width="1.5" stroke-linecap="round"/>
<path opacity="0.45" d="M581.816 1485.52C468.651 970.954 653.545 754.447 1136.5 836C1619.45 917.553 1835.96 732.659 1786.02 281.317" stroke="url(#paint44_linear_2007_3445)" stroke-width="1.5" stroke-linecap="round"/>
<path opacity="0.48" d="M561.495 1465.2C461.878 964.18 653.546 754.447 1136.5 836C1619.45 917.553 1829.19 725.885 1765.7 260.995" stroke="url(#paint45_linear_2007_3445)" stroke-width="1.5" stroke-linecap="round"/>
<path opacity="0.51" d="M541.172 1444.88C455.103 957.405 653.545 754.447 1136.5 836C1619.45 917.553 1822.41 719.11 1745.37 240.673" stroke="url(#paint46_linear_2007_3445)" stroke-width="1.5" stroke-linecap="round"/>
<path opacity="0.54" d="M520.85 1424.55C448.329 950.631 653.545 754.447 1136.5 836C1619.45 917.553 1815.64 712.337 1725.05 220.35" stroke="url(#paint47_linear_2007_3445)" stroke-width="1.5" stroke-linecap="round"/>
<path opacity="0.57" d="M500.528 1404.23C441.555 943.857 653.546 754.447 1136.5 836C1619.45 917.553 1808.86 705.562 1704.73 200.028" stroke="url(#paint48_linear_2007_3445)" stroke-width="1.5" stroke-linecap="round"/>
<path opacity="0.6" d="M480.205 1383.91C434.781 937.083 653.545 754.447 1136.5 836C1619.45 917.553 1802.09 698.788 1684.41 179.706" stroke="url(#paint49_linear_2007_3445)" stroke-width="1.5" stroke-linecap="round"/>
<path opacity="0.63" d="M459.883 1363.59C428.006 930.309 653.545 754.447 1136.5 836C1619.45 917.553 1795.32 692.014 1664.09 159.384" stroke="url(#paint50_linear_2007_3445)" stroke-width="1.5" stroke-linecap="round"/>
<path opacity="0.66" d="M439.561 1343.26C421.233 923.535 653.546 754.447 1136.5 836C1619.45 917.553 1788.54 685.24 1643.76 139.061" stroke="url(#paint51_linear_2007_3445)" stroke-width="1.5" stroke-linecap="round"/>
<path opacity="0.69" d="M419.239 1322.94C414.459 916.761 653.546 754.447 1136.5 836C1619.45 917.553 1781.77 678.466 1623.44 118.739" stroke="url(#paint52_linear_2007_3445)" stroke-width="1.5" stroke-linecap="round"/>
<path opacity="0.72" d="M398.916 1302.62C407.684 909.987 653.545 754.447 1136.5 836C1619.45 917.553 1774.99 671.692 1603.12 98.4169" stroke="url(#paint53_linear_2007_3445)" stroke-width="1.5" stroke-linecap="round"/>
<path opacity="0.75" d="M378.594 1282.3C400.91 903.213 653.545 754.447 1136.5 836C1619.45 917.553 1768.22 664.918 1582.8 78.0947" stroke="url(#paint54_linear_2007_3445)" stroke-width="1.5" stroke-linecap="round"/>
<path opacity="0.79" d="M358.272 1261.98C394.136 896.439 653.545 754.447 1136.5 836C1619.45 917.553 1761.44 658.144 1562.47 57.7725" stroke="url(#paint55_linear_2007_3445)" stroke-width="1.5" stroke-linecap="round"/>
<path opacity="0.82" d="M337.949 1241.65C387.362 889.665 653.545 754.447 1136.5 836C1619.45 917.553 1754.67 651.37 1542.15 37.4503" stroke="url(#paint56_linear_2007_3445)" stroke-width="1.5" stroke-linecap="round"/>
<path opacity="0.85" d="M317.627 1221.33C380.588 882.891 653.545 754.447 1136.5 836C1619.45 917.553 1747.9 644.596 1521.83 17.128" stroke="url(#paint57_linear_2007_3445)" stroke-width="1.5" stroke-linecap="round"/>
<path opacity="0.88" d="M297.305 1201.01C373.814 876.117 653.545 754.447 1136.5 836C1619.45 917.553 1741.12 637.822 1501.51 -3.19425" stroke="url(#paint58_linear_2007_3445)" stroke-width="1.5" stroke-linecap="round"/>
<path opacity="0.91" d="M276.983 1180.69C367.04 869.343 653.546 754.447 1136.5 836C1619.45 917.553 1734.35 631.048 1481.19 -23.5163" stroke="url(#paint59_linear_2007_3445)" stroke-width="1.5" stroke-linecap="round"/>
<path opacity="0.94" d="M256.66 1160.36C360.266 862.568 653.545 754.447 1136.5 836C1619.45 917.553 1727.57 624.273 1460.86 -43.8387" stroke="url(#paint60_linear_2007_3445)" stroke-width="1.5" stroke-linecap="round"/>
<path opacity="0.97" d="M236.338 1140.04C353.492 855.795 653.546 754.447 1136.5 836C1619.45 917.553 1720.8 617.5 1440.54 -64.1607" stroke="url(#paint61_linear_2007_3445)" stroke-width="1.5" stroke-linecap="round"/>
</g>
<g opacity="0.6" clip-path="url(#clip2_2007_3445)" filter="url(#filter0_f_2007_3445)">
<path d="M-50.1245 385.032L185.375 280.022L56.4994 -9.0002L-179 96.0096L-50.1245 385.032Z" fill="url(#paint62_radial_2007_3445)"/>
</g>
<defs>
<filter id="filter0_f_2007_3445" x="-319" y="-149" width="644.375" height="674.032" filterUnits="userSpaceOnUse" color-interpolation-filters="sRGB">
<feFlood flood-opacity="0" result="BackgroundImageFix"/>
<feBlend mode="normal" in="SourceGraphic" in2="BackgroundImageFix" result="shape"/>
<feGaussianBlur stdDeviation="70" result="effect1_foregroundBlur_2007_3445"/>
</filter>
<linearGradient id="paint0_linear_2007_3445" x1="84726" y1="-58.8413" x2="84726" y2="69194.8" gradientUnits="userSpaceOnUse">
<stop stop-color="#C3122F"/>
<stop offset="1" stop-color="#141414"/>
</linearGradient>
<linearGradient id="paint1_linear_2007_3445" x1="84726" y1="-62.7495" x2="84726" y2="67848.6" gradientUnits="userSpaceOnUse">
<stop stop-color="#C3122F"/>
<stop offset="1" stop-color="#141414"/>
</linearGradient>
<linearGradient id="paint2_linear_2007_3445" x1="84726" y1="-66.7993" x2="84726" y2="66638.9" gradientUnits="userSpaceOnUse">
<stop stop-color="#C3122F"/>
<stop offset="1" stop-color="#141414"/>
</linearGradient>
<linearGradient id="paint3_linear_2007_3445" x1="84726" y1="-70.9995" x2="84726" y2="65553.8" gradientUnits="userSpaceOnUse">
<stop stop-color="#C3122F"/>
<stop offset="1" stop-color="#141414"/>
</linearGradient>
<linearGradient id="paint4_linear_2007_3445" x1="84726" y1="-75.3579" x2="84726" y2="64583.4" gradientUnits="userSpaceOnUse">
<stop stop-color="#C3122F"/>
<stop offset="1" stop-color="#141414"/>
</linearGradient>
<linearGradient id="paint5_linear_2007_3445" x1="84726" y1="-79.8838" x2="84726" y2="63719" gradientUnits="userSpaceOnUse">
<stop stop-color="#C3122F"/>
<stop offset="1" stop-color="#141414"/>
</linearGradient>
<linearGradient id="paint6_linear_2007_3445" x1="84726" y1="-84.5874" x2="84726" y2="62953.4" gradientUnits="userSpaceOnUse">
<stop stop-color="#C3122F"/>
<stop offset="1" stop-color="#141414"/>
</linearGradient>
<linearGradient id="paint7_linear_2007_3445" x1="84726" y1="-89.479" x2="84726" y2="62280.3" gradientUnits="userSpaceOnUse">
<stop stop-color="#C3122F"/>
<stop offset="1" stop-color="#141414"/>
</linearGradient>
<linearGradient id="paint8_linear_2007_3445" x1="84726" y1="-94.5708" x2="84726" y2="61694.4" gradientUnits="userSpaceOnUse">
<stop stop-color="#C3122F"/>
<stop offset="1" stop-color="#141414"/>
</linearGradient>
<linearGradient id="paint9_linear_2007_3445" x1="84726" y1="-99.874" x2="84726" y2="61191.2" gradientUnits="userSpaceOnUse">
<stop stop-color="#C3122F"/>
<stop offset="1" stop-color="#141414"/>
</linearGradient>
<linearGradient id="paint10_linear_2007_3445" x1="84726" y1="-105.403" x2="84726" y2="60766.9" gradientUnits="userSpaceOnUse">
<stop stop-color="#C3122F"/>
<stop offset="1" stop-color="#141414"/>
</linearGradient>
<linearGradient id="paint11_linear_2007_3445" x1="84726" y1="-111.173" x2="84726" y2="60418.5" gradientUnits="userSpaceOnUse">
<stop stop-color="#C3122F"/>
<stop offset="1" stop-color="#141414"/>
</linearGradient>
<linearGradient id="paint12_linear_2007_3445" x1="84726" y1="-117.199" x2="84726" y2="60143.5" gradientUnits="userSpaceOnUse">
<stop stop-color="#C3122F"/>
<stop offset="1" stop-color="#141414"/>
</linearGradient>
<linearGradient id="paint13_linear_2007_3445" x1="84726" y1="-123.499" x2="84726" y2="59939.9" gradientUnits="userSpaceOnUse">
<stop stop-color="#C3122F"/>
<stop offset="1" stop-color="#141414"/>
</linearGradient>
<linearGradient id="paint14_linear_2007_3445" x1="84726" y1="-130.092" x2="84726" y2="59806.3" gradientUnits="userSpaceOnUse">
<stop stop-color="#C3122F"/>
<stop offset="1" stop-color="#141414"/>
</linearGradient>
<linearGradient id="paint15_linear_2007_3445" x1="84726" y1="-136.999" x2="84726" y2="59741.8" gradientUnits="userSpaceOnUse">
<stop stop-color="#C3122F"/>
<stop offset="1" stop-color="#141414"/>
</linearGradient>
<linearGradient id="paint16_linear_2007_3445" x1="84726" y1="-144.243" x2="84726" y2="59746.1" gradientUnits="userSpaceOnUse">
<stop stop-color="#C3122F"/>
<stop offset="1" stop-color="#141414"/>
</linearGradient>
<linearGradient id="paint17_linear_2007_3445" x1="84726" y1="-151.849" x2="84726" y2="59819.1" gradientUnits="userSpaceOnUse">
<stop stop-color="#C3122F"/>
<stop offset="1" stop-color="#141414"/>
</linearGradient>
<linearGradient id="paint18_linear_2007_3445" x1="84726" y1="-159.845" x2="84726" y2="59961.4" gradientUnits="userSpaceOnUse">
<stop stop-color="#C3122F"/>
<stop offset="1" stop-color="#141414"/>
</linearGradient>
<linearGradient id="paint19_linear_2007_3445" x1="84726" y1="-168.262" x2="84726" y2="60174" gradientUnits="userSpaceOnUse">
<stop stop-color="#C3122F"/>
<stop offset="1" stop-color="#141414"/>
</linearGradient>
<linearGradient id="paint20_linear_2007_3445" x1="84726" y1="-177.134" x2="84726" y2="60458.5" gradientUnits="userSpaceOnUse">
<stop stop-color="#C3122F"/>
<stop offset="1" stop-color="#141414"/>
</linearGradient>
<linearGradient id="paint21_linear_2007_3445" x1="84726" y1="-186.499" x2="84726" y2="60816.8" gradientUnits="userSpaceOnUse">
<stop stop-color="#C3122F"/>
<stop offset="1" stop-color="#141414"/>
</linearGradient>
<linearGradient id="paint22_linear_2007_3445" x1="84726" y1="-196.399" x2="84726" y2="61251.7" gradientUnits="userSpaceOnUse">
<stop stop-color="#C3122F"/>
<stop offset="1" stop-color="#141414"/>
</linearGradient>
<linearGradient id="paint23_linear_2007_3445" x1="84726" y1="-206.881" x2="84726" y2="61766.3" gradientUnits="userSpaceOnUse">
<stop stop-color="#C3122F"/>
<stop offset="1" stop-color="#141414"/>
</linearGradient>
<linearGradient id="paint24_linear_2007_3445" x1="84726" y1="-217.999" x2="84726" y2="62364.6" gradientUnits="userSpaceOnUse">
<stop stop-color="#C3122F"/>
<stop offset="1" stop-color="#141414"/>
</linearGradient>
<linearGradient id="paint25_linear_2007_3445" x1="84726" y1="-229.812" x2="84726" y2="63051.2" gradientUnits="userSpaceOnUse">
<stop stop-color="#C3122F"/>
<stop offset="1" stop-color="#141414"/>
</linearGradient>
<linearGradient id="paint26_linear_2007_3445" x1="84726" y1="-242.386" x2="84726" y2="63831.8" gradientUnits="userSpaceOnUse">
<stop stop-color="#C3122F"/>
<stop offset="1" stop-color="#141414"/>
</linearGradient>
<linearGradient id="paint27_linear_2007_3445" x1="84726" y1="-255.799" x2="84726" y2="64712.7" gradientUnits="userSpaceOnUse">
<stop stop-color="#C3122F"/>
<stop offset="1" stop-color="#141414"/>
</linearGradient>
<linearGradient id="paint28_linear_2007_3445" x1="84726" y1="-270.137" x2="84726" y2="65701.7" gradientUnits="userSpaceOnUse">
<stop stop-color="#C3122F"/>
<stop offset="1" stop-color="#141414"/>
</linearGradient>
<linearGradient id="paint29_linear_2007_3445" x1="84726" y1="-285.499" x2="84726" y2="66807.7" gradientUnits="userSpaceOnUse">
<stop stop-color="#C3122F"/>
<stop offset="1" stop-color="#141414"/>
</linearGradient>
<linearGradient id="paint30_linear_2007_3445" x1="84726" y1="-301.999" x2="84726" y2="68041" gradientUnits="userSpaceOnUse">
<stop stop-color="#C3122F"/>
<stop offset="1" stop-color="#141414"/>
</linearGradient>
<linearGradient id="paint31_linear_2007_3445" x1="60589.8" y1="-58926.8" x2="109559" y2="-9957.09" gradientUnits="userSpaceOnUse">
<stop stop-color="#C3122F"/>
<stop offset="1" stop-color="#141414"/>
</linearGradient>
<linearGradient id="paint32_linear_2007_3445" x1="60587" y1="-58929.5" x2="108608" y2="-10909" gradientUnits="userSpaceOnUse">
<stop stop-color="#C3122F"/>
<stop offset="1" stop-color="#141414"/>
</linearGradient>
<linearGradient id="paint33_linear_2007_3445" x1="60584.2" y1="-58932.4" x2="107752" y2="-11764.4" gradientUnits="userSpaceOnUse">
<stop stop-color="#C3122F"/>
<stop offset="1" stop-color="#141414"/>
</linearGradient>
<linearGradient id="paint34_linear_2007_3445" x1="60581.2" y1="-58935.4" x2="106985" y2="-12531.7" gradientUnits="userSpaceOnUse">
<stop stop-color="#C3122F"/>
<stop offset="1" stop-color="#141414"/>
</linearGradient>
<linearGradient id="paint35_linear_2007_3445" x1="60578.1" y1="-58938.5" x2="106299" y2="-13217.8" gradientUnits="userSpaceOnUse">
<stop stop-color="#C3122F"/>
<stop offset="1" stop-color="#141414"/>
</linearGradient>
<linearGradient id="paint36_linear_2007_3445" x1="60574.9" y1="-58941.7" x2="105688" y2="-13829" gradientUnits="userSpaceOnUse">
<stop stop-color="#C3122F"/>
<stop offset="1" stop-color="#141414"/>
</linearGradient>
<linearGradient id="paint37_linear_2007_3445" x1="60571.6" y1="-58945" x2="105146" y2="-14370.4" gradientUnits="userSpaceOnUse">
<stop stop-color="#C3122F"/>
<stop offset="1" stop-color="#141414"/>
</linearGradient>
<linearGradient id="paint38_linear_2007_3445" x1="60568.1" y1="-58948.4" x2="104670" y2="-14846.3" gradientUnits="userSpaceOnUse">
<stop stop-color="#C3122F"/>
<stop offset="1" stop-color="#141414"/>
</linearGradient>
<linearGradient id="paint39_linear_2007_3445" x1="60564.5" y1="-58952" x2="104256" y2="-15260.6" gradientUnits="userSpaceOnUse">
<stop stop-color="#C3122F"/>
<stop offset="1" stop-color="#141414"/>
</linearGradient>
<linearGradient id="paint40_linear_2007_3445" x1="60560.8" y1="-58955.8" x2="103900" y2="-15616.5" gradientUnits="userSpaceOnUse">
<stop stop-color="#C3122F"/>
<stop offset="1" stop-color="#141414"/>
</linearGradient>
<linearGradient id="paint41_linear_2007_3445" x1="60556.9" y1="-58959.7" x2="103600" y2="-15916.5" gradientUnits="userSpaceOnUse">
<stop stop-color="#C3122F"/>
<stop offset="1" stop-color="#141414"/>
</linearGradient>
<linearGradient id="paint42_linear_2007_3445" x1="60552.8" y1="-58963.8" x2="103354" y2="-16162.8" gradientUnits="userSpaceOnUse">
<stop stop-color="#C3122F"/>
<stop offset="1" stop-color="#141414"/>
</linearGradient>
<linearGradient id="paint43_linear_2007_3445" x1="60548.5" y1="-58968.1" x2="103159" y2="-16357.3" gradientUnits="userSpaceOnUse">
<stop stop-color="#C3122F"/>
<stop offset="1" stop-color="#141414"/>
</linearGradient>
<linearGradient id="paint44_linear_2007_3445" x1="60544.1" y1="-58972.5" x2="103015" y2="-16501.3" gradientUnits="userSpaceOnUse">
<stop stop-color="#C3122F"/>
<stop offset="1" stop-color="#141414"/>
</linearGradient>
<linearGradient id="paint45_linear_2007_3445" x1="60539.4" y1="-58977.2" x2="102921" y2="-16595.7" gradientUnits="userSpaceOnUse">
<stop stop-color="#C3122F"/>
<stop offset="1" stop-color="#141414"/>
</linearGradient>
<linearGradient id="paint46_linear_2007_3445" x1="60534.5" y1="-58982.1" x2="102875" y2="-16641.3" gradientUnits="userSpaceOnUse">
<stop stop-color="#C3122F"/>
<stop offset="1" stop-color="#141414"/>
</linearGradient>
<linearGradient id="paint47_linear_2007_3445" x1="60529.4" y1="-58987.2" x2="102878" y2="-16638.3" gradientUnits="userSpaceOnUse">
<stop stop-color="#C3122F"/>
<stop offset="1" stop-color="#141414"/>
</linearGradient>
<linearGradient id="paint48_linear_2007_3445" x1="60524" y1="-58992.6" x2="102930" y2="-16586.7" gradientUnits="userSpaceOnUse">
<stop stop-color="#C3122F"/>
<stop offset="1" stop-color="#141414"/>
</linearGradient>
<linearGradient id="paint49_linear_2007_3445" x1="60518.4" y1="-58998.2" x2="103031" y2="-16486.1" gradientUnits="userSpaceOnUse">
<stop stop-color="#C3122F"/>
<stop offset="1" stop-color="#141414"/>
</linearGradient>
<linearGradient id="paint50_linear_2007_3445" x1="60512.4" y1="-59004.2" x2="103181" y2="-16335.7" gradientUnits="userSpaceOnUse">
<stop stop-color="#C3122F"/>
<stop offset="1" stop-color="#141414"/>
</linearGradient>
<linearGradient id="paint51_linear_2007_3445" x1="60506.2" y1="-59010.4" x2="103382" y2="-16134.6" gradientUnits="userSpaceOnUse">
<stop stop-color="#C3122F"/>
<stop offset="1" stop-color="#141414"/>
</linearGradient>
<linearGradient id="paint52_linear_2007_3445" x1="60499.5" y1="-59017.1" x2="103635" y2="-15881.2" gradientUnits="userSpaceOnUse">
<stop stop-color="#C3122F"/>
<stop offset="1" stop-color="#141414"/>
</linearGradient>
<linearGradient id="paint53_linear_2007_3445" x1="60492.5" y1="-59024.1" x2="103943" y2="-15573.7" gradientUnits="userSpaceOnUse">
<stop stop-color="#C3122F"/>
<stop offset="1" stop-color="#141414"/>
</linearGradient>
<linearGradient id="paint54_linear_2007_3445" x1="60485.1" y1="-59031.5" x2="104307" y2="-15209.8" gradientUnits="userSpaceOnUse">
<stop stop-color="#C3122F"/>
<stop offset="1" stop-color="#141414"/>
</linearGradient>
<linearGradient id="paint55_linear_2007_3445" x1="60477.3" y1="-59039.3" x2="104730" y2="-14786.8" gradientUnits="userSpaceOnUse">
<stop stop-color="#C3122F"/>
<stop offset="1" stop-color="#141414"/>
</linearGradient>
<linearGradient id="paint56_linear_2007_3445" x1="60468.9" y1="-59047.7" x2="105215" y2="-14301.2" gradientUnits="userSpaceOnUse">
<stop stop-color="#C3122F"/>
<stop offset="1" stop-color="#141414"/>
</linearGradient>
<linearGradient id="paint57_linear_2007_3445" x1="60460" y1="-59056.6" x2="105767" y2="-13749.3" gradientUnits="userSpaceOnUse">
<stop stop-color="#C3122F"/>
<stop offset="1" stop-color="#141414"/>
</linearGradient>
<linearGradient id="paint58_linear_2007_3445" x1="60450.5" y1="-59066.1" x2="106390" y2="-13126.4" gradientUnits="userSpaceOnUse">
<stop stop-color="#C3122F"/>
<stop offset="1" stop-color="#141414"/>
</linearGradient>
<linearGradient id="paint59_linear_2007_3445" x1="60440.4" y1="-59076.2" x2="107090" y2="-12427" gradientUnits="userSpaceOnUse">
<stop stop-color="#C3122F"/>
<stop offset="1" stop-color="#141414"/>
</linearGradient>
<linearGradient id="paint60_linear_2007_3445" x1="60429.5" y1="-59087.1" x2="107872" y2="-11645" gradientUnits="userSpaceOnUse">
<stop stop-color="#C3122F"/>
<stop offset="1" stop-color="#141414"/>
</linearGradient>
<linearGradient id="paint61_linear_2007_3445" x1="60417.9" y1="-59098.7" x2="108744" y2="-10772.9" gradientUnits="userSpaceOnUse">
<stop stop-color="#C3122F"/>
<stop offset="1" stop-color="#141414"/>
</linearGradient>
<radialGradient id="paint62_radial_2007_3445" cx="0" cy="0" r="1" gradientUnits="userSpaceOnUse" gradientTransform="translate(3.18741 188.016) rotate(155.968) scale(567.272 696.197)">
<stop stop-color="#C3122F"/>
<stop offset="0.5" stop-color="#141414"/>
<stop offset="1" stop-color="#E0C5B8"/>
</radialGradient>
<clipPath id="clip0_2007_3445">
<rect width="1703" height="958" fill="white" transform="translate(-424 -319)"/>
</clipPath>
<clipPath id="clip1_2007_3445">
<rect width="1703" height="958" fill="white" transform="translate(195.694 1099.4) rotate(-45)"/>
</clipPath>
<clipPath id="clip2_2007_3445">
<rect width="257.851" height="316.453" fill="white" transform="translate(185.375 280.022) rotate(155.968)"/>
</clipPath>
</defs>
</svg>
