<svg width="90" height="51" viewBox="0 0 90 51" fill="none" xmlns="http://www.w3.org/2000/svg">
<g filter="url(#filter0_i_4020_3670)">
<path fillRule="evenodd" clipRule="evenodd" d="M65 10.0239C62.3695 10.0239 59.9251 10.6925 57.797 11.8612C50.1292 16.0721 39.8708 16.0721 32.203 11.8612C30.0749 10.6925 27.6305 10.0239 25 10.0239C16.7157 10.0239 10 16.7397 10 25.0239C10 33.3082 16.7157 40.0239 25 40.0239C27.6305 40.0239 30.0749 39.3554 32.203 38.1866C39.8708 33.9757 50.1292 33.9757 57.797 38.1866C59.9251 39.3553 62.3695 40.0239 65 40.0239C73.2843 40.0239 80 33.3082 80 25.0239C80 16.7397 73.2843 10.0239 65 10.0239ZM52.9834 3.09598C48.3135 5.66052 41.6865 5.66052 37.0166 3.09598C33.4507 1.1377 29.3554 0.0239245 25 0.0239247C11.1929 0.0239253 -1.69631e-06 11.2168 -1.09278e-06 25.0239C-4.89256e-07 38.831 11.1929 50.0239 25 50.0239C29.3554 50.0239 33.4507 48.9101 37.0166 46.9519C41.6865 44.3873 48.3135 44.3873 52.9834 46.9519C56.5493 48.9101 60.6446 50.0239 65 50.0239C78.8071 50.0239 90 38.831 90 25.0239C90 11.2168 78.8071 0.0239223 65 0.0239229C60.6446 0.0239231 56.5493 1.1377 52.9834 3.09598Z" fill="#020100"/>
</g>
<defs>
<filter id="filter0_i_4020_3670" x="0" y="0.0239258" width="90" height="54" filterUnits="userSpaceOnUse" colorInterpolationFilters="sRGB">
<feFlood floodOpacity="0" result="BackgroundImageFix"/>
<feBlend mode="normal" in="SourceGraphic" in2="BackgroundImageFix" result="shape"/>
<feColorMatrix in="SourceAlpha" type="matrix" values="0 0 0 0 0 0 0 0 0 0 0 0 0 0 0 0 0 0 127 0" result="hardAlpha"/>
<feOffset dy="4"/>
<feGaussianBlur stdDeviation="2"/>
<feComposite in2="hardAlpha" operator="arithmetic" k2="-1" k3="1"/>
<feColorMatrix type="matrix" values="0 0 0 0 0.616207 0 0 0 0 0.616207 0 0 0 0 0.616207 0 0 0 0.25 0"/>
<feBlend mode="normal" in2="shape" result="effect1_innerShadow_4020_3670"/>
</filter>
</defs>
</svg>
