<svg width="24" height="24" viewBox="0 0 24 24" fill="none" xmlns="http://www.w3.org/2000/svg">
<path d="M20.4705 1.9999H3.53055C3.34013 1.99725 3.15105 2.03214 2.97411 2.10258C2.79718 2.17302 2.63585 2.27762 2.49934 2.41041C2.36284 2.5432 2.25383 2.70158 2.17854 2.87651C2.10325 3.05143 2.06316 3.23947 2.06055 3.4299V20.5699C2.06316 20.7603 2.10325 20.9484 2.17854 21.1233C2.25383 21.2982 2.36284 21.4566 2.49934 21.5894C2.63585 21.7222 2.79718 21.8268 2.97411 21.8972C3.15105 21.9676 3.34013 22.0025 3.53055 21.9999H20.4705C20.661 22.0025 20.85 21.9676 21.027 21.8972C21.2039 21.8268 21.3652 21.7222 21.5017 21.5894C21.6383 21.4566 21.7473 21.2982 21.8226 21.1233C21.8978 20.9484 21.9379 20.7603 21.9405 20.5699V3.4299C21.9379 3.23947 21.8978 3.05143 21.8226 2.87651C21.7473 2.70158 21.6383 2.5432 21.5017 2.41041C21.3652 2.27762 21.2039 2.17302 21.027 2.10258C20.85 2.03214 20.661 1.99725 20.4705 1.9999ZM8.09055 18.7399H5.09055V9.7399H8.09055V18.7399ZM6.59055 8.4799C6.17681 8.4799 5.78002 8.31554 5.48746 8.02298C5.1949 7.73043 5.03055 7.33363 5.03055 6.9199C5.03055 6.50616 5.1949 6.10937 5.48746 5.81681C5.78002 5.52425 6.17681 5.3599 6.59055 5.3599C6.81024 5.33498 7.03272 5.35675 7.24342 5.42378C7.45412 5.49081 7.64829 5.60159 7.8132 5.74886C7.97812 5.89613 8.11007 6.07657 8.20042 6.27838C8.29076 6.48018 8.33746 6.69879 8.33746 6.9199C8.33746 7.141 8.29076 7.35961 8.20042 7.56141C8.11007 7.76322 7.97812 7.94366 7.8132 8.09093C7.64829 8.23821 7.45412 8.34898 7.24342 8.41601C7.03272 8.48304 6.81024 8.50481 6.59055 8.4799ZM18.9105 18.7399H15.9105V13.9099C15.9105 12.6999 15.4805 11.9099 14.3905 11.9099C14.0532 11.9124 13.7247 12.0182 13.4494 12.2131C13.174 12.408 12.965 12.6826 12.8505 12.9999C12.7723 13.2349 12.7384 13.4825 12.7505 13.7299V18.7299H9.75055C9.75055 18.7299 9.75055 10.5499 9.75055 9.7299H12.7505V10.9999C13.0231 10.527 13.4195 10.1374 13.897 9.8731C14.3745 9.60878 14.9151 9.47975 15.4605 9.4999C17.4605 9.4999 18.9105 10.7899 18.9105 13.5599V18.7399Z" fill="#F0F0F0"/>
</svg>
