<svg width="1440" height="1777" viewBox="0 0 1440 1777" fill="none" xmlns="http://www.w3.org/2000/svg">
<g opacity="0.5" clip-path="url(#clip0_2007_4377)">
<path opacity="0.05" d="M-240 600.68C43.8333 -92.2733 327.667 -239.167 611.5 160C895.333 559.167 1179.17 706.06 1463 600.68" stroke="url(#paint0_linear_2007_4377)" stroke-width="1.5" stroke-linecap="round"/>
<path opacity="0.08" d="M-240 571.94C43.8333 -101.854 327.667 -239.167 611.5 160C895.333 559.166 1179.17 696.48 1463 571.94" stroke="url(#paint1_linear_2007_4377)" stroke-width="1.5" stroke-linecap="round"/>
<path opacity="0.11" d="M-240 543.2C43.8333 -111.433 327.667 -239.167 611.5 160C895.333 559.167 1179.17 686.9 1463 543.2" stroke="url(#paint2_linear_2007_4377)" stroke-width="1.5" stroke-linecap="round"/>
<path opacity="0.14" d="M-240 514.46C43.8333 -121.014 327.667 -239.167 611.5 160C895.333 559.166 1179.17 677.32 1463 514.46" stroke="url(#paint3_linear_2007_4377)" stroke-width="1.5" stroke-linecap="round"/>
<path opacity="0.17" d="M-240 485.72C43.8333 -130.594 327.667 -239.167 611.5 160C895.333 559.166 1179.17 667.74 1463 485.72" stroke="url(#paint4_linear_2007_4377)" stroke-width="1.5" stroke-linecap="round"/>
<path opacity="0.2" d="M-240 456.98C43.8333 -140.173 327.667 -239.167 611.5 160C895.333 559.167 1179.17 658.16 1463 456.98" stroke="url(#paint5_linear_2007_4377)" stroke-width="1.5" stroke-linecap="round"/>
<path opacity="0.23" d="M-240 428.24C43.8333 -149.753 327.667 -239.167 611.5 160C895.333 559.167 1179.17 648.58 1463 428.24" stroke="url(#paint6_linear_2007_4377)" stroke-width="1.5" stroke-linecap="round"/>
<path opacity="0.26" d="M-240 399.5C43.8333 -159.333 327.667 -239.167 611.5 160C895.333 559.167 1179.17 639 1463 399.5" stroke="url(#paint7_linear_2007_4377)" stroke-width="1.5" stroke-linecap="round"/>
<path opacity="0.3" d="M-240 370.76C43.8333 -168.914 327.667 -239.167 611.5 160C895.333 559.166 1179.17 629.42 1463 370.76" stroke="url(#paint8_linear_2007_4377)" stroke-width="1.5" stroke-linecap="round"/>
<path opacity="0.33" d="M-240 342.02C43.8333 -178.493 327.667 -239.167 611.5 160C895.333 559.167 1179.17 619.84 1463 342.02" stroke="url(#paint9_linear_2007_4377)" stroke-width="1.5" stroke-linecap="round"/>
<path opacity="0.36" d="M-240 313.28C43.8333 -188.073 327.667 -239.167 611.5 160C895.333 559.167 1179.17 610.26 1463 313.28" stroke="url(#paint10_linear_2007_4377)" stroke-width="1.5" stroke-linecap="round"/>
<path opacity="0.39" d="M-240 284.54C43.8333 -197.653 327.667 -239.167 611.5 160C895.333 559.167 1179.17 600.68 1463 284.54" stroke="url(#paint11_linear_2007_4377)" stroke-width="1.5" stroke-linecap="round"/>
<path opacity="0.42" d="M-240 255.8C43.8333 -207.233 327.667 -239.167 611.5 160C895.333 559.166 1179.17 591.1 1463 255.8" stroke="url(#paint12_linear_2007_4377)" stroke-width="1.5" stroke-linecap="round"/>
<path opacity="0.45" d="M-240 227.06C43.8333 -216.813 327.667 -239.167 611.5 160C895.333 559.167 1179.17 581.52 1463 227.06" stroke="url(#paint13_linear_2007_4377)" stroke-width="1.5" stroke-linecap="round"/>
<path opacity="0.48" d="M-240 198.32C43.8333 -226.394 327.667 -239.167 611.5 160C895.333 559.166 1179.17 571.94 1463 198.32" stroke="url(#paint14_linear_2007_4377)" stroke-width="1.5" stroke-linecap="round"/>
<path opacity="0.51" d="M-240 169.58C43.8333 -235.973 327.667 -239.167 611.5 160C895.333 559.167 1179.17 562.36 1463 169.58" stroke="url(#paint15_linear_2007_4377)" stroke-width="1.5" stroke-linecap="round"/>
<path opacity="0.54" d="M-240 140.84C43.8333 -245.554 327.667 -239.167 611.5 160C895.333 559.166 1179.17 552.78 1463 140.84" stroke="url(#paint16_linear_2007_4377)" stroke-width="1.5" stroke-linecap="round"/>
<path opacity="0.57" d="M-240 112.1C43.8333 -255.133 327.667 -239.167 611.5 160C895.333 559.166 1179.17 543.2 1463 112.1" stroke="url(#paint17_linear_2007_4377)" stroke-width="1.5" stroke-linecap="round"/>
<path opacity="0.6" d="M-240 83.3598C43.8333 -264.713 327.667 -239.167 611.5 160C895.333 559.166 1179.17 533.62 1463 83.3598" stroke="url(#paint18_linear_2007_4377)" stroke-width="1.5" stroke-linecap="round"/>
<path opacity="0.63" d="M-240 54.6198C43.8333 -274.293 327.667 -239.167 611.5 160C895.333 559.167 1179.17 524.04 1463 54.6198" stroke="url(#paint19_linear_2007_4377)" stroke-width="1.5" stroke-linecap="round"/>
<path opacity="0.66" d="M-240 25.8797C43.8333 -283.874 327.667 -239.167 611.5 160C895.333 559.166 1179.17 514.46 1463 25.8797" stroke="url(#paint20_linear_2007_4377)" stroke-width="1.5" stroke-linecap="round"/>
<path opacity="0.69" d="M-240 -2.86016C43.8333 -293.454 327.667 -239.167 611.5 160C895.333 559.167 1179.17 504.88 1463 -2.86016" stroke="url(#paint21_linear_2007_4377)" stroke-width="1.5" stroke-linecap="round"/>
<path opacity="0.72" d="M-240 -31.6001C43.8333 -303.033 327.667 -239.167 611.5 160C895.333 559.167 1179.17 495.3 1463 -31.6001" stroke="url(#paint22_linear_2007_4377)" stroke-width="1.5" stroke-linecap="round"/>
<path opacity="0.75" d="M-240 -60.3402C43.8333 -312.614 327.667 -239.167 611.5 160C895.333 559.166 1179.17 485.72 1463 -60.3402" stroke="url(#paint23_linear_2007_4377)" stroke-width="1.5" stroke-linecap="round"/>
<path opacity="0.79" d="M-240 -89.0803C43.8333 -322.194 327.667 -239.167 611.5 160C895.333 559.166 1179.17 476.14 1463 -89.0803" stroke="url(#paint24_linear_2007_4377)" stroke-width="1.5" stroke-linecap="round"/>
<path opacity="0.82" d="M-240 -117.82C43.8333 -331.774 327.667 -239.167 611.5 160C895.333 559.166 1179.17 466.56 1463 -117.82" stroke="url(#paint25_linear_2007_4377)" stroke-width="1.5" stroke-linecap="round"/>
<path opacity="0.85" d="M-240 -146.56C43.8333 -341.353 327.667 -239.167 611.5 160C895.333 559.167 1179.17 456.98 1463 -146.56" stroke="url(#paint26_linear_2007_4377)" stroke-width="1.5" stroke-linecap="round"/>
<path opacity="0.88" d="M-240 -175.3C43.8333 -350.934 327.667 -239.167 611.5 160C895.333 559.166 1179.17 447.4 1463 -175.3" stroke="url(#paint27_linear_2007_4377)" stroke-width="1.5" stroke-linecap="round"/>
<path opacity="0.91" d="M-240 -204.04C43.8333 -360.514 327.667 -239.167 611.5 160C895.333 559.166 1179.17 437.82 1463 -204.04" stroke="url(#paint28_linear_2007_4377)" stroke-width="1.5" stroke-linecap="round"/>
<path opacity="0.94" d="M-240 -232.78C43.8333 -370.093 327.667 -239.167 611.5 160C895.333 559.167 1179.17 428.24 1463 -232.78" stroke="url(#paint29_linear_2007_4377)" stroke-width="1.5" stroke-linecap="round"/>
<path opacity="0.97" d="M-240 -261.52C43.8333 -379.673 327.667 -239.167 611.5 160C895.333 559.167 1179.17 418.66 1463 -261.52" stroke="url(#paint30_linear_2007_4377)" stroke-width="1.5" stroke-linecap="round"/>
</g>
<g opacity="0.5" clip-path="url(#clip1_2007_4377)">
<path opacity="0.05" d="M870.006 1749.71C580.714 1059.02 677.546 754.447 1160.5 836C1643.45 917.553 1948.02 820.722 2074.21 545.507" stroke="url(#paint31_linear_2007_4377)" stroke-width="1.5" stroke-linecap="round"/>
<path opacity="0.08" d="M849.684 1729.39C573.94 1052.24 677.546 754.447 1160.5 836C1643.45 917.553 1941.25 813.948 2053.89 525.185" stroke="url(#paint32_linear_2007_4377)" stroke-width="1.5" stroke-linecap="round"/>
<path opacity="0.11" d="M829.361 1709.07C567.166 1045.47 677.546 754.447 1160.5 836C1643.45 917.553 1934.48 807.174 2033.56 504.862" stroke="url(#paint33_linear_2007_4377)" stroke-width="1.5" stroke-linecap="round"/>
<path opacity="0.14" d="M809.039 1688.74C560.392 1038.69 677.546 754.447 1160.5 836C1643.45 917.553 1927.7 800.4 2013.24 484.54" stroke="url(#paint34_linear_2007_4377)" stroke-width="1.5" stroke-linecap="round"/>
<path opacity="0.17" d="M788.717 1668.42C553.618 1031.92 677.546 754.447 1160.5 836C1643.45 917.553 1920.93 793.626 1992.92 464.218" stroke="url(#paint35_linear_2007_4377)" stroke-width="1.5" stroke-linecap="round"/>
<path opacity="0.2" d="M768.394 1648.1C546.844 1025.15 677.545 754.447 1160.5 836C1643.45 917.553 1914.15 786.852 1972.6 443.896" stroke="url(#paint36_linear_2007_4377)" stroke-width="1.5" stroke-linecap="round"/>
<path opacity="0.23" d="M748.073 1627.78C540.07 1018.37 677.546 754.447 1160.5 836C1643.45 917.553 1907.38 780.078 1952.28 423.573" stroke="url(#paint37_linear_2007_4377)" stroke-width="1.5" stroke-linecap="round"/>
<path opacity="0.26" d="M727.75 1607.45C533.296 1011.6 677.546 754.447 1160.5 836C1643.45 917.553 1900.6 773.304 1931.95 403.251" stroke="url(#paint38_linear_2007_4377)" stroke-width="1.5" stroke-linecap="round"/>
<path opacity="0.3" d="M707.428 1587.13C526.522 1004.82 677.546 754.447 1160.5 836C1643.45 917.553 1893.83 766.529 1911.63 382.929" stroke="url(#paint39_linear_2007_4377)" stroke-width="1.5" stroke-linecap="round"/>
<path opacity="0.33" d="M687.105 1566.81C519.747 998.05 677.545 754.447 1160.5 836C1643.45 917.553 1887.06 759.755 1891.31 362.607" stroke="url(#paint40_linear_2007_4377)" stroke-width="1.5" stroke-linecap="round"/>
<path opacity="0.36" d="M666.783 1546.49C512.973 991.276 677.545 754.447 1160.5 836C1643.45 917.553 1880.28 752.981 1870.99 342.284" stroke="url(#paint41_linear_2007_4377)" stroke-width="1.5" stroke-linecap="round"/>
<path opacity="0.39" d="M646.461 1526.16C506.2 984.502 677.546 754.447 1160.5 836C1643.45 917.553 1873.51 746.207 1850.66 321.962" stroke="url(#paint42_linear_2007_4377)" stroke-width="1.5" stroke-linecap="round"/>
<path opacity="0.42" d="M626.139 1505.84C499.425 977.728 677.545 754.447 1160.5 836C1643.45 917.553 1866.73 739.433 1830.34 301.64" stroke="url(#paint43_linear_2007_4377)" stroke-width="1.5" stroke-linecap="round"/>
<path opacity="0.45" d="M605.817 1485.52C492.651 970.954 677.546 754.447 1160.5 836C1643.45 917.553 1859.96 732.659 1810.02 281.317" stroke="url(#paint44_linear_2007_4377)" stroke-width="1.5" stroke-linecap="round"/>
<path opacity="0.48" d="M585.494 1465.2C485.877 964.18 677.545 754.447 1160.5 836C1643.45 917.553 1853.19 725.885 1789.7 260.995" stroke="url(#paint45_linear_2007_4377)" stroke-width="1.5" stroke-linecap="round"/>
<path opacity="0.51" d="M565.172 1444.88C479.103 957.406 677.546 754.447 1160.5 836C1643.45 917.553 1846.41 719.111 1769.38 240.673" stroke="url(#paint46_linear_2007_4377)" stroke-width="1.5" stroke-linecap="round"/>
<path opacity="0.54" d="M544.85 1424.55C472.329 950.632 677.545 754.447 1160.5 836C1643.45 917.553 1839.64 712.337 1749.05 220.351" stroke="url(#paint47_linear_2007_4377)" stroke-width="1.5" stroke-linecap="round"/>
<path opacity="0.57" d="M524.528 1404.23C465.555 943.858 677.546 754.447 1160.5 836C1643.45 917.553 1832.86 705.563 1728.73 200.028" stroke="url(#paint48_linear_2007_4377)" stroke-width="1.5" stroke-linecap="round"/>
<path opacity="0.6" d="M504.205 1383.91C458.781 937.084 677.545 754.447 1160.5 836C1643.45 917.553 1826.09 698.788 1708.41 179.706" stroke="url(#paint49_linear_2007_4377)" stroke-width="1.5" stroke-linecap="round"/>
<path opacity="0.63" d="M483.883 1363.59C452.007 930.309 677.546 754.447 1160.5 836C1643.45 917.553 1819.32 692.015 1688.09 159.384" stroke="url(#paint50_linear_2007_4377)" stroke-width="1.5" stroke-linecap="round"/>
<path opacity="0.66" d="M463.561 1343.26C445.233 923.535 677.545 754.447 1160.5 836C1643.45 917.553 1812.54 685.24 1667.76 139.062" stroke="url(#paint51_linear_2007_4377)" stroke-width="1.5" stroke-linecap="round"/>
<path opacity="0.69" d="M443.239 1322.94C438.458 916.761 677.545 754.447 1160.5 836C1643.45 917.553 1805.77 678.466 1647.44 118.74" stroke="url(#paint52_linear_2007_4377)" stroke-width="1.5" stroke-linecap="round"/>
<path opacity="0.72" d="M422.917 1302.62C431.685 909.987 677.546 754.447 1160.5 836C1643.45 917.553 1798.99 671.692 1627.12 98.4172" stroke="url(#paint53_linear_2007_4377)" stroke-width="1.5" stroke-linecap="round"/>
<path opacity="0.75" d="M402.594 1282.3C424.911 903.213 677.546 754.447 1160.5 836C1643.45 917.553 1792.22 664.918 1606.8 78.0949" stroke="url(#paint54_linear_2007_4377)" stroke-width="1.5" stroke-linecap="round"/>
<path opacity="0.79" d="M382.272 1261.98C418.137 896.439 677.546 754.447 1160.5 836C1643.45 917.553 1785.45 658.144 1586.47 57.7727" stroke="url(#paint55_linear_2007_4377)" stroke-width="1.5" stroke-linecap="round"/>
<path opacity="0.82" d="M361.949 1241.65C411.362 889.665 677.545 754.447 1160.5 836C1643.45 917.553 1778.67 651.37 1566.15 37.4506" stroke="url(#paint56_linear_2007_4377)" stroke-width="1.5" stroke-linecap="round"/>
<path opacity="0.85" d="M341.627 1221.33C404.588 882.891 677.545 754.447 1160.5 836C1643.45 917.553 1771.9 644.596 1545.83 17.1283" stroke="url(#paint57_linear_2007_4377)" stroke-width="1.5" stroke-linecap="round"/>
<path opacity="0.88" d="M321.305 1201.01C397.814 876.117 677.546 754.447 1160.5 836C1643.45 917.553 1765.12 637.822 1525.51 -3.19401" stroke="url(#paint58_linear_2007_4377)" stroke-width="1.5" stroke-linecap="round"/>
<path opacity="0.91" d="M300.983 1180.69C391.04 869.343 677.545 754.447 1160.5 836C1643.45 917.553 1758.35 631.048 1505.19 -23.5163" stroke="url(#paint59_linear_2007_4377)" stroke-width="1.5" stroke-linecap="round"/>
<path opacity="0.94" d="M280.66 1160.36C384.266 862.568 677.545 754.447 1160.5 836C1643.45 917.553 1751.57 624.273 1484.86 -43.8387" stroke="url(#paint60_linear_2007_4377)" stroke-width="1.5" stroke-linecap="round"/>
<path opacity="0.97" d="M260.338 1140.04C377.492 855.795 677.546 754.447 1160.5 836C1643.45 917.553 1744.8 617.5 1464.54 -64.1607" stroke="url(#paint61_linear_2007_4377)" stroke-width="1.5" stroke-linecap="round"/>
</g>
<defs>
<linearGradient id="paint0_linear_2007_4377" x1="84910" y1="-58.8413" x2="84910" y2="69194.8" gradientUnits="userSpaceOnUse">
<stop stop-color="#C3122F"/>
<stop offset="1" stop-color="#E4E4E4"/>
</linearGradient>
<linearGradient id="paint1_linear_2007_4377" x1="84910" y1="-62.7495" x2="84910" y2="67848.6" gradientUnits="userSpaceOnUse">
<stop stop-color="#C3122F"/>
<stop offset="1" stop-color="#E4E4E4"/>
</linearGradient>
<linearGradient id="paint2_linear_2007_4377" x1="84910" y1="-66.7993" x2="84910" y2="66638.9" gradientUnits="userSpaceOnUse">
<stop stop-color="#C3122F"/>
<stop offset="1" stop-color="#E4E4E4"/>
</linearGradient>
<linearGradient id="paint3_linear_2007_4377" x1="84910" y1="-70.9995" x2="84910" y2="65553.8" gradientUnits="userSpaceOnUse">
<stop stop-color="#C3122F"/>
<stop offset="1" stop-color="#E4E4E4"/>
</linearGradient>
<linearGradient id="paint4_linear_2007_4377" x1="84910" y1="-75.3579" x2="84910" y2="64583.4" gradientUnits="userSpaceOnUse">
<stop stop-color="#C3122F"/>
<stop offset="1" stop-color="#E4E4E4"/>
</linearGradient>
<linearGradient id="paint5_linear_2007_4377" x1="84910" y1="-79.8838" x2="84910" y2="63719" gradientUnits="userSpaceOnUse">
<stop stop-color="#C3122F"/>
<stop offset="1" stop-color="#E4E4E4"/>
</linearGradient>
<linearGradient id="paint6_linear_2007_4377" x1="84910" y1="-84.5874" x2="84910" y2="62953.4" gradientUnits="userSpaceOnUse">
<stop stop-color="#C3122F"/>
<stop offset="1" stop-color="#E4E4E4"/>
</linearGradient>
<linearGradient id="paint7_linear_2007_4377" x1="84910" y1="-89.479" x2="84910" y2="62280.3" gradientUnits="userSpaceOnUse">
<stop stop-color="#C3122F"/>
<stop offset="1" stop-color="#E4E4E4"/>
</linearGradient>
<linearGradient id="paint8_linear_2007_4377" x1="84910" y1="-94.5708" x2="84910" y2="61694.4" gradientUnits="userSpaceOnUse">
<stop stop-color="#C3122F"/>
<stop offset="1" stop-color="#E4E4E4"/>
</linearGradient>
<linearGradient id="paint9_linear_2007_4377" x1="84910" y1="-99.874" x2="84910" y2="61191.2" gradientUnits="userSpaceOnUse">
<stop stop-color="#C3122F"/>
<stop offset="1" stop-color="#E4E4E4"/>
</linearGradient>
<linearGradient id="paint10_linear_2007_4377" x1="84910" y1="-105.403" x2="84910" y2="60766.9" gradientUnits="userSpaceOnUse">
<stop stop-color="#C3122F"/>
<stop offset="1" stop-color="#E4E4E4"/>
</linearGradient>
<linearGradient id="paint11_linear_2007_4377" x1="84910" y1="-111.173" x2="84910" y2="60418.5" gradientUnits="userSpaceOnUse">
<stop stop-color="#C3122F"/>
<stop offset="1" stop-color="#E4E4E4"/>
</linearGradient>
<linearGradient id="paint12_linear_2007_4377" x1="84910" y1="-117.199" x2="84910" y2="60143.5" gradientUnits="userSpaceOnUse">
<stop stop-color="#C3122F"/>
<stop offset="1" stop-color="#E4E4E4"/>
</linearGradient>
<linearGradient id="paint13_linear_2007_4377" x1="84910" y1="-123.499" x2="84910" y2="59939.9" gradientUnits="userSpaceOnUse">
<stop stop-color="#C3122F"/>
<stop offset="1" stop-color="#E4E4E4"/>
</linearGradient>
<linearGradient id="paint14_linear_2007_4377" x1="84910" y1="-130.092" x2="84910" y2="59806.3" gradientUnits="userSpaceOnUse">
<stop stop-color="#C3122F"/>
<stop offset="1" stop-color="#E4E4E4"/>
</linearGradient>
<linearGradient id="paint15_linear_2007_4377" x1="84910" y1="-136.999" x2="84910" y2="59741.8" gradientUnits="userSpaceOnUse">
<stop stop-color="#C3122F"/>
<stop offset="1" stop-color="#E4E4E4"/>
</linearGradient>
<linearGradient id="paint16_linear_2007_4377" x1="84910" y1="-144.243" x2="84910" y2="59746.1" gradientUnits="userSpaceOnUse">
<stop stop-color="#C3122F"/>
<stop offset="1" stop-color="#E4E4E4"/>
</linearGradient>
<linearGradient id="paint17_linear_2007_4377" x1="84910" y1="-151.849" x2="84910" y2="59819.1" gradientUnits="userSpaceOnUse">
<stop stop-color="#C3122F"/>
<stop offset="1" stop-color="#E4E4E4"/>
</linearGradient>
<linearGradient id="paint18_linear_2007_4377" x1="84910" y1="-159.845" x2="84910" y2="59961.4" gradientUnits="userSpaceOnUse">
<stop stop-color="#C3122F"/>
<stop offset="1" stop-color="#E4E4E4"/>
</linearGradient>
<linearGradient id="paint19_linear_2007_4377" x1="84910" y1="-168.262" x2="84910" y2="60174" gradientUnits="userSpaceOnUse">
<stop stop-color="#C3122F"/>
<stop offset="1" stop-color="#E4E4E4"/>
</linearGradient>
<linearGradient id="paint20_linear_2007_4377" x1="84910" y1="-177.134" x2="84910" y2="60458.5" gradientUnits="userSpaceOnUse">
<stop stop-color="#C3122F"/>
<stop offset="1" stop-color="#E4E4E4"/>
</linearGradient>
<linearGradient id="paint21_linear_2007_4377" x1="84910" y1="-186.499" x2="84910" y2="60816.8" gradientUnits="userSpaceOnUse">
<stop stop-color="#C3122F"/>
<stop offset="1" stop-color="#E4E4E4"/>
</linearGradient>
<linearGradient id="paint22_linear_2007_4377" x1="84910" y1="-196.399" x2="84910" y2="61251.7" gradientUnits="userSpaceOnUse">
<stop stop-color="#C3122F"/>
<stop offset="1" stop-color="#E4E4E4"/>
</linearGradient>
<linearGradient id="paint23_linear_2007_4377" x1="84910" y1="-206.881" x2="84910" y2="61766.3" gradientUnits="userSpaceOnUse">
<stop stop-color="#C3122F"/>
<stop offset="1" stop-color="#E4E4E4"/>
</linearGradient>
<linearGradient id="paint24_linear_2007_4377" x1="84910" y1="-217.999" x2="84910" y2="62364.6" gradientUnits="userSpaceOnUse">
<stop stop-color="#C3122F"/>
<stop offset="1" stop-color="#E4E4E4"/>
</linearGradient>
<linearGradient id="paint25_linear_2007_4377" x1="84910" y1="-229.812" x2="84910" y2="63051.2" gradientUnits="userSpaceOnUse">
<stop stop-color="#C3122F"/>
<stop offset="1" stop-color="#E4E4E4"/>
</linearGradient>
<linearGradient id="paint26_linear_2007_4377" x1="84910" y1="-242.386" x2="84910" y2="63831.8" gradientUnits="userSpaceOnUse">
<stop stop-color="#C3122F"/>
<stop offset="1" stop-color="#E4E4E4"/>
</linearGradient>
<linearGradient id="paint27_linear_2007_4377" x1="84910" y1="-255.799" x2="84910" y2="64712.7" gradientUnits="userSpaceOnUse">
<stop stop-color="#C3122F"/>
<stop offset="1" stop-color="#E4E4E4"/>
</linearGradient>
<linearGradient id="paint28_linear_2007_4377" x1="84910" y1="-270.137" x2="84910" y2="65701.7" gradientUnits="userSpaceOnUse">
<stop stop-color="#C3122F"/>
<stop offset="1" stop-color="#E4E4E4"/>
</linearGradient>
<linearGradient id="paint29_linear_2007_4377" x1="84910" y1="-285.499" x2="84910" y2="66807.7" gradientUnits="userSpaceOnUse">
<stop stop-color="#C3122F"/>
<stop offset="1" stop-color="#E4E4E4"/>
</linearGradient>
<linearGradient id="paint30_linear_2007_4377" x1="84910" y1="-301.999" x2="84910" y2="68041" gradientUnits="userSpaceOnUse">
<stop stop-color="#C3122F"/>
<stop offset="1" stop-color="#E4E4E4"/>
</linearGradient>
<linearGradient id="paint31_linear_2007_4377" x1="60613.8" y1="-58926.8" x2="109583" y2="-9957.09" gradientUnits="userSpaceOnUse">
<stop stop-color="#C3122F"/>
<stop offset="1" stop-color="#E4E4E4"/>
</linearGradient>
<linearGradient id="paint32_linear_2007_4377" x1="60611" y1="-58929.5" x2="108632" y2="-10909" gradientUnits="userSpaceOnUse">
<stop stop-color="#C3122F"/>
<stop offset="1" stop-color="#E4E4E4"/>
</linearGradient>
<linearGradient id="paint33_linear_2007_4377" x1="60608.2" y1="-58932.4" x2="107776" y2="-11764.4" gradientUnits="userSpaceOnUse">
<stop stop-color="#C3122F"/>
<stop offset="1" stop-color="#E4E4E4"/>
</linearGradient>
<linearGradient id="paint34_linear_2007_4377" x1="60605.2" y1="-58935.4" x2="107009" y2="-12531.7" gradientUnits="userSpaceOnUse">
<stop stop-color="#C3122F"/>
<stop offset="1" stop-color="#E4E4E4"/>
</linearGradient>
<linearGradient id="paint35_linear_2007_4377" x1="60602.1" y1="-58938.5" x2="106323" y2="-13217.8" gradientUnits="userSpaceOnUse">
<stop stop-color="#C3122F"/>
<stop offset="1" stop-color="#E4E4E4"/>
</linearGradient>
<linearGradient id="paint36_linear_2007_4377" x1="60598.9" y1="-58941.7" x2="105712" y2="-13829" gradientUnits="userSpaceOnUse">
<stop stop-color="#C3122F"/>
<stop offset="1" stop-color="#E4E4E4"/>
</linearGradient>
<linearGradient id="paint37_linear_2007_4377" x1="60595.6" y1="-58945" x2="105170" y2="-14370.4" gradientUnits="userSpaceOnUse">
<stop stop-color="#C3122F"/>
<stop offset="1" stop-color="#E4E4E4"/>
</linearGradient>
<linearGradient id="paint38_linear_2007_4377" x1="60592.1" y1="-58948.4" x2="104694" y2="-14846.3" gradientUnits="userSpaceOnUse">
<stop stop-color="#C3122F"/>
<stop offset="1" stop-color="#E4E4E4"/>
</linearGradient>
<linearGradient id="paint39_linear_2007_4377" x1="60588.5" y1="-58952" x2="104280" y2="-15260.6" gradientUnits="userSpaceOnUse">
<stop stop-color="#C3122F"/>
<stop offset="1" stop-color="#E4E4E4"/>
</linearGradient>
<linearGradient id="paint40_linear_2007_4377" x1="60584.8" y1="-58955.8" x2="103924" y2="-15616.5" gradientUnits="userSpaceOnUse">
<stop stop-color="#C3122F"/>
<stop offset="1" stop-color="#E4E4E4"/>
</linearGradient>
<linearGradient id="paint41_linear_2007_4377" x1="60580.9" y1="-58959.7" x2="103624" y2="-15916.5" gradientUnits="userSpaceOnUse">
<stop stop-color="#C3122F"/>
<stop offset="1" stop-color="#E4E4E4"/>
</linearGradient>
<linearGradient id="paint42_linear_2007_4377" x1="60576.8" y1="-58963.8" x2="103378" y2="-16162.8" gradientUnits="userSpaceOnUse">
<stop stop-color="#C3122F"/>
<stop offset="1" stop-color="#E4E4E4"/>
</linearGradient>
<linearGradient id="paint43_linear_2007_4377" x1="60572.5" y1="-58968.1" x2="103183" y2="-16357.3" gradientUnits="userSpaceOnUse">
<stop stop-color="#C3122F"/>
<stop offset="1" stop-color="#E4E4E4"/>
</linearGradient>
<linearGradient id="paint44_linear_2007_4377" x1="60568.1" y1="-58972.5" x2="103039" y2="-16501.3" gradientUnits="userSpaceOnUse">
<stop stop-color="#C3122F"/>
<stop offset="1" stop-color="#E4E4E4"/>
</linearGradient>
<linearGradient id="paint45_linear_2007_4377" x1="60563.4" y1="-58977.2" x2="102945" y2="-16595.7" gradientUnits="userSpaceOnUse">
<stop stop-color="#C3122F"/>
<stop offset="1" stop-color="#E4E4E4"/>
</linearGradient>
<linearGradient id="paint46_linear_2007_4377" x1="60558.5" y1="-58982.1" x2="102899" y2="-16641.3" gradientUnits="userSpaceOnUse">
<stop stop-color="#C3122F"/>
<stop offset="1" stop-color="#E4E4E4"/>
</linearGradient>
<linearGradient id="paint47_linear_2007_4377" x1="60553.4" y1="-58987.2" x2="102902" y2="-16638.3" gradientUnits="userSpaceOnUse">
<stop stop-color="#C3122F"/>
<stop offset="1" stop-color="#E4E4E4"/>
</linearGradient>
<linearGradient id="paint48_linear_2007_4377" x1="60548" y1="-58992.6" x2="102954" y2="-16586.7" gradientUnits="userSpaceOnUse">
<stop stop-color="#C3122F"/>
<stop offset="1" stop-color="#E4E4E4"/>
</linearGradient>
<linearGradient id="paint49_linear_2007_4377" x1="60542.4" y1="-58998.2" x2="103055" y2="-16486.1" gradientUnits="userSpaceOnUse">
<stop stop-color="#C3122F"/>
<stop offset="1" stop-color="#E4E4E4"/>
</linearGradient>
<linearGradient id="paint50_linear_2007_4377" x1="60536.4" y1="-59004.2" x2="103205" y2="-16335.7" gradientUnits="userSpaceOnUse">
<stop stop-color="#C3122F"/>
<stop offset="1" stop-color="#E4E4E4"/>
</linearGradient>
<linearGradient id="paint51_linear_2007_4377" x1="60530.2" y1="-59010.4" x2="103406" y2="-16134.6" gradientUnits="userSpaceOnUse">
<stop stop-color="#C3122F"/>
<stop offset="1" stop-color="#E4E4E4"/>
</linearGradient>
<linearGradient id="paint52_linear_2007_4377" x1="60523.5" y1="-59017.1" x2="103659" y2="-15881.2" gradientUnits="userSpaceOnUse">
<stop stop-color="#C3122F"/>
<stop offset="1" stop-color="#E4E4E4"/>
</linearGradient>
<linearGradient id="paint53_linear_2007_4377" x1="60516.5" y1="-59024.1" x2="103967" y2="-15573.7" gradientUnits="userSpaceOnUse">
<stop stop-color="#C3122F"/>
<stop offset="1" stop-color="#E4E4E4"/>
</linearGradient>
<linearGradient id="paint54_linear_2007_4377" x1="60509.1" y1="-59031.5" x2="104331" y2="-15209.8" gradientUnits="userSpaceOnUse">
<stop stop-color="#C3122F"/>
<stop offset="1" stop-color="#E4E4E4"/>
</linearGradient>
<linearGradient id="paint55_linear_2007_4377" x1="60501.3" y1="-59039.3" x2="104754" y2="-14786.8" gradientUnits="userSpaceOnUse">
<stop stop-color="#C3122F"/>
<stop offset="1" stop-color="#E4E4E4"/>
</linearGradient>
<linearGradient id="paint56_linear_2007_4377" x1="60492.9" y1="-59047.7" x2="105239" y2="-14301.2" gradientUnits="userSpaceOnUse">
<stop stop-color="#C3122F"/>
<stop offset="1" stop-color="#E4E4E4"/>
</linearGradient>
<linearGradient id="paint57_linear_2007_4377" x1="60484" y1="-59056.6" x2="105791" y2="-13749.3" gradientUnits="userSpaceOnUse">
<stop stop-color="#C3122F"/>
<stop offset="1" stop-color="#E4E4E4"/>
</linearGradient>
<linearGradient id="paint58_linear_2007_4377" x1="60474.5" y1="-59066.1" x2="106414" y2="-13126.4" gradientUnits="userSpaceOnUse">
<stop stop-color="#C3122F"/>
<stop offset="1" stop-color="#E4E4E4"/>
</linearGradient>
<linearGradient id="paint59_linear_2007_4377" x1="60464.4" y1="-59076.2" x2="107114" y2="-12427" gradientUnits="userSpaceOnUse">
<stop stop-color="#C3122F"/>
<stop offset="1" stop-color="#E4E4E4"/>
</linearGradient>
<linearGradient id="paint60_linear_2007_4377" x1="60453.5" y1="-59087.1" x2="107896" y2="-11645" gradientUnits="userSpaceOnUse">
<stop stop-color="#C3122F"/>
<stop offset="1" stop-color="#E4E4E4"/>
</linearGradient>
<linearGradient id="paint61_linear_2007_4377" x1="60441.9" y1="-59098.7" x2="108768" y2="-10772.9" gradientUnits="userSpaceOnUse">
<stop stop-color="#C3122F"/>
<stop offset="1" stop-color="#E4E4E4"/>
</linearGradient>
<clipPath id="clip0_2007_4377">
<rect width="1703" height="958" fill="white" transform="translate(-240 -319)"/>
</clipPath>
<clipPath id="clip1_2007_4377">
<rect width="1703" height="958" fill="white" transform="translate(219.694 1099.4) rotate(-45)"/>
</clipPath>
</defs>
</svg>
