<svg width="38" height="39" viewBox="0 0 38 39" fill="none" xmlns="http://www.w3.org/2000/svg">
<g filter="url(#filter0_i_2007_3404)">
<path fillRule="evenodd" clipRule="evenodd" d="M19 6.41646C17.627 6.41646 16.514 7.52946 16.514 8.90244H10.1215C10.1215 3.99897 14.0965 0.0239258 19 0.0239258C23.9035 0.0239258 27.8785 3.99897 27.8785 8.90244C27.8785 13.8059 23.9035 17.7809 19 17.7809V11.3884C20.3729 11.3884 21.486 10.2754 21.486 8.90244C21.486 7.52946 20.3729 6.41646 19 6.41646ZM31.6074 19.0239C31.6074 17.6509 30.4944 16.5379 29.1215 16.5379V10.1454C34.025 10.1454 38 14.1205 38 19.0239C38 23.9274 34.025 27.9024 29.1215 27.9024C24.218 27.9024 20.243 23.9274 20.243 19.0239H26.6355C26.6355 20.3969 27.7485 21.5099 29.1215 21.5099C30.4944 21.5099 31.6074 20.3969 31.6074 19.0239ZM8.87851 21.5099C7.50553 21.5099 6.39253 20.3969 6.39253 19.0239C6.39253 17.6509 7.50553 16.5379 8.87851 16.5379C10.2515 16.5379 11.3645 17.6509 11.3645 19.0239H17.757C17.757 14.1205 13.782 10.1454 8.87851 10.1454C3.97505 10.1454 0 14.1205 0 19.0239C0 23.9274 3.97505 27.9024 8.87851 27.9024V21.5099ZM19 31.6314C20.3729 31.6314 21.486 30.5184 21.486 29.1454H27.8785C27.8785 34.0489 23.9035 38.0239 19 38.0239C14.0965 38.0239 10.1215 34.0489 10.1215 29.1454C10.1215 24.2419 14.0965 20.2669 19 20.2669V26.6595C17.627 26.6595 16.514 27.7725 16.514 29.1454C16.514 30.5184 17.627 31.6314 19 31.6314Z" fill="#FF0000"/>
</g>
<defs>
<filter id="filter0_i_2007_3404" x="-1" y="0.0239258" width="39" height="41" filterUnits="userSpaceOnUse" colorInterpolationFilters="sRGB">
<feFlood floodOpacity="0" result="BackgroundImageFix"/>
<feBlend mode="normal" in="SourceGraphic" in2="BackgroundImageFix" result="shape"/>
<feColorMatrix in="SourceAlpha" type="matrix" values="0 0 0 0 0 0 0 0 0 0 0 0 0 0 0 0 0 0 127 0" result="hardAlpha"/>
<feOffset dx="-1" dy="3"/>
<feGaussianBlur stdDeviation="1.5"/>
<feComposite in2="hardAlpha" operator="arithmetic" k2="-1" k3="1"/>
<feColorMatrix type="matrix" values="0 0 0 0 0.988963 0 0 0 0 0.432533 0 0 0 0 0.194603 0 0 0 1 0"/>
<feBlend mode="normal" in2="shape" result="effect1_innerShadow_2007_3404"/>
</filter>
</defs>
</svg>
