<svg width="41" height="39" viewBox="0 0 41 39" fill="none" xmlns="http://www.w3.org/2000/svg">
<g filter="url(#filter0_i_2007_3339)">
<path d="M7.28533 34.6893L15.4388 24.3119C15.8575 23.8747 16.1132 23.3031 16.1611 22.6951C16.1674 22.5034 16.126 22.3131 16.0415 22.1416C15.9571 21.9701 15.8327 21.8228 15.678 21.7128C15.3001 21.4484 14.8475 21.3172 14.3891 21.3396C14.1864 21.346 13.9841 21.3634 13.7832 21.3919L0.691406 23.1858V15.8138L13.7832 17.6272C13.9841 17.6561 14.1864 17.6735 14.3891 17.6796C14.8493 17.7006 15.3028 17.5649 15.678 17.2936C15.8319 17.1814 15.9557 17.0327 16.04 16.8604C16.1242 16.688 16.1662 16.4973 16.1611 16.3049C16.1207 15.706 15.8749 15.1404 15.4656 14.7073L7.26015 4.1796L13.8729 0.5L18.7971 12.8087C18.9448 13.2683 19.2054 13.6824 19.5525 14.0132C19.6767 14.1471 19.8253 14.2539 19.9916 14.3269C20.1579 14.3998 20.3377 14.4376 20.5188 14.4376C20.6999 14.4376 20.8797 14.3998 21.046 14.3269C21.2123 14.2539 21.3609 14.1471 21.4851 14.0132C21.8269 13.6792 22.0849 13.266 22.2342 12.8087L27.119 0.5L33.8498 4.1796L25.5657 14.7073C25.1461 15.1544 24.8907 15.7346 24.8434 16.3505C24.84 16.5366 24.8811 16.7211 24.963 16.8876C25.045 17.054 25.1653 17.1979 25.3139 17.3067C25.7048 17.5746 26.1714 17.7053 26.6422 17.6796C26.8582 17.6846 27.0749 17.667 27.2874 17.6272L40.3084 15.8138V23.1858L27.2874 21.3919C27.0556 21.3499 26.8193 21.3324 26.5839 21.3396C26.1296 21.3123 25.6787 21.4314 25.2951 21.6801C25.1488 21.7862 25.0297 21.927 24.9488 22.0901C24.868 22.2532 24.8276 22.4338 24.8308 22.6163C24.8867 23.2467 25.1425 23.8415 25.5595 24.3119L33.8105 34.6893L27.1064 38.5L22.1948 26.204C22.0417 25.7486 21.7859 25.3363 21.4473 24.9996C21.3231 24.8656 21.1729 24.7589 21.0067 24.6859C20.8404 24.613 20.6606 24.5752 20.4795 24.5752C20.2983 24.5752 20.1201 24.613 19.9538 24.6859C19.7876 24.7589 19.6373 24.8656 19.5132 24.9996C19.1723 25.3393 18.9075 25.7502 18.7389 26.204L13.8147 38.5L7.28533 34.6893Z" fill="#FF0000"/>
</g>
<defs>
<filter id="filter0_i_2007_3339" x="-0.308594" y="0.5" width="40.6172" height="41" filterUnits="userSpaceOnUse" colorInterpolationFilters="sRGB">
<feFlood floodOpacity="0" result="BackgroundImageFix"/>
<feBlend mode="normal" in="SourceGraphic" in2="BackgroundImageFix" result="shape"/>
<feColorMatrix in="SourceAlpha" type="matrix" values="0 0 0 0 0 0 0 0 0 0 0 0 0 0 0 0 0 0 127 0" result="hardAlpha"/>
<feOffset dx="-1" dy="3"/>
<feGaussianBlur stdDeviation="1.5"/>
<feComposite in2="hardAlpha" operator="arithmetic" k2="-1" k3="1"/>
<feColorMatrix type="matrix" values="0 0 0 0 0.988963 0 0 0 0 0.432533 0 0 0 0 0.194603 0 0 0 1 0"/>
<feBlend mode="normal" in2="shape" result="effect1_innerShadow_2007_3339"/>
</filter>
</defs>
</svg>
